<svg width="60" height="60" viewBox="0 0 60 60" fill="none" xmlns="http://www.w3.org/2000/svg">
<rect width="60" height="60" rx="14" fill="url(#paint0_linear_261_201)"/>
<rect width="60" height="60" rx="14" fill="white" fill-opacity="0.3"/>
<path fill-rule="evenodd" clip-rule="evenodd" d="M16.3295 30.7403C17.402 29.8456 18.9234 30.0873 19.7278 31.2803C20.4787 32.3939 23.8829 35.6001 29.9227 35.6001C35.9625 35.6001 39.3667 32.3939 40.1177 31.2803C40.922 30.0873 42.4435 29.8456 43.516 30.7403C44.5885 31.6349 44.8058 33.3273 44.0014 34.5202C42.325 37.0064 37.4762 41 29.9227 41C22.3693 41 17.5204 37.0064 15.844 34.5202C15.0397 33.3273 15.257 31.6349 16.3295 30.7403Z" fill="#553B3E"/>
<path d="M18.8359 24.6719C23.1636 24.6719 26.6719 21.1636 26.6719 16.8359C26.6719 12.5083 23.1636 9 18.8359 9C14.5083 9 11 12.5083 11 16.8359C11 21.1636 14.5083 24.6719 18.8359 24.6719Z" fill="#553B3E"/>
<path d="M41.1172 24.6719C45.4449 24.6719 48.9531 21.1636 48.9531 16.8359C48.9531 12.5083 45.4449 9 41.1172 9C36.7895 9 33.2812 12.5083 33.2812 16.8359C33.2812 21.1636 36.7895 24.6719 41.1172 24.6719Z" fill="#553B3E"/>
<defs>
<linearGradient id="paint0_linear_261_201" x1="30" y1="60" x2="30" y2="0" gradientUnits="userSpaceOnUse">
<stop stop-color="#FBA20F"/>
<stop offset="1" stop-color="#FEEF41"/>
</linearGradient>
</defs>
</svg>
