<svg width="493" height="163" viewBox="0 0 493 163" fill="none" xmlns="http://www.w3.org/2000/svg">
<mask id="path-1-outside-1_173_438" maskUnits="userSpaceOnUse" x="0" y="0" width="493" height="163" fill="black">
<rect fill="white" width="493" height="163"/>
<path d="M295.637 34.2448C298.427 36.9448 302.117 38.2948 306.707 38.2948C311.297 38.2948 314.987 36.9448 317.777 34.2448C320.567 31.5449 321.962 27.9449 321.962 23.4449C321.962 18.9449 320.567 15.435 317.777 12.915C314.987 10.305 311.297 9 306.707 9C302.117 9 298.427 10.305 295.637 12.915C292.847 15.435 291.452 18.9449 291.452 23.4449C291.452 27.9449 292.847 31.5449 295.637 34.2448Z"/>
<path d="M276.692 153.089C301.902 156.691 324.388 129.378 330.602 107.009C332.852 98.8195 333.977 89.6395 333.977 79.4696C333.977 67.3196 331.772 58.0047 327.362 51.5247C320.052 40.7836 304.406 37.809 295.187 48.2848C287.425 57.1047 296.029 73.6646 298.967 83.6546C302.567 95.8945 297.979 110.651 290.732 122.039C287.216 127.665 275.504 138.981 271.562 143.639C267.832 148.386 271.749 152.618 276.692 153.089Z"/>
<path fill-rule="evenodd" clip-rule="evenodd" d="M19.1249 116.909C25.8749 124.559 36.1798 128.384 50.0397 128.384C57.194 128.384 73.362 124.446 77.1296 117.449C80.389 111.582 74.2649 103.499 68.3546 108.674C61.9019 114.324 29.2499 116.234 28.7999 107.054C28.3499 97.8744 52.1997 114.6 72.5846 97.8745C76.0946 94.9945 78.6596 91.7995 80.2796 88.2895C81.9896 84.7795 82.8446 81.2696 82.8446 77.7596C82.8446 71.3696 81.3596 65.6097 78.3896 60.4797C75.4196 55.2597 71.0096 51.1647 65.1597 48.1948C59.3997 45.1348 52.2447 43.6048 43.6948 43.6048C37.1248 43.6048 31.5899 44.6848 27.0899 46.8448C22.6799 48.9148 19.1249 51.8397 16.425 55.6197C13.815 59.3997 11.925 63.7647 10.755 68.7146C9.585 73.5746 9 78.7946 9 84.3745C9 98.4145 12.375 109.259 19.1249 116.909ZM50.0397 86.7595C45.4713 86.7595 42.6148 83.7175 42.6148 79.1996C42.6148 73.7066 44.6542 67.2646 51.1197 67.2646C56.6997 67.2646 60.4897 70.8296 60.4897 75.9596C60.4897 80.7727 55.2136 86.7595 50.0397 86.7595Z"/>
<path d="M138.803 137.294C139.793 138.554 141.233 139.184 143.123 139.184C145.913 139.184 148.388 137.789 150.548 134.999C152.798 132.209 154.688 128.744 156.218 124.604C157.838 120.464 159.098 116.324 159.998 112.184C160.538 109.844 161.078 107.549 161.618 105.299C162.158 103.049 163.058 101.204 164.318 99.7645C165.668 98.2345 167.648 97.4695 170.258 97.4695C173.138 97.4695 175.388 98.4145 177.008 100.304C178.628 102.104 179.753 104.444 180.383 107.324C181.103 110.204 181.508 113.309 181.598 116.639C181.778 119.969 181.868 123.119 181.868 126.089C181.868 131.039 182.318 134.459 183.218 136.349C184.208 138.239 185.513 139.184 187.133 139.184C189.383 139.184 191.633 137.834 193.883 135.134C196.223 132.344 198.338 128.654 200.228 124.064C202.208 119.474 203.783 114.344 204.953 108.674C206.123 102.914 206.708 97.0645 206.708 91.1245C206.708 82.5745 205.538 75.5996 203.198 70.1996C200.858 64.7997 197.753 60.8397 193.883 58.3197C190.103 55.7097 186.008 54.4047 181.598 54.4047C178.448 54.4047 175.703 55.1697 173.363 56.6997C171.023 58.2297 168.548 60.2097 165.938 62.6397C164.768 63.7197 163.913 64.5297 163.373 65.0697C162.833 65.6097 162.203 65.8797 161.483 65.8797C160.763 65.8797 160.223 65.6097 159.863 65.0697C159.503 64.5297 159.098 63.9447 158.648 63.3147C157.118 60.9747 154.823 58.9047 151.763 57.1047C148.703 55.3047 145.328 54.4047 141.638 54.4047C138.668 54.4047 136.013 55.0797 133.673 56.4297C131.423 57.7797 129.038 59.6247 126.518 61.9647C125.348 63.0447 124.493 63.8547 123.953 64.3947C123.413 64.9347 122.783 65.2047 122.063 65.2047C121.433 65.2047 120.893 64.9797 120.443 64.5297C120.083 63.9897 119.678 63.3597 119.228 62.6397C117.518 59.9397 115.358 57.9147 112.748 56.5647C110.138 55.1247 107.303 54.4047 104.243 54.4047C99.2034 54.4047 95.0634 56.4747 91.8234 60.6147C88.6734 64.6647 87.0984 71.0546 87.0984 79.7846C87.0984 83.2045 87.3234 87.1645 87.7734 91.6645C88.3134 96.1645 88.9434 100.754 89.6634 105.434C90.4734 110.114 91.3284 114.524 92.2284 118.664C93.1284 122.804 94.0284 126.179 94.9284 128.789C95.9184 131.579 97.0884 134.009 98.4384 136.079C99.7884 138.149 101.408 139.184 103.298 139.184C103.748 139.184 104.468 139.049 105.458 138.779C106.448 138.599 107.483 137.834 108.563 136.484C109.733 135.044 110.723 132.614 111.533 129.194C112.343 125.954 112.883 122.489 113.153 118.799C113.423 115.109 113.828 111.644 114.368 108.404C114.908 105.164 115.943 102.554 117.473 100.574C119.003 98.5045 121.388 97.4695 124.628 97.4695C127.598 97.4695 129.893 98.3695 131.513 100.169C133.133 101.879 134.303 104.174 135.023 107.054C135.743 109.844 136.148 112.949 136.238 116.369C136.418 119.699 136.508 122.939 136.508 126.089C136.508 128.249 136.643 130.364 136.913 132.434C137.273 134.414 137.903 136.034 138.803 137.294Z"/>
<path fill-rule="evenodd" clip-rule="evenodd" d="M252.704 134.684C245.414 134.684 238.754 132.704 232.724 128.744C226.784 124.784 222.014 119.204 218.414 112.004C214.814 104.804 213.014 96.3895 213.014 86.7595C213.014 74.6996 216.119 65.5647 222.329 59.3547C228.629 53.0547 238.484 49.9048 251.894 49.9048C265.484 49.9048 275.384 53.0997 281.594 59.4897C287.894 65.7896 291.044 74.9696 291.044 87.0295C291.044 96.5695 289.289 104.939 285.779 112.139C282.359 119.249 277.724 124.784 271.874 128.744C266.114 132.704 259.724 134.684 252.704 134.684ZM252.164 113.309C262.322 113.309 265.092 101.141 260.129 93.9445C258.329 91.2445 255.674 89.8945 252.164 89.8945C241.56 89.8945 240.053 101.72 244.064 109.259C245.864 111.959 248.564 113.309 252.164 113.309Z"/>
<path d="M357.264 59.8947C352.674 59.8947 348.984 58.5447 346.194 55.8447C343.404 53.1447 342.009 49.5448 342.009 45.0448C342.009 40.5448 343.404 37.0348 346.194 34.5148C348.984 31.9049 352.674 30.5999 357.264 30.5999C361.854 30.5999 365.544 31.9049 368.334 34.5148C371.124 37.0348 372.519 40.5448 372.519 45.0448C372.519 49.5448 371.124 53.1447 368.334 55.8447C365.544 58.5447 361.854 59.8947 357.264 59.8947Z"/>
<path d="M357.264 142.784C354.564 142.784 352.494 141.974 351.054 140.354C349.704 138.644 348.534 136.394 347.544 133.604C346.914 131.714 346.149 129.149 345.249 125.909C344.439 122.579 343.584 118.889 342.684 114.839C341.874 110.789 341.199 106.694 340.659 102.554C340.119 98.4145 339.849 94.5895 339.849 91.0795C339.849 83.0695 341.379 77.2646 344.439 73.6646C347.589 69.9746 351.864 68.1296 357.264 68.1296C362.664 68.1296 366.894 69.9746 369.954 73.6646C373.104 77.2646 374.679 83.0695 374.679 91.0795C374.679 94.5895 374.409 98.4145 373.869 102.554C373.329 106.694 372.609 110.789 371.709 114.839C370.899 118.889 370.044 122.579 369.144 125.909C368.334 129.149 367.614 131.714 366.984 133.604C365.994 136.574 364.779 138.869 363.339 140.489C361.899 142.019 359.874 142.784 357.264 142.784Z"/>
<path d="M411.03 47.2948C416.7 47.2948 421.155 47.6098 424.395 48.2398C427.635 48.7798 430.56 49.6348 433.17 50.8048C435.78 52.0648 437.58 53.5048 438.57 55.1247C439.56 56.8347 440.055 58.3197 440.055 59.5797C440.055 61.1997 439.56 62.5947 438.57 63.7647C437.49 64.9347 436.14 65.6547 434.52 65.9247C432.9 66.1947 431.235 65.7447 429.525 64.5747C425.925 62.2347 422.37 60.9297 418.86 60.6597C415.35 60.3897 412.065 60.2997 409.005 60.3897C406.306 60.4797 403.786 61.0197 401.446 62.0097C399.106 62.9997 397.936 64.4397 397.936 66.3297C397.936 67.5897 398.656 68.3996 400.096 68.7596C401.446 69.2096 403.921 69.4346 407.521 69.4346C419.4 69.4346 428.85 71.6846 435.87 76.1846C442.8 80.6846 446.265 87.9745 446.265 98.0545C446.265 104.534 444.78 110.339 441.81 115.469C438.75 120.599 434.295 124.649 428.445 127.619C422.595 130.589 415.35 132.074 406.711 132.074C396.991 132.074 389.431 130.049 384.031 125.999C378.541 122.039 378.448 114.569 378.448 107.009C378.448 97.2895 381.331 91.4395 390.601 91.4395C392.88 91.4395 395.601 92.5688 398.331 93.7017C400.618 94.6508 402.911 95.6025 404.956 95.8945C407.386 96.3445 409.366 96.5695 410.896 96.5695C413.235 96.5695 414.945 96.0295 416.025 94.9495C417.015 93.8695 417.51 92.5195 417.51 90.8995C417.51 89.0095 416.79 87.5695 415.35 86.5795C413.82 85.6796 411.075 85.2295 407.116 85.2295C398.386 85.2295 391.951 83.6096 387.811 80.3696C383.671 77.1296 381.601 72.5396 381.601 66.5997C381.601 60.8397 384.256 56.1597 389.566 52.5597C394.786 49.0498 401.941 47.2948 411.03 47.2948Z"/>
<path d="M460.665 99.7194C462.105 101.339 464.04 102.149 466.47 102.149C468.99 102.149 470.97 101.339 472.41 99.7194C473.85 98.0994 475.02 95.8045 475.92 92.8345C477.09 89.1445 478.215 84.7795 479.295 79.7396C480.465 74.6096 481.41 69.1196 482.13 63.2697C482.94 57.3297 483.345 51.3448 483.345 45.3148C483.345 38.7448 481.68 33.7049 478.35 30.1949C475.02 26.5949 471.06 24.7949 466.47 24.7949C461.97 24.7949 458.01 26.5949 454.59 30.1949C451.26 33.7049 449.595 38.7448 449.595 45.3148C449.595 51.3448 449.955 57.3297 450.675 63.2697C451.485 69.1196 452.475 74.6096 453.645 79.7396C454.815 84.7795 455.985 89.1445 457.155 92.8345C458.145 95.8045 459.315 98.0994 460.665 99.7194Z"/>
<path d="M457.515 130.904C460.125 133.424 463.41 134.684 467.37 134.684C471.42 134.684 474.705 133.424 477.225 130.904C479.835 128.384 481.14 125.324 481.14 121.724C481.14 118.034 479.835 114.929 477.225 112.409C474.705 109.889 471.42 108.629 467.37 108.629C463.41 108.629 460.125 109.889 457.515 112.409C454.905 114.929 453.6 118.034 453.6 121.724C453.6 125.324 454.905 128.384 457.515 130.904Z"/>
</mask>
<path d="M295.637 34.2448C298.427 36.9448 302.117 38.2948 306.707 38.2948C311.297 38.2948 314.987 36.9448 317.777 34.2448C320.567 31.5449 321.962 27.9449 321.962 23.4449C321.962 18.9449 320.567 15.435 317.777 12.915C314.987 10.305 311.297 9 306.707 9C302.117 9 298.427 10.305 295.637 12.915C292.847 15.435 291.452 18.9449 291.452 23.4449C291.452 27.9449 292.847 31.5449 295.637 34.2448Z" fill="url(#paint0_linear_173_438)"/>
<path d="M276.692 153.089C301.902 156.691 324.388 129.378 330.602 107.009C332.852 98.8195 333.977 89.6395 333.977 79.4696C333.977 67.3196 331.772 58.0047 327.362 51.5247C320.052 40.7836 304.406 37.809 295.187 48.2848C287.425 57.1047 296.029 73.6646 298.967 83.6546C302.567 95.8945 297.979 110.651 290.732 122.039C287.216 127.665 275.504 138.981 271.562 143.639C267.832 148.386 271.749 152.618 276.692 153.089Z" fill="url(#paint1_linear_173_438)"/>
<path fill-rule="evenodd" clip-rule="evenodd" d="M19.1249 116.909C25.8749 124.559 36.1798 128.384 50.0397 128.384C57.194 128.384 73.362 124.446 77.1296 117.449C80.389 111.582 74.2649 103.499 68.3546 108.674C61.9019 114.324 29.2499 116.234 28.7999 107.054C28.3499 97.8744 52.1997 114.6 72.5846 97.8745C76.0946 94.9945 78.6596 91.7995 80.2796 88.2895C81.9896 84.7795 82.8446 81.2696 82.8446 77.7596C82.8446 71.3696 81.3596 65.6097 78.3896 60.4797C75.4196 55.2597 71.0096 51.1647 65.1597 48.1948C59.3997 45.1348 52.2447 43.6048 43.6948 43.6048C37.1248 43.6048 31.5899 44.6848 27.0899 46.8448C22.6799 48.9148 19.1249 51.8397 16.425 55.6197C13.815 59.3997 11.925 63.7647 10.755 68.7146C9.585 73.5746 9 78.7946 9 84.3745C9 98.4145 12.375 109.259 19.1249 116.909ZM50.0397 86.7595C45.4713 86.7595 42.6148 83.7175 42.6148 79.1996C42.6148 73.7066 44.6542 67.2646 51.1197 67.2646C56.6997 67.2646 60.4897 70.8296 60.4897 75.9596C60.4897 80.7727 55.2136 86.7595 50.0397 86.7595Z" fill="url(#paint2_linear_173_438)"/>
<path d="M138.803 137.294C139.793 138.554 141.233 139.184 143.123 139.184C145.913 139.184 148.388 137.789 150.548 134.999C152.798 132.209 154.688 128.744 156.218 124.604C157.838 120.464 159.098 116.324 159.998 112.184C160.538 109.844 161.078 107.549 161.618 105.299C162.158 103.049 163.058 101.204 164.318 99.7645C165.668 98.2345 167.648 97.4695 170.258 97.4695C173.138 97.4695 175.388 98.4145 177.008 100.304C178.628 102.104 179.753 104.444 180.383 107.324C181.103 110.204 181.508 113.309 181.598 116.639C181.778 119.969 181.868 123.119 181.868 126.089C181.868 131.039 182.318 134.459 183.218 136.349C184.208 138.239 185.513 139.184 187.133 139.184C189.383 139.184 191.633 137.834 193.883 135.134C196.223 132.344 198.338 128.654 200.228 124.064C202.208 119.474 203.783 114.344 204.953 108.674C206.123 102.914 206.708 97.0645 206.708 91.1245C206.708 82.5745 205.538 75.5996 203.198 70.1996C200.858 64.7997 197.753 60.8397 193.883 58.3197C190.103 55.7097 186.008 54.4047 181.598 54.4047C178.448 54.4047 175.703 55.1697 173.363 56.6997C171.023 58.2297 168.548 60.2097 165.938 62.6397C164.768 63.7197 163.913 64.5297 163.373 65.0697C162.833 65.6097 162.203 65.8797 161.483 65.8797C160.763 65.8797 160.223 65.6097 159.863 65.0697C159.503 64.5297 159.098 63.9447 158.648 63.3147C157.118 60.9747 154.823 58.9047 151.763 57.1047C148.703 55.3047 145.328 54.4047 141.638 54.4047C138.668 54.4047 136.013 55.0797 133.673 56.4297C131.423 57.7797 129.038 59.6247 126.518 61.9647C125.348 63.0447 124.493 63.8547 123.953 64.3947C123.413 64.9347 122.783 65.2047 122.063 65.2047C121.433 65.2047 120.893 64.9797 120.443 64.5297C120.083 63.9897 119.678 63.3597 119.228 62.6397C117.518 59.9397 115.358 57.9147 112.748 56.5647C110.138 55.1247 107.303 54.4047 104.243 54.4047C99.2034 54.4047 95.0634 56.4747 91.8234 60.6147C88.6734 64.6647 87.0984 71.0546 87.0984 79.7846C87.0984 83.2045 87.3234 87.1645 87.7734 91.6645C88.3134 96.1645 88.9434 100.754 89.6634 105.434C90.4734 110.114 91.3284 114.524 92.2284 118.664C93.1284 122.804 94.0284 126.179 94.9284 128.789C95.9184 131.579 97.0884 134.009 98.4384 136.079C99.7884 138.149 101.408 139.184 103.298 139.184C103.748 139.184 104.468 139.049 105.458 138.779C106.448 138.599 107.483 137.834 108.563 136.484C109.733 135.044 110.723 132.614 111.533 129.194C112.343 125.954 112.883 122.489 113.153 118.799C113.423 115.109 113.828 111.644 114.368 108.404C114.908 105.164 115.943 102.554 117.473 100.574C119.003 98.5045 121.388 97.4695 124.628 97.4695C127.598 97.4695 129.893 98.3695 131.513 100.169C133.133 101.879 134.303 104.174 135.023 107.054C135.743 109.844 136.148 112.949 136.238 116.369C136.418 119.699 136.508 122.939 136.508 126.089C136.508 128.249 136.643 130.364 136.913 132.434C137.273 134.414 137.903 136.034 138.803 137.294Z" fill="url(#paint3_linear_173_438)"/>
<path fill-rule="evenodd" clip-rule="evenodd" d="M252.704 134.684C245.414 134.684 238.754 132.704 232.724 128.744C226.784 124.784 222.014 119.204 218.414 112.004C214.814 104.804 213.014 96.3895 213.014 86.7595C213.014 74.6996 216.119 65.5647 222.329 59.3547C228.629 53.0547 238.484 49.9048 251.894 49.9048C265.484 49.9048 275.384 53.0997 281.594 59.4897C287.894 65.7896 291.044 74.9696 291.044 87.0295C291.044 96.5695 289.289 104.939 285.779 112.139C282.359 119.249 277.724 124.784 271.874 128.744C266.114 132.704 259.724 134.684 252.704 134.684ZM252.164 113.309C262.322 113.309 265.092 101.141 260.129 93.9445C258.329 91.2445 255.674 89.8945 252.164 89.8945C241.56 89.8945 240.053 101.72 244.064 109.259C245.864 111.959 248.564 113.309 252.164 113.309Z" fill="url(#paint4_linear_173_438)"/>
<path d="M357.264 59.8947C352.674 59.8947 348.984 58.5447 346.194 55.8447C343.404 53.1447 342.009 49.5448 342.009 45.0448C342.009 40.5448 343.404 37.0348 346.194 34.5148C348.984 31.9049 352.674 30.5999 357.264 30.5999C361.854 30.5999 365.544 31.9049 368.334 34.5148C371.124 37.0348 372.519 40.5448 372.519 45.0448C372.519 49.5448 371.124 53.1447 368.334 55.8447C365.544 58.5447 361.854 59.8947 357.264 59.8947Z" fill="url(#paint5_linear_173_438)"/>
<path d="M357.264 142.784C354.564 142.784 352.494 141.974 351.054 140.354C349.704 138.644 348.534 136.394 347.544 133.604C346.914 131.714 346.149 129.149 345.249 125.909C344.439 122.579 343.584 118.889 342.684 114.839C341.874 110.789 341.199 106.694 340.659 102.554C340.119 98.4145 339.849 94.5895 339.849 91.0795C339.849 83.0695 341.379 77.2646 344.439 73.6646C347.589 69.9746 351.864 68.1296 357.264 68.1296C362.664 68.1296 366.894 69.9746 369.954 73.6646C373.104 77.2646 374.679 83.0695 374.679 91.0795C374.679 94.5895 374.409 98.4145 373.869 102.554C373.329 106.694 372.609 110.789 371.709 114.839C370.899 118.889 370.044 122.579 369.144 125.909C368.334 129.149 367.614 131.714 366.984 133.604C365.994 136.574 364.779 138.869 363.339 140.489C361.899 142.019 359.874 142.784 357.264 142.784Z" fill="url(#paint6_linear_173_438)"/>
<path d="M411.03 47.2948C416.7 47.2948 421.155 47.6098 424.395 48.2398C427.635 48.7798 430.56 49.6348 433.17 50.8048C435.78 52.0648 437.58 53.5048 438.57 55.1247C439.56 56.8347 440.055 58.3197 440.055 59.5797C440.055 61.1997 439.56 62.5947 438.57 63.7647C437.49 64.9347 436.14 65.6547 434.52 65.9247C432.9 66.1947 431.235 65.7447 429.525 64.5747C425.925 62.2347 422.37 60.9297 418.86 60.6597C415.35 60.3897 412.065 60.2997 409.005 60.3897C406.306 60.4797 403.786 61.0197 401.446 62.0097C399.106 62.9997 397.936 64.4397 397.936 66.3297C397.936 67.5897 398.656 68.3996 400.096 68.7596C401.446 69.2096 403.921 69.4346 407.521 69.4346C419.4 69.4346 428.85 71.6846 435.87 76.1846C442.8 80.6846 446.265 87.9745 446.265 98.0545C446.265 104.534 444.78 110.339 441.81 115.469C438.75 120.599 434.295 124.649 428.445 127.619C422.595 130.589 415.35 132.074 406.711 132.074C396.991 132.074 389.431 130.049 384.031 125.999C378.541 122.039 378.448 114.569 378.448 107.009C378.448 97.2895 381.331 91.4395 390.601 91.4395C392.88 91.4395 395.601 92.5688 398.331 93.7017C400.618 94.6508 402.911 95.6025 404.956 95.8945C407.386 96.3445 409.366 96.5695 410.896 96.5695C413.235 96.5695 414.945 96.0295 416.025 94.9495C417.015 93.8695 417.51 92.5195 417.51 90.8995C417.51 89.0095 416.79 87.5695 415.35 86.5795C413.82 85.6796 411.075 85.2295 407.116 85.2295C398.386 85.2295 391.951 83.6096 387.811 80.3696C383.671 77.1296 381.601 72.5396 381.601 66.5997C381.601 60.8397 384.256 56.1597 389.566 52.5597C394.786 49.0498 401.941 47.2948 411.03 47.2948Z" fill="url(#paint7_linear_173_438)"/>
<path d="M460.665 99.7194C462.105 101.339 464.04 102.149 466.47 102.149C468.99 102.149 470.97 101.339 472.41 99.7194C473.85 98.0994 475.02 95.8045 475.92 92.8345C477.09 89.1445 478.215 84.7795 479.295 79.7396C480.465 74.6096 481.41 69.1196 482.13 63.2697C482.94 57.3297 483.345 51.3448 483.345 45.3148C483.345 38.7448 481.68 33.7049 478.35 30.1949C475.02 26.5949 471.06 24.7949 466.47 24.7949C461.97 24.7949 458.01 26.5949 454.59 30.1949C451.26 33.7049 449.595 38.7448 449.595 45.3148C449.595 51.3448 449.955 57.3297 450.675 63.2697C451.485 69.1196 452.475 74.6096 453.645 79.7396C454.815 84.7795 455.985 89.1445 457.155 92.8345C458.145 95.8045 459.315 98.0994 460.665 99.7194Z" fill="url(#paint8_linear_173_438)"/>
<path d="M457.515 130.904C460.125 133.424 463.41 134.684 467.37 134.684C471.42 134.684 474.705 133.424 477.225 130.904C479.835 128.384 481.14 125.324 481.14 121.724C481.14 118.034 479.835 114.929 477.225 112.409C474.705 109.889 471.42 108.629 467.37 108.629C463.41 108.629 460.125 109.889 457.515 112.409C454.905 114.929 453.6 118.034 453.6 121.724C453.6 125.324 454.905 128.384 457.515 130.904Z" fill="url(#paint9_linear_173_438)"/>
<path d="M295.637 34.2448C298.427 36.9448 302.117 38.2948 306.707 38.2948C311.297 38.2948 314.987 36.9448 317.777 34.2448C320.567 31.5449 321.962 27.9449 321.962 23.4449C321.962 18.9449 320.567 15.435 317.777 12.915C314.987 10.305 311.297 9 306.707 9C302.117 9 298.427 10.305 295.637 12.915C292.847 15.435 291.452 18.9449 291.452 23.4449C291.452 27.9449 292.847 31.5449 295.637 34.2448Z" stroke="#FB6AB2" stroke-width="18" mask="url(#path-1-outside-1_173_438)"/>
<path d="M276.692 153.089C301.902 156.691 324.388 129.378 330.602 107.009C332.852 98.8195 333.977 89.6395 333.977 79.4696C333.977 67.3196 331.772 58.0047 327.362 51.5247C320.052 40.7836 304.406 37.809 295.187 48.2848C287.425 57.1047 296.029 73.6646 298.967 83.6546C302.567 95.8945 297.979 110.651 290.732 122.039C287.216 127.665 275.504 138.981 271.562 143.639C267.832 148.386 271.749 152.618 276.692 153.089Z" stroke="#FB6AB2" stroke-width="18" mask="url(#path-1-outside-1_173_438)"/>
<path fill-rule="evenodd" clip-rule="evenodd" d="M19.1249 116.909C25.8749 124.559 36.1798 128.384 50.0397 128.384C57.194 128.384 73.362 124.446 77.1296 117.449C80.389 111.582 74.2649 103.499 68.3546 108.674C61.9019 114.324 29.2499 116.234 28.7999 107.054C28.3499 97.8744 52.1997 114.6 72.5846 97.8745C76.0946 94.9945 78.6596 91.7995 80.2796 88.2895C81.9896 84.7795 82.8446 81.2696 82.8446 77.7596C82.8446 71.3696 81.3596 65.6097 78.3896 60.4797C75.4196 55.2597 71.0096 51.1647 65.1597 48.1948C59.3997 45.1348 52.2447 43.6048 43.6948 43.6048C37.1248 43.6048 31.5899 44.6848 27.0899 46.8448C22.6799 48.9148 19.1249 51.8397 16.425 55.6197C13.815 59.3997 11.925 63.7647 10.755 68.7146C9.585 73.5746 9 78.7946 9 84.3745C9 98.4145 12.375 109.259 19.1249 116.909ZM50.0397 86.7595C45.4713 86.7595 42.6148 83.7175 42.6148 79.1996C42.6148 73.7066 44.6542 67.2646 51.1197 67.2646C56.6997 67.2646 60.4897 70.8296 60.4897 75.9596C60.4897 80.7727 55.2136 86.7595 50.0397 86.7595Z" stroke="#FB6AB2" stroke-width="18" mask="url(#path-1-outside-1_173_438)"/>
<path d="M138.803 137.294C139.793 138.554 141.233 139.184 143.123 139.184C145.913 139.184 148.388 137.789 150.548 134.999C152.798 132.209 154.688 128.744 156.218 124.604C157.838 120.464 159.098 116.324 159.998 112.184C160.538 109.844 161.078 107.549 161.618 105.299C162.158 103.049 163.058 101.204 164.318 99.7645C165.668 98.2345 167.648 97.4695 170.258 97.4695C173.138 97.4695 175.388 98.4145 177.008 100.304C178.628 102.104 179.753 104.444 180.383 107.324C181.103 110.204 181.508 113.309 181.598 116.639C181.778 119.969 181.868 123.119 181.868 126.089C181.868 131.039 182.318 134.459 183.218 136.349C184.208 138.239 185.513 139.184 187.133 139.184C189.383 139.184 191.633 137.834 193.883 135.134C196.223 132.344 198.338 128.654 200.228 124.064C202.208 119.474 203.783 114.344 204.953 108.674C206.123 102.914 206.708 97.0645 206.708 91.1245C206.708 82.5745 205.538 75.5996 203.198 70.1996C200.858 64.7997 197.753 60.8397 193.883 58.3197C190.103 55.7097 186.008 54.4047 181.598 54.4047C178.448 54.4047 175.703 55.1697 173.363 56.6997C171.023 58.2297 168.548 60.2097 165.938 62.6397C164.768 63.7197 163.913 64.5297 163.373 65.0697C162.833 65.6097 162.203 65.8797 161.483 65.8797C160.763 65.8797 160.223 65.6097 159.863 65.0697C159.503 64.5297 159.098 63.9447 158.648 63.3147C157.118 60.9747 154.823 58.9047 151.763 57.1047C148.703 55.3047 145.328 54.4047 141.638 54.4047C138.668 54.4047 136.013 55.0797 133.673 56.4297C131.423 57.7797 129.038 59.6247 126.518 61.9647C125.348 63.0447 124.493 63.8547 123.953 64.3947C123.413 64.9347 122.783 65.2047 122.063 65.2047C121.433 65.2047 120.893 64.9797 120.443 64.5297C120.083 63.9897 119.678 63.3597 119.228 62.6397C117.518 59.9397 115.358 57.9147 112.748 56.5647C110.138 55.1247 107.303 54.4047 104.243 54.4047C99.2034 54.4047 95.0634 56.4747 91.8234 60.6147C88.6734 64.6647 87.0984 71.0546 87.0984 79.7846C87.0984 83.2045 87.3234 87.1645 87.7734 91.6645C88.3134 96.1645 88.9434 100.754 89.6634 105.434C90.4734 110.114 91.3284 114.524 92.2284 118.664C93.1284 122.804 94.0284 126.179 94.9284 128.789C95.9184 131.579 97.0884 134.009 98.4384 136.079C99.7884 138.149 101.408 139.184 103.298 139.184C103.748 139.184 104.468 139.049 105.458 138.779C106.448 138.599 107.483 137.834 108.563 136.484C109.733 135.044 110.723 132.614 111.533 129.194C112.343 125.954 112.883 122.489 113.153 118.799C113.423 115.109 113.828 111.644 114.368 108.404C114.908 105.164 115.943 102.554 117.473 100.574C119.003 98.5045 121.388 97.4695 124.628 97.4695C127.598 97.4695 129.893 98.3695 131.513 100.169C133.133 101.879 134.303 104.174 135.023 107.054C135.743 109.844 136.148 112.949 136.238 116.369C136.418 119.699 136.508 122.939 136.508 126.089C136.508 128.249 136.643 130.364 136.913 132.434C137.273 134.414 137.903 136.034 138.803 137.294Z" stroke="#FB6AB2" stroke-width="18" mask="url(#path-1-outside-1_173_438)"/>
<path fill-rule="evenodd" clip-rule="evenodd" d="M252.704 134.684C245.414 134.684 238.754 132.704 232.724 128.744C226.784 124.784 222.014 119.204 218.414 112.004C214.814 104.804 213.014 96.3895 213.014 86.7595C213.014 74.6996 216.119 65.5647 222.329 59.3547C228.629 53.0547 238.484 49.9048 251.894 49.9048C265.484 49.9048 275.384 53.0997 281.594 59.4897C287.894 65.7896 291.044 74.9696 291.044 87.0295C291.044 96.5695 289.289 104.939 285.779 112.139C282.359 119.249 277.724 124.784 271.874 128.744C266.114 132.704 259.724 134.684 252.704 134.684ZM252.164 113.309C262.322 113.309 265.092 101.141 260.129 93.9445C258.329 91.2445 255.674 89.8945 252.164 89.8945C241.56 89.8945 240.053 101.72 244.064 109.259C245.864 111.959 248.564 113.309 252.164 113.309Z" stroke="#FB6AB2" stroke-width="18" mask="url(#path-1-outside-1_173_438)"/>
<path d="M357.264 59.8947C352.674 59.8947 348.984 58.5447 346.194 55.8447C343.404 53.1447 342.009 49.5448 342.009 45.0448C342.009 40.5448 343.404 37.0348 346.194 34.5148C348.984 31.9049 352.674 30.5999 357.264 30.5999C361.854 30.5999 365.544 31.9049 368.334 34.5148C371.124 37.0348 372.519 40.5448 372.519 45.0448C372.519 49.5448 371.124 53.1447 368.334 55.8447C365.544 58.5447 361.854 59.8947 357.264 59.8947Z" stroke="#FB6AB2" stroke-width="18" mask="url(#path-1-outside-1_173_438)"/>
<path d="M357.264 142.784C354.564 142.784 352.494 141.974 351.054 140.354C349.704 138.644 348.534 136.394 347.544 133.604C346.914 131.714 346.149 129.149 345.249 125.909C344.439 122.579 343.584 118.889 342.684 114.839C341.874 110.789 341.199 106.694 340.659 102.554C340.119 98.4145 339.849 94.5895 339.849 91.0795C339.849 83.0695 341.379 77.2646 344.439 73.6646C347.589 69.9746 351.864 68.1296 357.264 68.1296C362.664 68.1296 366.894 69.9746 369.954 73.6646C373.104 77.2646 374.679 83.0695 374.679 91.0795C374.679 94.5895 374.409 98.4145 373.869 102.554C373.329 106.694 372.609 110.789 371.709 114.839C370.899 118.889 370.044 122.579 369.144 125.909C368.334 129.149 367.614 131.714 366.984 133.604C365.994 136.574 364.779 138.869 363.339 140.489C361.899 142.019 359.874 142.784 357.264 142.784Z" stroke="#FB6AB2" stroke-width="18" mask="url(#path-1-outside-1_173_438)"/>
<path d="M411.03 47.2948C416.7 47.2948 421.155 47.6098 424.395 48.2398C427.635 48.7798 430.56 49.6348 433.17 50.8048C435.78 52.0648 437.58 53.5048 438.57 55.1247C439.56 56.8347 440.055 58.3197 440.055 59.5797C440.055 61.1997 439.56 62.5947 438.57 63.7647C437.49 64.9347 436.14 65.6547 434.52 65.9247C432.9 66.1947 431.235 65.7447 429.525 64.5747C425.925 62.2347 422.37 60.9297 418.86 60.6597C415.35 60.3897 412.065 60.2997 409.005 60.3897C406.306 60.4797 403.786 61.0197 401.446 62.0097C399.106 62.9997 397.936 64.4397 397.936 66.3297C397.936 67.5897 398.656 68.3996 400.096 68.7596C401.446 69.2096 403.921 69.4346 407.521 69.4346C419.4 69.4346 428.85 71.6846 435.87 76.1846C442.8 80.6846 446.265 87.9745 446.265 98.0545C446.265 104.534 444.78 110.339 441.81 115.469C438.75 120.599 434.295 124.649 428.445 127.619C422.595 130.589 415.35 132.074 406.711 132.074C396.991 132.074 389.431 130.049 384.031 125.999C378.541 122.039 378.448 114.569 378.448 107.009C378.448 97.2895 381.331 91.4395 390.601 91.4395C392.88 91.4395 395.601 92.5688 398.331 93.7017C400.618 94.6508 402.911 95.6025 404.956 95.8945C407.386 96.3445 409.366 96.5695 410.896 96.5695C413.235 96.5695 414.945 96.0295 416.025 94.9495C417.015 93.8695 417.51 92.5195 417.51 90.8995C417.51 89.0095 416.79 87.5695 415.35 86.5795C413.82 85.6796 411.075 85.2295 407.116 85.2295C398.386 85.2295 391.951 83.6096 387.811 80.3696C383.671 77.1296 381.601 72.5396 381.601 66.5997C381.601 60.8397 384.256 56.1597 389.566 52.5597C394.786 49.0498 401.941 47.2948 411.03 47.2948Z" stroke="#FB6AB2" stroke-width="18" mask="url(#path-1-outside-1_173_438)"/>
<path d="M460.665 99.7194C462.105 101.339 464.04 102.149 466.47 102.149C468.99 102.149 470.97 101.339 472.41 99.7194C473.85 98.0994 475.02 95.8045 475.92 92.8345C477.09 89.1445 478.215 84.7795 479.295 79.7396C480.465 74.6096 481.41 69.1196 482.13 63.2697C482.94 57.3297 483.345 51.3448 483.345 45.3148C483.345 38.7448 481.68 33.7049 478.35 30.1949C475.02 26.5949 471.06 24.7949 466.47 24.7949C461.97 24.7949 458.01 26.5949 454.59 30.1949C451.26 33.7049 449.595 38.7448 449.595 45.3148C449.595 51.3448 449.955 57.3297 450.675 63.2697C451.485 69.1196 452.475 74.6096 453.645 79.7396C454.815 84.7795 455.985 89.1445 457.155 92.8345C458.145 95.8045 459.315 98.0994 460.665 99.7194Z" stroke="#FB6AB2" stroke-width="18" mask="url(#path-1-outside-1_173_438)"/>
<path d="M457.515 130.904C460.125 133.424 463.41 134.684 467.37 134.684C471.42 134.684 474.705 133.424 477.225 130.904C479.835 128.384 481.14 125.324 481.14 121.724C481.14 118.034 479.835 114.929 477.225 112.409C474.705 109.889 471.42 108.629 467.37 108.629C463.41 108.629 460.125 109.889 457.515 112.409C454.905 114.929 453.6 118.034 453.6 121.724C453.6 125.324 454.905 128.384 457.515 130.904Z" stroke="#FB6AB2" stroke-width="18" mask="url(#path-1-outside-1_173_438)"/>
<defs>
<linearGradient id="paint0_linear_173_438" x1="631.486" y1="-20.6544" x2="-276.608" y2="142.244" gradientUnits="userSpaceOnUse">
<stop stop-color="#FCE883"/>
<stop offset="0.515" stop-color="#F7D56E"/>
<stop offset="1" stop-color="#F2BF5A"/>
</linearGradient>
<linearGradient id="paint1_linear_173_438" x1="631.486" y1="-20.6544" x2="-276.608" y2="142.244" gradientUnits="userSpaceOnUse">
<stop stop-color="#FCE883"/>
<stop offset="0.515" stop-color="#F7D56E"/>
<stop offset="1" stop-color="#F2BF5A"/>
</linearGradient>
<linearGradient id="paint2_linear_173_438" x1="631.486" y1="-20.6544" x2="-276.608" y2="142.244" gradientUnits="userSpaceOnUse">
<stop stop-color="#FCE883"/>
<stop offset="0.515" stop-color="#F7D56E"/>
<stop offset="1" stop-color="#F2BF5A"/>
</linearGradient>
<linearGradient id="paint3_linear_173_438" x1="631.486" y1="-20.6544" x2="-276.608" y2="142.244" gradientUnits="userSpaceOnUse">
<stop stop-color="#FCE883"/>
<stop offset="0.515" stop-color="#F7D56E"/>
<stop offset="1" stop-color="#F2BF5A"/>
</linearGradient>
<linearGradient id="paint4_linear_173_438" x1="631.486" y1="-20.6544" x2="-276.608" y2="142.244" gradientUnits="userSpaceOnUse">
<stop stop-color="#FCE883"/>
<stop offset="0.515" stop-color="#F7D56E"/>
<stop offset="1" stop-color="#F2BF5A"/>
</linearGradient>
<linearGradient id="paint5_linear_173_438" x1="631.486" y1="-20.6544" x2="-276.608" y2="142.244" gradientUnits="userSpaceOnUse">
<stop stop-color="#FCE883"/>
<stop offset="0.515" stop-color="#F7D56E"/>
<stop offset="1" stop-color="#F2BF5A"/>
</linearGradient>
<linearGradient id="paint6_linear_173_438" x1="631.486" y1="-20.6544" x2="-276.608" y2="142.244" gradientUnits="userSpaceOnUse">
<stop stop-color="#FCE883"/>
<stop offset="0.515" stop-color="#F7D56E"/>
<stop offset="1" stop-color="#F2BF5A"/>
</linearGradient>
<linearGradient id="paint7_linear_173_438" x1="631.486" y1="-20.6544" x2="-276.608" y2="142.244" gradientUnits="userSpaceOnUse">
<stop stop-color="#FCE883"/>
<stop offset="0.515" stop-color="#F7D56E"/>
<stop offset="1" stop-color="#F2BF5A"/>
</linearGradient>
<linearGradient id="paint8_linear_173_438" x1="631.486" y1="-20.6544" x2="-276.608" y2="142.244" gradientUnits="userSpaceOnUse">
<stop stop-color="#FCE883"/>
<stop offset="0.515" stop-color="#F7D56E"/>
<stop offset="1" stop-color="#F2BF5A"/>
</linearGradient>
<linearGradient id="paint9_linear_173_438" x1="631.486" y1="-20.6544" x2="-276.608" y2="142.244" gradientUnits="userSpaceOnUse">
<stop stop-color="#FCE883"/>
<stop offset="0.515" stop-color="#F7D56E"/>
<stop offset="1" stop-color="#F2BF5A"/>
</linearGradient>
</defs>
</svg>
