<svg width="108" height="108" viewBox="0 0 108 108" fill="none" xmlns="http://www.w3.org/2000/svg">
<path d="M29.776 25.1802C27.7768 28.6176 28.9427 33.0247 32.38 35.0239L64.912 53.9447L32.3751 72.986C28.9431 74.9944 27.7892 79.4047 29.7976 82.8367C31.8061 86.2686 36.2164 87.4226 39.6483 85.4142L82.8365 60.1396C85.0465 58.8463 86.4033 56.4764 86.3999 53.9158C86.3964 51.3551 85.0333 48.989 82.8198 47.7016L39.6198 22.5762C36.1824 20.577 31.7752 21.7429 29.776 25.1802Z" fill="#FB6AB2"/>
<path fill-rule="evenodd" clip-rule="evenodd" d="M29.776 25.1802C27.7768 28.6176 28.9427 33.0247 32.38 35.0239L64.912 53.9447L32.3751 72.986C28.9431 74.9944 27.7892 79.4047 29.7976 82.8367C31.8061 86.2686 36.2164 87.4226 39.6483 85.4142L82.8365 60.1396C85.0465 58.8463 86.4033 56.4764 86.3999 53.9158C86.3964 51.3551 85.0333 48.989 82.8198 47.7016L39.6198 22.5762C36.1824 20.577 31.7752 21.7429 29.776 25.1802Z" fill="#FB6AB2"/>
</svg>
