<svg width="108" height="108" viewBox="0 0 108 108" fill="none" xmlns="http://www.w3.org/2000/svg">
<path d="M78.224 25.1802C80.2232 28.6176 79.0573 33.0247 75.62 35.0239L43.088 53.9447L75.6249 72.986C79.0569 74.9944 80.2108 79.4047 78.2024 82.8367C76.1939 86.2686 71.7836 87.4226 68.3517 85.4142L25.1635 60.1396C22.9535 58.8463 21.5967 56.4764 21.6001 53.9158C21.6036 51.3551 22.9667 48.989 25.1802 47.7016L68.3802 22.5762C71.8176 20.577 76.2248 21.7429 78.224 25.1802Z" fill="#FB6AB2"/>
<path fill-rule="evenodd" clip-rule="evenodd" d="M78.224 25.1802C80.2232 28.6176 79.0573 33.0247 75.62 35.0239L43.088 53.9447L75.6249 72.986C79.0569 74.9944 80.2108 79.4047 78.2024 82.8367C76.1939 86.2686 71.7836 87.4226 68.3517 85.4142L25.1635 60.1396C22.9535 58.8463 21.5967 56.4764 21.6001 53.9158C21.6036 51.3551 22.9667 48.989 25.1802 47.7016L68.3802 22.5762C71.8176 20.577 76.2248 21.7429 78.224 25.1802Z" fill="#FB6AB2"/>
</svg>
