<svg width="32" height="32" viewBox="0 0 32 32" fill="none" xmlns="http://www.w3.org/2000/svg">
<path d="M10.5 14.25C12.8472 14.25 14.75 12.3472 14.75 10C14.75 7.65279 12.8472 5.75 10.5 5.75C8.15279 5.75 6.25 7.65279 6.25 10C6.25 12.3472 8.15279 14.25 10.5 14.25Z" fill="white"/>
<path d="M21.5 14.25C23.8472 14.25 25.75 12.3472 25.75 10C25.75 7.65279 23.8472 5.75 21.5 5.75C19.1528 5.75 17.25 7.65279 17.25 10C17.25 12.3472 19.1528 14.25 21.5 14.25Z" fill="white"/>
<path d="M13.25 10C13.25 11.2426 12.2426 12.25 11 12.25C9.75736 12.25 8.75 11.2426 8.75 10C8.75 8.75736 9.75736 7.75 11 7.75C12.2426 7.75 13.25 8.75736 13.25 10Z" fill="url(#paint0_linear_216_372)"/>
<path d="M23.25 10C23.25 11.2426 22.2426 12.25 21 12.25C19.7574 12.25 18.75 11.2426 18.75 10C18.75 8.75736 19.7574 7.75 21 7.75C22.2426 7.75 23.25 8.75736 23.25 10Z" fill="url(#paint1_linear_216_372)"/>
<defs>
<linearGradient id="paint0_linear_216_372" x1="16.5" y1="8" x2="16.5" y2="12" gradientUnits="userSpaceOnUse">
<stop stop-color="#553B3E"/>
<stop offset="1" stop-color="#3D2432"/>
</linearGradient>
<linearGradient id="paint1_linear_216_372" x1="16.5" y1="8" x2="16.5" y2="12" gradientUnits="userSpaceOnUse">
<stop stop-color="#553B3E"/>
<stop offset="1" stop-color="#3D2432"/>
</linearGradient>
</defs>
</svg>
