<svg width="32" height="32" viewBox="0 0 32 32" fill="none" xmlns="http://www.w3.org/2000/svg">
<path d="M10.5 16C12.9853 16 15 13.9853 15 11.5C15 9.01472 12.9853 7 10.5 7C8.01472 7 6 9.01472 6 11.5C6 13.9853 8.01472 16 10.5 16Z" fill="white"/>
<path d="M21.5 16C23.9853 16 26 13.9853 26 11.5C26 9.01472 23.9853 7 21.5 7C19.0147 7 17 9.01472 17 11.5C17 13.9853 19.0147 16 21.5 16Z" fill="white"/>
<path d="M12.5 12C12.5 12.8284 11.8284 13.5 11 13.5C10.1716 13.5 9.5 12.8284 9.5 12C9.5 11.1716 10.1716 10.5 11 10.5C11.8284 10.5 12.5 11.1716 12.5 12Z" fill="url(#paint0_linear_226_406)"/>
<path d="M22.5 12C22.5 12.8284 21.8284 13.5 21 13.5C20.1716 13.5 19.5 12.8284 19.5 12C19.5 11.1716 20.1716 10.5 21 10.5C21.8284 10.5 22.5 11.1716 22.5 12Z" fill="url(#paint1_linear_226_406)"/>
<defs>
<linearGradient id="paint0_linear_226_406" x1="21" y1="10.5" x2="20.6369" y2="13.568" gradientUnits="userSpaceOnUse">
<stop stop-color="#553B3E"/>
<stop offset="1" stop-color="#3D2432"/>
</linearGradient>
<linearGradient id="paint1_linear_226_406" x1="21" y1="10.5" x2="20.6369" y2="13.568" gradientUnits="userSpaceOnUse">
<stop stop-color="#553B3E"/>
<stop offset="1" stop-color="#3D2432"/>
</linearGradient>
</defs>
</svg>
