<svg width="32" height="32" viewBox="0 0 32 32" fill="none" xmlns="http://www.w3.org/2000/svg">
<path fill-rule="evenodd" clip-rule="evenodd" d="M11.0938 14.1562C12.1901 14.1562 12.5423 14.8535 12.592 15.0536C12.7252 15.5896 13.2676 15.9162 13.8036 15.783C14.3396 15.6498 14.6662 15.1074 14.533 14.5714C14.3084 13.6673 13.2891 12.1562 11.0938 12.1562C8.89839 12.1562 7.87911 13.6673 7.65451 14.5714C7.52135 15.1074 7.84792 15.6498 8.38391 15.783C8.9199 15.9162 9.46235 15.5896 9.59551 15.0536C9.64521 14.8535 9.99746 14.1562 11.0938 14.1562Z" fill="url(#paint0_radial_216_353)"/>
<path d="M18.8062 17.1706C19.6962 16.8406 20.6562 16.6406 21.6662 16.6406C22.6762 16.6406 23.6363 16.8306 24.5163 17.1706C25.3663 16.3906 25.9062 15.2906 25.9062 14.0406C25.9062 11.6906 24.0062 9.79065 21.6562 9.79065C19.3063 9.79065 17.4062 11.6906 17.4062 14.0406C17.4162 15.2906 17.9562 16.4006 18.8062 17.1706Z" fill="white"/>
<path d="M21.2087 16C22.3133 16 23.2087 15.1046 23.2087 14C23.2087 12.8954 22.3133 12 21.2087 12C20.1042 12 19.2087 12.8954 19.2087 14C19.2087 15.1046 20.1042 16 21.2087 16Z" fill="url(#paint1_linear_216_353)"/>
<path fill-rule="evenodd" clip-rule="evenodd" d="M11 8.5C11 8.22386 10.7761 8 10.5 8C9.72575 8 8.7575 8.2843 7.9154 8.83052C7.0671 9.38077 6.30302 10.2264 6.01493 11.3787C5.94795 11.6466 6.11083 11.9181 6.37873 11.9851C6.64663 12.052 6.9181 11.8892 6.98507 11.6213C7.19698 10.7736 7.76623 10.1192 8.4596 9.66948C9.15917 9.2157 9.94092 9 10.5 9C10.7761 9 11 8.77614 11 8.5Z" fill="url(#paint2_linear_216_353)"/>
<path fill-rule="evenodd" clip-rule="evenodd" d="M23.9307 7.98761C24.5236 8.55049 24.8822 9.22774 25.0256 9.65811C25.113 9.92009 25.3961 10.0617 25.6581 9.97434C25.9201 9.88702 26.0617 9.60386 25.9743 9.34189C25.7845 8.77226 25.343 7.94951 24.6192 7.26239C23.887 6.5672 22.8521 6 21.5 6C21.2238 6 21 6.22386 21 6.5C21 6.77614 21.2238 7 21.5 7C22.5479 7 23.3463 7.4328 23.9307 7.98761Z" fill="url(#paint3_linear_216_353)"/>
<defs>
<radialGradient id="paint0_radial_216_353" cx="0" cy="0" r="1" gradientUnits="userSpaceOnUse" gradientTransform="translate(11.0938 14.8125) rotate(90) scale(3.3125 4.82169)">
<stop offset="0.337213" stop-color="#4D274B"/>
<stop offset="0.628228" stop-color="#514047"/>
<stop offset="1" stop-color="#4E2553"/>
<stop offset="1" stop-color="#4A342F"/>
</radialGradient>
<linearGradient id="paint1_linear_216_353" x1="22.7472" y1="12" x2="21.063" y2="15.2842" gradientUnits="userSpaceOnUse">
<stop stop-color="#553B3E"/>
<stop offset="1" stop-color="#3D2432"/>
</linearGradient>
<linearGradient id="paint2_linear_216_353" x1="10.1667" y1="12.4" x2="10.1667" y2="10.6" gradientUnits="userSpaceOnUse">
<stop offset="0.0299084" stop-color="#524049"/>
<stop offset="1" stop-color="#4A2C42"/>
</linearGradient>
<linearGradient id="paint3_linear_216_353" x1="25.1667" y1="10.4" x2="25.1667" y2="8.6" gradientUnits="userSpaceOnUse">
<stop offset="0.0299084" stop-color="#524049"/>
<stop offset="1" stop-color="#4A2C42"/>
</linearGradient>
</defs>
</svg>
