<svg width="32" height="32" viewBox="0 0 32 32" fill="none" xmlns="http://www.w3.org/2000/svg">
<path d="M10.4996 15.0004C12.9849 15.0004 14.9996 12.9856 14.9996 10.5004C14.9996 8.01509 12.9849 6.00037 10.4996 6.00037C8.01435 6.00037 5.99963 8.01509 5.99963 10.5004C5.99963 12.9856 8.01435 15.0004 10.4996 15.0004Z" fill="white"/>
<path d="M21.4996 15.0004C23.9849 15.0004 25.9996 12.9856 25.9996 10.5004C25.9996 8.01509 23.9849 6.00037 21.4996 6.00037C19.0144 6.00037 16.9996 8.01509 16.9996 10.5004C16.9996 12.9856 19.0144 15.0004 21.4996 15.0004Z" fill="white"/>
<path d="M9.99976 14.0004C11.1043 14.0004 11.9998 13.105 11.9998 12.0004C11.9998 10.8958 11.1043 10.0004 9.99976 10.0004C8.89519 10.0004 7.99976 10.8958 7.99976 12.0004C7.99976 13.105 8.89519 14.0004 9.99976 14.0004Z" fill="url(#paint0_linear_226_402)"/>
<path d="M21.9996 11.0003C23.1041 11.0003 23.9996 10.1049 23.9996 9.00031C23.9996 7.89574 23.1041 7.00031 21.9996 7.00031C20.895 7.00031 19.9996 7.89574 19.9996 9.00031C19.9996 10.1049 20.895 11.0003 21.9996 11.0003Z" fill="url(#paint1_linear_226_402)"/>
<defs>
<linearGradient id="paint0_linear_226_402" x1="50.4608" y1="7.0003" x2="49.9209" y2="14.2189" gradientUnits="userSpaceOnUse">
<stop stop-color="#553B3E"/>
<stop offset="1" stop-color="#3D2432"/>
</linearGradient>
<linearGradient id="paint1_linear_226_402" x1="22.615" y1="7.0003" x2="21.926" y2="11.0305" gradientUnits="userSpaceOnUse">
<stop stop-color="#553B3E"/>
<stop offset="1" stop-color="#3D2432"/>
</linearGradient>
</defs>
</svg>
