<svg width="32" height="32" viewBox="0 0 32 32" fill="none" xmlns="http://www.w3.org/2000/svg">
<path d="M9.44746 12.8899C8.95348 13.1369 8.35281 12.9367 8.10582 12.4427C7.85883 11.9487 8.05906 11.3481 8.55303 11.1011L10.7595 9.99783L12.5 9.5L14.0002 9.99783C13.9994 10.3757 13.7856 10.7209 13.4475 10.8899L9.44746 12.8899Z" fill="url(#paint0_linear_226_326)"/>
<path d="M9.44746 12.8899C8.95348 13.1369 8.35281 12.9367 8.10582 12.4427C7.85883 11.9487 8.05906 11.3481 8.55303 11.1011L10.7595 9.99783L12.5 9.5L14.0002 9.99783C13.9994 10.3757 13.7856 10.7209 13.4475 10.8899L9.44746 12.8899Z" fill="url(#paint1_linear_226_326)"/>
<path d="M9.44746 12.8899C8.95348 13.1369 8.35281 12.9367 8.10582 12.4427C7.85883 11.9487 8.05906 11.3481 8.55303 11.1011L10.7595 9.99783L12.5 9.5L14.0002 9.99783C13.9994 10.3757 13.7856 10.7209 13.4475 10.8899L9.44746 12.8899Z" fill="url(#paint2_radial_226_326)"/>
<path d="M9.44746 7.10579C8.95348 6.8588 8.35281 7.05903 8.10582 7.55301C7.85883 8.04698 8.05906 8.64766 8.55303 8.89465L10.7595 9.9979H14.0002C13.9994 9.62003 13.7856 9.27484 13.4475 9.10579L9.44746 7.10579Z" fill="url(#paint3_linear_226_326)"/>
<path d="M9.44746 7.10579C8.95348 6.8588 8.35281 7.05903 8.10582 7.55301C7.85883 8.04698 8.05906 8.64766 8.55303 8.89465L10.7595 9.9979H14.0002C13.9994 9.62003 13.7856 9.27484 13.4475 9.10579L9.44746 7.10579Z" fill="url(#paint4_linear_226_326)"/>
<path d="M9.44746 7.10579C8.95348 6.8588 8.35281 7.05903 8.10582 7.55301C7.85883 8.04698 8.05906 8.64766 8.55303 8.89465L10.7595 9.9979H14.0002C13.9994 9.62003 13.7856 9.27484 13.4475 9.10579L9.44746 7.10579Z" fill="url(#paint5_radial_226_326)"/>
<path d="M22.5372 12.8899C23.0311 13.1369 23.6318 12.9367 23.8788 12.4427C24.1258 11.9487 23.9256 11.3481 23.4316 11.1011L21.2251 9.99783L19.5 9.5L17.9844 9.99783C17.9852 10.3757 18.1991 10.7209 18.5372 10.8899L22.5372 12.8899Z" fill="url(#paint6_linear_226_326)"/>
<path d="M22.5372 12.8899C23.0311 13.1369 23.6318 12.9367 23.8788 12.4427C24.1258 11.9487 23.9256 11.3481 23.4316 11.1011L21.2251 9.99783L19.5 9.5L17.9844 9.99783C17.9852 10.3757 18.1991 10.7209 18.5372 10.8899L22.5372 12.8899Z" fill="url(#paint7_linear_226_326)"/>
<path d="M22.5372 7.10579C23.0311 6.8588 23.6318 7.05903 23.8788 7.55301C24.1258 8.04698 23.9256 8.64766 23.4316 8.89465L21.2251 9.9979H17.9844C17.9852 9.62003 18.1991 9.27484 18.5372 9.10579L22.5372 7.10579Z" fill="url(#paint8_linear_226_326)"/>
<path d="M22.5372 7.10579C23.0311 6.8588 23.6318 7.05903 23.8788 7.55301C24.1258 8.04698 23.9256 8.64766 23.4316 8.89465L21.2251 9.9979H17.9844C17.9852 9.62003 18.1991 9.27484 18.5372 9.10579L22.5372 7.10579Z" fill="url(#paint9_radial_226_326)"/>
<path d="M22.5372 7.10579C23.0311 6.8588 23.6318 7.05903 23.8788 7.55301C24.1258 8.04698 23.9256 8.64766 23.4316 8.89465L21.2251 9.9979H17.9844C17.9852 9.62003 18.1991 9.27484 18.5372 9.10579L22.5372 7.10579Z" fill="url(#paint10_radial_226_326)"/>
<path d="M22.5372 7.10579C23.0311 6.8588 23.6318 7.05903 23.8788 7.55301C24.1258 8.04698 23.9256 8.64766 23.4316 8.89465L21.2251 9.9979H17.9844C17.9852 9.62003 18.1991 9.27484 18.5372 9.10579L22.5372 7.10579Z" fill="url(#paint11_linear_226_326)"/>
<defs>
<linearGradient id="paint0_linear_226_326" x1="10.4722" y1="13.7652" x2="8" y2="8.85061" gradientUnits="userSpaceOnUse">
<stop offset="0.21392" stop-color="#492741"/>
<stop offset="0.331485" stop-color="#503A4A"/>
<stop offset="0.511203" stop-color="#482641"/>
</linearGradient>
<linearGradient id="paint1_linear_226_326" x1="10.3004" y1="9.9978" x2="10.4163" y2="10.4731" gradientUnits="userSpaceOnUse">
<stop stop-color="#2D1721"/>
<stop offset="1" stop-color="#2D1721" stop-opacity="0"/>
</linearGradient>
<radialGradient id="paint2_radial_226_326" cx="0" cy="0" r="1" gradientUnits="userSpaceOnUse" gradientTransform="translate(12.3181 10.2904) rotate(-148.405) scale(5.68231)">
<stop offset="0.631717" stop-color="#492741" stop-opacity="0"/>
<stop offset="0.798224" stop-color="#492741"/>
</radialGradient>
<linearGradient id="paint3_linear_226_326" x1="8.85962" y1="10.1385" x2="10.6889" y2="6.91235" gradientUnits="userSpaceOnUse">
<stop offset="0.162863" stop-color="#22161C"/>
<stop offset="0.435713" stop-color="#482641"/>
<stop offset="0.631598" stop-color="#503A4A"/>
</linearGradient>
<linearGradient id="paint4_linear_226_326" x1="10.3004" y1="9.99792" x2="10.4163" y2="9.52262" gradientUnits="userSpaceOnUse">
<stop stop-color="#2D1721"/>
<stop offset="1" stop-color="#2D1721" stop-opacity="0"/>
</linearGradient>
<radialGradient id="paint5_radial_226_326" cx="0" cy="0" r="1" gradientUnits="userSpaceOnUse" gradientTransform="translate(12.3181 9.70531) rotate(148.405) scale(5.68231)">
<stop offset="0.631717" stop-color="#492741" stop-opacity="0"/>
<stop offset="0.798224" stop-color="#492741"/>
</radialGradient>
<linearGradient id="paint6_linear_226_326" x1="21.4063" y1="13.7322" x2="23.9846" y2="8.38845" gradientUnits="userSpaceOnUse">
<stop offset="0.207167" stop-color="#381B32"/>
<stop offset="0.277026" stop-color="#482641"/>
<stop offset="0.390091" stop-color="#503A4A"/>
<stop offset="0.516907" stop-color="#503A4A"/>
<stop offset="0.651166" stop-color="#482641"/>
</linearGradient>
<linearGradient id="paint7_linear_226_326" x1="21.6842" y1="9.9978" x2="21.5683" y2="10.4731" gradientUnits="userSpaceOnUse">
<stop stop-color="#2D1721"/>
<stop offset="1" stop-color="#2D1721" stop-opacity="0"/>
</linearGradient>
<linearGradient id="paint8_linear_226_326" x1="23.125" y1="10.1385" x2="20.7344" y2="5.45102" gradientUnits="userSpaceOnUse">
<stop offset="0.162402" stop-color="#482641"/>
<stop offset="0.296966" stop-color="#503A4A"/>
<stop offset="0.39491" stop-color="#503A4A"/>
<stop offset="0.511203" stop-color="#482641"/>
</linearGradient>
<radialGradient id="paint9_radial_226_326" cx="0" cy="0" r="1" gradientUnits="userSpaceOnUse" gradientTransform="translate(19.3034 9.77828) rotate(29.1673) scale(5.95871)">
<stop offset="0.631717" stop-color="#492741" stop-opacity="0"/>
<stop offset="0.798224" stop-color="#492741"/>
</radialGradient>
<radialGradient id="paint10_radial_226_326" cx="0" cy="0" r="1" gradientUnits="userSpaceOnUse" gradientTransform="translate(23.5204 7.65658) rotate(134.019) scale(0.898479 1.62536)">
<stop stop-color="#5E5051"/>
<stop offset="1" stop-color="#5E5051" stop-opacity="0"/>
</radialGradient>
<linearGradient id="paint11_linear_226_326" x1="21.6842" y1="9.99792" x2="21.5683" y2="9.52262" gradientUnits="userSpaceOnUse">
<stop stop-color="#2D1721"/>
<stop offset="1" stop-color="#2D1721" stop-opacity="0"/>
</linearGradient>
</defs>
</svg>
