<svg width="32" height="32" viewBox="0 0 32 32" fill="none" xmlns="http://www.w3.org/2000/svg">
<path d="M10.4189 15.4119C12.7417 15.4119 14.6248 13.5289 14.6248 11.206C14.6248 8.88307 12.7417 7 10.4189 7C8.09597 7 6.21289 8.88307 6.21289 11.206C6.21289 13.5289 8.09597 15.4119 10.4189 15.4119Z" fill="white"/>
<path d="M21.568 15.4886C23.9121 15.4886 25.8123 13.5884 25.8123 11.2443C25.8123 8.90024 23.9121 7 21.568 7C19.224 7 17.3237 8.90024 17.3237 11.2443C17.3237 13.5884 19.224 15.4886 21.568 15.4886Z" fill="white"/>
<path d="M11 13.1875C12.1046 13.1875 13 12.2921 13 11.1875C13 10.0829 12.1046 9.1875 11 9.1875C9.89543 9.1875 9 10.0829 9 11.1875C9 12.2921 9.89543 13.1875 11 13.1875Z" fill="url(#paint0_linear_309_1114)"/>
<path d="M21 13.1875C22.1046 13.1875 23 12.2921 23 11.1875C23 10.0829 22.1046 9.1875 21 9.1875C19.8954 9.1875 19 10.0829 19 11.1875C19 12.2921 19.8954 13.1875 21 13.1875Z" fill="url(#paint1_linear_309_1114)"/>
<defs>
<linearGradient id="paint0_linear_309_1114" x1="16.4375" y1="8.52083" x2="15.9253" y2="13.227" gradientUnits="userSpaceOnUse">
<stop stop-color="#553B3E"/>
<stop offset="1" stop-color="#3D2432"/>
</linearGradient>
<linearGradient id="paint1_linear_309_1114" x1="16.4375" y1="8.52083" x2="15.9253" y2="13.227" gradientUnits="userSpaceOnUse">
<stop stop-color="#553B3E"/>
<stop offset="1" stop-color="#3D2432"/>
</linearGradient>
</defs>
</svg>
