<svg width="32" height="32" viewBox="0 0 32 32" fill="none" xmlns="http://www.w3.org/2000/svg">
<path d="M9.44746 13.8899C8.95348 14.1369 8.35281 13.9367 8.10582 13.4427C7.85883 12.9487 8.05906 12.3481 8.55303 12.1011L10.7595 10.9978L12.5 10.5L14.0002 10.9978C13.9994 11.3757 13.7856 11.7209 13.4475 11.8899L9.44746 13.8899Z" fill="url(#paint0_linear_216_340)"/>
<path d="M9.44746 13.8899C8.95348 14.1369 8.35281 13.9367 8.10582 13.4427C7.85883 12.9487 8.05906 12.3481 8.55303 12.1011L10.7595 10.9978L12.5 10.5L14.0002 10.9978C13.9994 11.3757 13.7856 11.7209 13.4475 11.8899L9.44746 13.8899Z" fill="url(#paint1_linear_216_340)"/>
<path d="M9.44746 13.8899C8.95348 14.1369 8.35281 13.9367 8.10582 13.4427C7.85883 12.9487 8.05906 12.3481 8.55303 12.1011L10.7595 10.9978L12.5 10.5L14.0002 10.9978C13.9994 11.3757 13.7856 11.7209 13.4475 11.8899L9.44746 13.8899Z" fill="url(#paint2_radial_216_340)"/>
<path d="M9.44746 8.10579C8.95348 7.8588 8.35281 8.05903 8.10582 8.55301C7.85883 9.04698 8.05906 9.64766 8.55303 9.89465L10.7595 10.9979H14.0002C13.9994 10.62 13.7856 10.2748 13.4475 10.1058L9.44746 8.10579Z" fill="url(#paint3_linear_216_340)"/>
<path d="M9.44746 8.10579C8.95348 7.8588 8.35281 8.05903 8.10582 8.55301C7.85883 9.04698 8.05906 9.64766 8.55303 9.89465L10.7595 10.9979H14.0002C13.9994 10.62 13.7856 10.2748 13.4475 10.1058L9.44746 8.10579Z" fill="url(#paint4_linear_216_340)"/>
<path d="M9.44746 8.10579C8.95348 7.8588 8.35281 8.05903 8.10582 8.55301C7.85883 9.04698 8.05906 9.64766 8.55303 9.89465L10.7595 10.9979H14.0002C13.9994 10.62 13.7856 10.2748 13.4475 10.1058L9.44746 8.10579Z" fill="url(#paint5_radial_216_340)"/>
<path d="M22.5372 13.8899C23.0311 14.1369 23.6318 13.9367 23.8788 13.4427C24.1258 12.9487 23.9256 12.3481 23.4316 12.1011L21.2251 10.9978L19.5 10.5L17.9844 10.9978C17.9852 11.3757 18.1991 11.7209 18.5372 11.8899L22.5372 13.8899Z" fill="url(#paint6_linear_216_340)"/>
<path d="M22.5372 13.8899C23.0311 14.1369 23.6318 13.9367 23.8788 13.4427C24.1258 12.9487 23.9256 12.3481 23.4316 12.1011L21.2251 10.9978L19.5 10.5L17.9844 10.9978C17.9852 11.3757 18.1991 11.7209 18.5372 11.8899L22.5372 13.8899Z" fill="url(#paint7_linear_216_340)"/>
<path d="M22.5372 8.10579C23.0311 7.8588 23.6318 8.05903 23.8788 8.55301C24.1258 9.04698 23.9256 9.64766 23.4316 9.89465L21.2251 10.9979H17.9844C17.9852 10.62 18.1991 10.2748 18.5372 10.1058L22.5372 8.10579Z" fill="url(#paint8_linear_216_340)"/>
<path d="M22.5372 8.10579C23.0311 7.8588 23.6318 8.05903 23.8788 8.55301C24.1258 9.04698 23.9256 9.64766 23.4316 9.89465L21.2251 10.9979H17.9844C17.9852 10.62 18.1991 10.2748 18.5372 10.1058L22.5372 8.10579Z" fill="url(#paint9_radial_216_340)"/>
<path d="M22.5372 8.10579C23.0311 7.8588 23.6318 8.05903 23.8788 8.55301C24.1258 9.04698 23.9256 9.64766 23.4316 9.89465L21.2251 10.9979H17.9844C17.9852 10.62 18.1991 10.2748 18.5372 10.1058L22.5372 8.10579Z" fill="url(#paint10_radial_216_340)"/>
<path d="M22.5372 8.10579C23.0311 7.8588 23.6318 8.05903 23.8788 8.55301C24.1258 9.04698 23.9256 9.64766 23.4316 9.89465L21.2251 10.9979H17.9844C17.9852 10.62 18.1991 10.2748 18.5372 10.1058L22.5372 8.10579Z" fill="url(#paint11_linear_216_340)"/>
<defs>
<linearGradient id="paint0_linear_216_340" x1="10.4722" y1="14.7652" x2="8" y2="9.85061" gradientUnits="userSpaceOnUse">
<stop offset="0.21392" stop-color="#492741"/>
<stop offset="0.331485" stop-color="#503A4A"/>
<stop offset="0.511203" stop-color="#482641"/>
</linearGradient>
<linearGradient id="paint1_linear_216_340" x1="10.3004" y1="10.9978" x2="10.4163" y2="11.4731" gradientUnits="userSpaceOnUse">
<stop stop-color="#2D1721"/>
<stop offset="1" stop-color="#2D1721" stop-opacity="0"/>
</linearGradient>
<radialGradient id="paint2_radial_216_340" cx="0" cy="0" r="1" gradientUnits="userSpaceOnUse" gradientTransform="translate(12.3181 11.2904) rotate(-148.405) scale(5.68231)">
<stop offset="0.631717" stop-color="#492741" stop-opacity="0"/>
<stop offset="0.798224" stop-color="#492741"/>
</radialGradient>
<linearGradient id="paint3_linear_216_340" x1="8.85962" y1="11.1385" x2="10.6889" y2="7.91235" gradientUnits="userSpaceOnUse">
<stop offset="0.162863" stop-color="#22161C"/>
<stop offset="0.435713" stop-color="#482641"/>
<stop offset="0.631598" stop-color="#503A4A"/>
</linearGradient>
<linearGradient id="paint4_linear_216_340" x1="10.3004" y1="10.9979" x2="10.4163" y2="10.5226" gradientUnits="userSpaceOnUse">
<stop stop-color="#2D1721"/>
<stop offset="1" stop-color="#2D1721" stop-opacity="0"/>
</linearGradient>
<radialGradient id="paint5_radial_216_340" cx="0" cy="0" r="1" gradientUnits="userSpaceOnUse" gradientTransform="translate(12.3181 10.7053) rotate(148.405) scale(5.68231)">
<stop offset="0.631717" stop-color="#492741" stop-opacity="0"/>
<stop offset="0.798224" stop-color="#492741"/>
</radialGradient>
<linearGradient id="paint6_linear_216_340" x1="21.4063" y1="14.7322" x2="23.9846" y2="9.38845" gradientUnits="userSpaceOnUse">
<stop offset="0.207167" stop-color="#381B32"/>
<stop offset="0.277026" stop-color="#482641"/>
<stop offset="0.390091" stop-color="#503A4A"/>
<stop offset="0.516907" stop-color="#503A4A"/>
<stop offset="0.651166" stop-color="#482641"/>
</linearGradient>
<linearGradient id="paint7_linear_216_340" x1="21.6842" y1="10.9978" x2="21.5683" y2="11.4731" gradientUnits="userSpaceOnUse">
<stop stop-color="#2D1721"/>
<stop offset="1" stop-color="#2D1721" stop-opacity="0"/>
</linearGradient>
<linearGradient id="paint8_linear_216_340" x1="23.125" y1="11.1385" x2="20.7344" y2="6.45102" gradientUnits="userSpaceOnUse">
<stop offset="0.162402" stop-color="#482641"/>
<stop offset="0.296966" stop-color="#503A4A"/>
<stop offset="0.39491" stop-color="#503A4A"/>
<stop offset="0.511203" stop-color="#482641"/>
</linearGradient>
<radialGradient id="paint9_radial_216_340" cx="0" cy="0" r="1" gradientUnits="userSpaceOnUse" gradientTransform="translate(19.3034 10.7783) rotate(29.1673) scale(5.95871)">
<stop offset="0.631717" stop-color="#492741" stop-opacity="0"/>
<stop offset="0.798224" stop-color="#492741"/>
</radialGradient>
<radialGradient id="paint10_radial_216_340" cx="0" cy="0" r="1" gradientUnits="userSpaceOnUse" gradientTransform="translate(23.5204 8.65658) rotate(134.019) scale(0.898479 1.62536)">
<stop stop-color="#5E5051"/>
<stop offset="1" stop-color="#5E5051" stop-opacity="0"/>
</radialGradient>
<linearGradient id="paint11_linear_216_340" x1="21.6842" y1="10.9979" x2="21.5683" y2="10.5226" gradientUnits="userSpaceOnUse">
<stop stop-color="#2D1721"/>
<stop offset="1" stop-color="#2D1721" stop-opacity="0"/>
</linearGradient>
</defs>
</svg>
