<svg width="32" height="32" viewBox="0 0 32 32" fill="none" xmlns="http://www.w3.org/2000/svg">
<path d="M10.4191 15.2244C12.742 15.2244 14.6251 13.3414 14.6251 11.0185C14.6251 8.69557 12.742 6.8125 10.4191 6.8125C8.09621 6.8125 6.21313 8.69557 6.21313 11.0185C6.21313 13.3414 8.09621 15.2244 10.4191 15.2244Z" fill="white"/>
<path d="M21.5683 15.3011C23.9123 15.3011 25.8126 13.4009 25.8126 11.0568C25.8126 8.71274 23.9123 6.8125 21.5683 6.8125C19.2242 6.8125 17.324 8.71274 17.324 11.0568C17.324 13.4009 19.2242 15.3011 21.5683 15.3011Z" fill="white"/>
<path d="M11 13C12.1046 13 13 12.1046 13 11C13 9.89543 12.1046 9 11 9C9.89543 9 9 9.89543 9 11C9 12.1046 9.89543 13 11 13Z" fill="url(#paint0_linear_226_416)"/>
<path d="M21 13C22.1046 13 23 12.1046 23 11C23 9.89543 22.1046 9 21 9C19.8954 9 19 9.89543 19 11C19 12.1046 19.8954 13 21 13Z" fill="url(#paint1_linear_226_416)"/>
<defs>
<linearGradient id="paint0_linear_226_416" x1="16.4375" y1="8.33333" x2="15.9253" y2="13.0395" gradientUnits="userSpaceOnUse">
<stop stop-color="#553B3E"/>
<stop offset="1" stop-color="#3D2432"/>
</linearGradient>
<linearGradient id="paint1_linear_226_416" x1="16.4375" y1="8.33333" x2="15.9253" y2="13.0395" gradientUnits="userSpaceOnUse">
<stop stop-color="#553B3E"/>
<stop offset="1" stop-color="#3D2432"/>
</linearGradient>
</defs>
</svg>
