<svg width="32" height="32" viewBox="0 0 32 32" fill="none" xmlns="http://www.w3.org/2000/svg">
<path d="M10.5 16.25C12.8472 16.25 14.75 14.3472 14.75 12C14.75 9.65279 12.8472 7.75 10.5 7.75C8.15279 7.75 6.25 9.65279 6.25 12C6.25 14.3472 8.15279 16.25 10.5 16.25Z" fill="white"/>
<path d="M21.5 16.25C23.8472 16.25 25.75 14.3472 25.75 12C25.75 9.65279 23.8472 7.75 21.5 7.75C19.1528 7.75 17.25 9.65279 17.25 12C17.25 14.3472 19.1528 16.25 21.5 16.25Z" fill="white"/>
<path d="M13 12C13 13.1046 12.1046 14 11 14C9.89543 14 9 13.1046 9 12C9 10.8954 9.89543 10 11 10C12.1046 10 13 10.8954 13 12Z" fill="url(#paint0_linear_226_396)"/>
<path d="M23 12C23 13.1046 22.1046 14 21 14C19.8954 14 19 13.1046 19 12C19 10.8954 19.8954 10 21 10C22.1046 10 23 10.8954 23 12Z" fill="url(#paint1_linear_226_396)"/>
<path fill-rule="evenodd" clip-rule="evenodd" d="M19.9471 6.72412L19.9444 6.72941L19.9456 6.72711L19.9464 6.72553L19.9471 6.72412ZM23.0558 6.7294C23.0558 6.7294 23.0524 6.72332 23.0483 6.71652C23.0394 6.70186 23.0231 6.67645 22.9985 6.64375C22.9493 6.57812 22.8686 6.48507 22.7503 6.39043C22.52 6.20625 22.1287 6 21.5001 6C20.8716 6 20.4802 6.20625 20.25 6.39043C20.1317 6.48507 20.0509 6.57812 20.0017 6.64375C19.9771 6.67645 19.9608 6.70186 19.9519 6.71652C19.9478 6.72332 19.9444 6.72941 19.9444 6.72941C19.8191 6.97216 19.5216 7.06974 19.2765 6.94721C19.0295 6.82372 18.9294 6.52338 19.0529 6.27639L19.0534 6.2753L19.054 6.27411L19.0554 6.27144L19.0587 6.26499L19.068 6.24781C19.0753 6.23451 19.085 6.21758 19.0971 6.19754C19.1214 6.15751 19.1559 6.1048 19.2017 6.04375C19.2931 5.92188 19.4311 5.76493 19.6253 5.60957C20.02 5.29375 20.6287 5 21.5001 5C22.3716 5 22.9802 5.29375 23.375 5.60957C23.5692 5.76493 23.7071 5.92188 23.7985 6.04375C23.8443 6.1048 23.8788 6.15751 23.9031 6.19754C23.9153 6.21758 23.9249 6.23451 23.9322 6.24781L23.9415 6.26499L23.9448 6.27144L23.9462 6.27411L23.9468 6.2753L23.9473 6.27639C24.0708 6.52338 23.9707 6.82372 23.7237 6.94721C23.4787 7.06974 23.1811 6.97216 23.0558 6.7294Z" fill="url(#paint2_linear_226_396)"/>
<path fill-rule="evenodd" clip-rule="evenodd" d="M8.94707 6.27588C8.94618 6.27411 8.94528 6.27235 8.94438 6.27059C8.94431 6.27047 8.94425 6.27036 8.9442 6.27027C8.94383 6.2696 8.94391 6.26973 8.94444 6.27073L8.94555 6.27289L8.94636 6.27447L8.94682 6.27539L8.94707 6.27588ZM12.0558 6.2706C12.0549 6.27226 12.0524 6.27668 12.0483 6.28348C12.0394 6.29814 12.0231 6.32355 11.9985 6.35625C11.9493 6.42188 11.8686 6.51493 11.7503 6.60957C11.52 6.79375 11.1287 7 10.5001 7C9.87157 7 9.48019 6.79375 9.24996 6.60957C9.13167 6.51493 9.05089 6.42188 9.00167 6.35625C8.97714 6.32355 8.96082 6.29814 8.95192 6.28348C8.94779 6.27668 8.9453 6.27226 8.94438 6.27059C8.81911 6.02784 8.52155 5.93026 8.2765 6.05279C8.02951 6.17628 7.9294 6.47662 8.0529 6.72361L8.50011 6.5C8.0529 6.72361 8.05303 6.72387 8.05316 6.72414L8.05345 6.7247L8.05405 6.72589L8.0554 6.72856L8.05874 6.73501L8.06798 6.75219C8.0753 6.76549 8.08496 6.78242 8.09713 6.80246C8.12144 6.84249 8.15589 6.8952 8.20167 6.95625C8.29308 7.07812 8.43105 7.23507 8.62526 7.39043C9.02003 7.70625 9.62865 8 10.5001 8C11.3716 8 11.9802 7.70625 12.375 7.39043C12.5692 7.23507 12.7071 7.07812 12.7985 6.95625C12.8443 6.8952 12.8788 6.84249 12.9031 6.80246C12.9153 6.78242 12.9249 6.76549 12.9322 6.75219L12.9415 6.73501L12.9448 6.72856L12.9462 6.72589L12.9468 6.7247L12.9471 6.72414C12.9472 6.72387 12.9473 6.72361 12.5001 6.5L12.9473 6.72361C13.0708 6.47662 12.9707 6.17628 12.7237 6.05279C12.4787 5.93026 12.1811 6.02784 12.0558 6.2706Z" fill="url(#paint3_linear_226_396)"/>
<defs>
<linearGradient id="paint0_linear_226_396" x1="11.1552" y1="10" x2="11.1552" y2="14" gradientUnits="userSpaceOnUse">
<stop stop-color="#553B3E"/>
<stop offset="1" stop-color="#3D2432"/>
</linearGradient>
<linearGradient id="paint1_linear_226_396" x1="11.1552" y1="10" x2="11.1552" y2="14" gradientUnits="userSpaceOnUse">
<stop stop-color="#553B3E"/>
<stop offset="1" stop-color="#3D2432"/>
</linearGradient>
<linearGradient id="paint2_linear_226_396" x1="21.5001" y1="5.5" x2="21.5001" y2="6.5" gradientUnits="userSpaceOnUse">
<stop offset="0.0299084" stop-color="#524049"/>
<stop offset="1" stop-color="#4A2C42"/>
</linearGradient>
<linearGradient id="paint3_linear_226_396" x1="10.5001" y1="6" x2="10.5001" y2="7.5" gradientUnits="userSpaceOnUse">
<stop offset="0.0299084" stop-color="#524049"/>
<stop offset="1" stop-color="#4A2C42"/>
</linearGradient>
</defs>
</svg>
