<svg width="32" height="32" viewBox="0 0 32 32" fill="none" xmlns="http://www.w3.org/2000/svg">
<path d="M10.5 19C12.9853 19 15 16.9853 15 14.5C15 12.0147 12.9853 10 10.5 10C8.01472 10 6 12.0147 6 14.5C6 16.9853 8.01472 19 10.5 19Z" fill="white"/>
<path d="M21.5 19C23.9853 19 26 16.9853 26 14.5C26 12.0147 23.9853 10 21.5 10C19.0147 10 17 12.0147 17 14.5C17 16.9853 19.0147 19 21.5 19Z" fill="white"/>
<path d="M12 17C13.1046 17 14 16.1046 14 15C14 13.8954 13.1046 13 12 13C10.8954 13 10 13.8954 10 15C10 16.1046 10.8954 17 12 17Z" fill="url(#paint0_linear_216_366)"/>
<path d="M20 17C21.1046 17 22 16.1046 22 15C22 13.8954 21.1046 13 20 13C18.8954 13 18 13.8954 18 15C18 16.1046 18.8954 17 20 17Z" fill="url(#paint1_linear_216_366)"/>
<path fill-rule="evenodd" clip-rule="evenodd" d="M9.88364 5.3966L9.88406 5.39411L9.88135 5.40785C9.8785 5.42172 9.87336 5.44534 9.86537 5.47732C9.84934 5.54143 9.8221 5.63813 9.77937 5.75647C9.69335 5.99466 9.54798 6.31106 9.31252 6.625C8.85826 7.23069 8.03752 7.875 6.50002 7.875C6.15485 7.875 5.87502 8.15482 5.87502 8.5C5.87502 8.84518 6.15485 9.125 6.50002 9.125C8.46253 9.125 9.64179 8.26931 10.3125 7.375C10.6396 6.93894 10.8379 6.50534 10.9551 6.18103C11.0139 6.01812 11.0531 5.88044 11.078 5.78049C11.0906 5.73044 11.0996 5.68961 11.1058 5.65953C11.1094 5.64176 11.1129 5.62393 11.116 5.60605L11.1163 5.60426C11.1166 5.60198 11.1165 5.60275 11.1165 5.60275C11.1733 5.26227 10.9433 4.94025 10.6028 4.8835C10.2633 4.82693 9.94227 5.05537 9.88406 5.39411" fill="url(#paint2_linear_216_366)"/>
<path fill-rule="evenodd" clip-rule="evenodd" d="M9.88364 5.3966L9.88406 5.39411L9.88135 5.40785C9.8785 5.42172 9.87336 5.44534 9.86537 5.47732C9.84934 5.54143 9.8221 5.63813 9.77937 5.75647C9.69335 5.99466 9.54798 6.31106 9.31252 6.625C8.85826 7.23069 8.03752 7.875 6.50002 7.875C6.15485 7.875 5.87502 8.15482 5.87502 8.5C5.87502 8.84518 6.15485 9.125 6.50002 9.125C8.46253 9.125 9.64179 8.26931 10.3125 7.375C10.6396 6.93894 10.8379 6.50534 10.9551 6.18103C11.0139 6.01812 11.0531 5.88044 11.078 5.78049C11.0906 5.73044 11.0996 5.68961 11.1058 5.65953C11.1094 5.64176 11.1129 5.62393 11.116 5.60605L11.1163 5.60426C11.1166 5.60198 11.1165 5.60275 11.1165 5.60275C11.1733 5.26227 10.9433 4.94025 10.6028 4.8835C10.2633 4.82693 9.94227 5.05537 9.88406 5.39411" fill="url(#paint3_radial_216_366)"/>
<path fill-rule="evenodd" clip-rule="evenodd" d="M22.1164 5.3966L22.1159 5.39411L22.1186 5.40785C22.1215 5.42172 22.1266 5.44534 22.1346 5.47732C22.1507 5.54143 22.1779 5.63813 22.2206 5.75647C22.3066 5.99466 22.452 6.31106 22.6875 6.625C23.1417 7.23069 23.9625 7.875 25.5 7.875C25.8452 7.875 26.125 8.15482 26.125 8.5C26.125 8.84518 25.8452 9.125 25.5 9.125C23.5375 9.125 22.3582 8.26931 21.6875 7.375C21.3604 6.93894 21.1621 6.50534 21.0449 6.18103C20.9861 6.01812 20.9469 5.88044 20.922 5.78049C20.9094 5.73044 20.9004 5.68961 20.8942 5.65953C20.8905 5.64116 20.8869 5.62275 20.8837 5.60426C20.8834 5.60198 20.8835 5.60275 20.8835 5.60275C20.8267 5.26227 21.0567 4.94025 21.3972 4.8835C21.7367 4.82693 22.0577 5.05537 22.1159 5.39411" fill="url(#paint4_radial_216_366)"/>
<defs>
<linearGradient id="paint0_linear_216_366" x1="20.6154" y1="13" x2="19.9265" y2="17.0302" gradientUnits="userSpaceOnUse">
<stop stop-color="#553B3E"/>
<stop offset="1" stop-color="#3D2432"/>
</linearGradient>
<linearGradient id="paint1_linear_216_366" x1="20.6154" y1="13" x2="19.9265" y2="17.0302" gradientUnits="userSpaceOnUse">
<stop stop-color="#553B3E"/>
<stop offset="1" stop-color="#3D2432"/>
</linearGradient>
<linearGradient id="paint2_linear_216_366" x1="9.50002" y1="5" x2="9.50002" y2="6.5" gradientUnits="userSpaceOnUse">
<stop offset="0.0299084" stop-color="#524049"/>
<stop offset="1" stop-color="#4A2C42"/>
</linearGradient>
<radialGradient id="paint3_radial_216_366" cx="0" cy="0" r="1" gradientUnits="userSpaceOnUse" gradientTransform="translate(7.00003 5) rotate(54.4623) scale(4.30116)">
<stop offset="0.541667" stop-color="#493032"/>
<stop offset="0.806723" stop-color="#5E445A"/>
<stop offset="0.955326" stop-color="#4A2C42"/>
</radialGradient>
<radialGradient id="paint4_radial_216_366" cx="0" cy="0" r="1" gradientUnits="userSpaceOnUse" gradientTransform="translate(25 5) rotate(125.538) scale(4.30116)">
<stop stop-color="#C2B4B5"/>
<stop offset="0.887405" stop-color="#462B45"/>
<stop offset="1" stop-color="#4A2C42"/>
</radialGradient>
</defs>
</svg>
