<svg width="32" height="32" viewBox="0 0 32 32" fill="none" xmlns="http://www.w3.org/2000/svg">
<path d="M10.5 17C12.9853 17 15 14.9853 15 12.5C15 10.0147 12.9853 8 10.5 8C8.01472 8 6 10.0147 6 12.5C6 14.9853 8.01472 17 10.5 17Z" fill="white"/>
<path d="M21.5 17C23.9853 17 26 14.9853 26 12.5C26 10.0147 23.9853 8 21.5 8C19.0147 8 17 10.0147 17 12.5C17 14.9853 19.0147 17 21.5 17Z" fill="white"/>
<path d="M13 9C13 10.1046 12.1046 11 11 11C9.89543 11 9 10.1046 9 9C9 8.71596 9.05921 8.44574 9.16597 8.20103C9.58749 8.07037 10.0355 8 10.5 8C11.4183 8 12.2723 8.27505 12.9842 8.74724C12.9946 8.83002 13 8.91438 13 9Z" fill="url(#paint0_linear_267_2434)"/>
<path d="M23 9C23 10.1046 22.1046 11 21 11C19.8954 11 19 10.1046 19 9C19 8.91438 19.0054 8.83002 19.0158 8.74724C19.7277 8.27505 20.5817 8 21.5 8C21.9645 8 22.4125 8.07037 22.834 8.20103C22.9408 8.44574 23 8.71596 23 9Z" fill="url(#paint1_linear_267_2434)"/>
<defs>
<linearGradient id="paint0_linear_267_2434" x1="21.3846" y1="8" x2="21.0468" y2="11.0738" gradientUnits="userSpaceOnUse">
<stop stop-color="#553B3E"/>
<stop offset="1" stop-color="#3D2432"/>
</linearGradient>
<linearGradient id="paint1_linear_267_2434" x1="21.3846" y1="8" x2="21.0468" y2="11.0738" gradientUnits="userSpaceOnUse">
<stop stop-color="#553B3E"/>
<stop offset="1" stop-color="#3D2432"/>
</linearGradient>
</defs>
</svg>
