<svg width="32" height="32" viewBox="0 0 32 32" fill="none" xmlns="http://www.w3.org/2000/svg">
<path fill-rule="evenodd" clip-rule="evenodd" d="M7.697 14.2829C7.30573 13.9024 6.68007 13.9057 6.29289 14.2929C5.90237 14.6834 5.90237 15.3166 6.29289 15.7071L6.29432 15.7085L6.29585 15.7101L6.29922 15.7134L6.30713 15.7211L6.32778 15.7408C6.34367 15.7557 6.36387 15.7741 6.38837 15.7955C6.43735 15.8384 6.5037 15.8934 6.5875 15.9562C6.75496 16.0818 6.99328 16.2397 7.30279 16.3944C7.92507 16.7056 8.82724 17 10 17C11.1728 17 12.0749 16.7056 12.6972 16.3944C13.0067 16.2397 13.245 16.0818 13.4125 15.9562C13.4963 15.8934 13.5627 15.8384 13.6116 15.7955C13.6393 15.7713 13.6663 15.7464 13.6929 15.7211L13.7008 15.7134L13.7041 15.7101L13.7057 15.7085L13.7064 15.7078C14.0969 15.3173 14.0976 14.6834 13.7071 14.2929C13.3199 13.9057 12.6943 13.9024 12.303 14.2829C12.3015 14.2843 12.2987 14.2868 12.2946 14.2904C12.2811 14.3022 12.2537 14.3253 12.2125 14.3562C12.13 14.4182 11.9933 14.5103 11.8028 14.6056C11.4251 14.7944 10.8272 15 10 15C9.17276 15 8.57493 14.7944 8.19721 14.6056C8.00672 14.5103 7.87004 14.4182 7.7875 14.3562C7.7463 14.3253 7.7189 14.3022 7.70538 14.2904C7.70132 14.2868 7.69852 14.2843 7.697 14.2829Z" fill="url(#paint0_radial_308_756)"/>
<path fill-rule="evenodd" clip-rule="evenodd" d="M7.697 14.2829C7.30573 13.9024 6.68007 13.9057 6.29289 14.2929C5.90237 14.6834 5.90237 15.3166 6.29289 15.7071L6.29432 15.7085L6.29585 15.7101L6.29922 15.7134L6.30713 15.7211L6.32778 15.7408C6.34367 15.7557 6.36387 15.7741 6.38837 15.7955C6.43735 15.8384 6.5037 15.8934 6.5875 15.9562C6.75496 16.0818 6.99328 16.2397 7.30279 16.3944C7.92507 16.7056 8.82724 17 10 17C11.1728 17 12.0749 16.7056 12.6972 16.3944C13.0067 16.2397 13.245 16.0818 13.4125 15.9562C13.4963 15.8934 13.5627 15.8384 13.6116 15.7955C13.6393 15.7713 13.6663 15.7464 13.6929 15.7211L13.7008 15.7134L13.7041 15.7101L13.7057 15.7085L13.7064 15.7078C14.0969 15.3173 14.0976 14.6834 13.7071 14.2929C13.3199 13.9057 12.6943 13.9024 12.303 14.2829C12.3015 14.2843 12.2987 14.2868 12.2946 14.2904C12.2811 14.3022 12.2537 14.3253 12.2125 14.3562C12.13 14.4182 11.9933 14.5103 11.8028 14.6056C11.4251 14.7944 10.8272 15 10 15C9.17276 15 8.57493 14.7944 8.19721 14.6056C8.00672 14.5103 7.87004 14.4182 7.7875 14.3562C7.7463 14.3253 7.7189 14.3022 7.70538 14.2904C7.70132 14.2868 7.69852 14.2843 7.697 14.2829Z" fill="url(#paint1_radial_308_756)"/>
<path fill-rule="evenodd" clip-rule="evenodd" d="M7.697 14.2829C7.30573 13.9024 6.68007 13.9057 6.29289 14.2929C5.90237 14.6834 5.90237 15.3166 6.29289 15.7071L6.29432 15.7085L6.29585 15.7101L6.29922 15.7134L6.30713 15.7211L6.32778 15.7408C6.34367 15.7557 6.36387 15.7741 6.38837 15.7955C6.43735 15.8384 6.5037 15.8934 6.5875 15.9562C6.75496 16.0818 6.99328 16.2397 7.30279 16.3944C7.92507 16.7056 8.82724 17 10 17C11.1728 17 12.0749 16.7056 12.6972 16.3944C13.0067 16.2397 13.245 16.0818 13.4125 15.9562C13.4963 15.8934 13.5627 15.8384 13.6116 15.7955C13.6393 15.7713 13.6663 15.7464 13.6929 15.7211L13.7008 15.7134L13.7041 15.7101L13.7057 15.7085L13.7064 15.7078C14.0969 15.3173 14.0976 14.6834 13.7071 14.2929C13.3199 13.9057 12.6943 13.9024 12.303 14.2829C12.3015 14.2843 12.2987 14.2868 12.2946 14.2904C12.2811 14.3022 12.2537 14.3253 12.2125 14.3562C12.13 14.4182 11.9933 14.5103 11.8028 14.6056C11.4251 14.7944 10.8272 15 10 15C9.17276 15 8.57493 14.7944 8.19721 14.6056C8.00672 14.5103 7.87004 14.4182 7.7875 14.3562C7.7463 14.3253 7.7189 14.3022 7.70538 14.2904C7.70132 14.2868 7.69852 14.2843 7.697 14.2829Z" fill="url(#paint2_radial_308_756)"/>
<path fill-rule="evenodd" clip-rule="evenodd" d="M19.697 14.2829C19.3057 13.9024 18.6801 13.9057 18.2929 14.2929C17.9024 14.6834 17.9024 15.3166 18.2929 15.7071L18.2943 15.7085L18.2959 15.7101L18.2992 15.7134L18.3071 15.7211C18.3337 15.7464 18.3607 15.7713 18.3884 15.7955C18.4373 15.8384 18.5037 15.8934 18.5875 15.9562C18.755 16.0818 18.9933 16.2397 19.3028 16.3944C19.9251 16.7056 20.8272 17 22 17C23.1728 17 24.0749 16.7056 24.6972 16.3944C25.0067 16.2397 25.245 16.0818 25.4125 15.9562C25.4963 15.8934 25.5627 15.8384 25.6116 15.7955C25.6361 15.7741 25.6563 15.7557 25.6722 15.7408L25.7008 15.7134L25.7041 15.7101L25.7057 15.7085L25.7064 15.7078C26.0969 15.3173 26.0976 14.6834 25.7071 14.2929C25.3199 13.9057 24.6943 13.9024 24.303 14.2829C24.3015 14.2843 24.2987 14.2868 24.2946 14.2904C24.2811 14.3022 24.2537 14.3253 24.2125 14.3562C24.13 14.4182 23.9933 14.5103 23.8028 14.6056C23.4251 14.7944 22.8272 15 22 15C21.1728 15 20.5749 14.7944 20.1972 14.6056C20.0067 14.5103 19.87 14.4182 19.7875 14.3562C19.7463 14.3253 19.7189 14.3022 19.7054 14.2904C19.7013 14.2868 19.6985 14.2843 19.697 14.2829Z" fill="url(#paint3_linear_308_756)"/>
<path fill-rule="evenodd" clip-rule="evenodd" d="M19.697 14.2829C19.3057 13.9024 18.6801 13.9057 18.2929 14.2929C17.9024 14.6834 17.9024 15.3166 18.2929 15.7071L18.2943 15.7085L18.2959 15.7101L18.2992 15.7134L18.3071 15.7211C18.3337 15.7464 18.3607 15.7713 18.3884 15.7955C18.4373 15.8384 18.5037 15.8934 18.5875 15.9562C18.755 16.0818 18.9933 16.2397 19.3028 16.3944C19.9251 16.7056 20.8272 17 22 17C23.1728 17 24.0749 16.7056 24.6972 16.3944C25.0067 16.2397 25.245 16.0818 25.4125 15.9562C25.4963 15.8934 25.5627 15.8384 25.6116 15.7955C25.6361 15.7741 25.6563 15.7557 25.6722 15.7408L25.7008 15.7134L25.7041 15.7101L25.7057 15.7085L25.7064 15.7078C26.0969 15.3173 26.0976 14.6834 25.7071 14.2929C25.3199 13.9057 24.6943 13.9024 24.303 14.2829C24.3015 14.2843 24.2987 14.2868 24.2946 14.2904C24.2811 14.3022 24.2537 14.3253 24.2125 14.3562C24.13 14.4182 23.9933 14.5103 23.8028 14.6056C23.4251 14.7944 22.8272 15 22 15C21.1728 15 20.5749 14.7944 20.1972 14.6056C20.0067 14.5103 19.87 14.4182 19.7875 14.3562C19.7463 14.3253 19.7189 14.3022 19.7054 14.2904C19.7013 14.2868 19.6985 14.2843 19.697 14.2829Z" fill="url(#paint4_radial_308_756)"/>
<path fill-rule="evenodd" clip-rule="evenodd" d="M19.697 14.2829C19.3057 13.9024 18.6801 13.9057 18.2929 14.2929C17.9024 14.6834 17.9024 15.3166 18.2929 15.7071L18.2943 15.7085L18.2959 15.7101L18.2992 15.7134L18.3071 15.7211C18.3337 15.7464 18.3607 15.7713 18.3884 15.7955C18.4373 15.8384 18.5037 15.8934 18.5875 15.9562C18.755 16.0818 18.9933 16.2397 19.3028 16.3944C19.9251 16.7056 20.8272 17 22 17C23.1728 17 24.0749 16.7056 24.6972 16.3944C25.0067 16.2397 25.245 16.0818 25.4125 15.9562C25.4963 15.8934 25.5627 15.8384 25.6116 15.7955C25.6361 15.7741 25.6563 15.7557 25.6722 15.7408L25.7008 15.7134L25.7041 15.7101L25.7057 15.7085L25.7064 15.7078C26.0969 15.3173 26.0976 14.6834 25.7071 14.2929C25.3199 13.9057 24.6943 13.9024 24.303 14.2829C24.3015 14.2843 24.2987 14.2868 24.2946 14.2904C24.2811 14.3022 24.2537 14.3253 24.2125 14.3562C24.13 14.4182 23.9933 14.5103 23.8028 14.6056C23.4251 14.7944 22.8272 15 22 15C21.1728 15 20.5749 14.7944 20.1972 14.6056C20.0067 14.5103 19.87 14.4182 19.7875 14.3562C19.7463 14.3253 19.7189 14.3022 19.7054 14.2904C19.7013 14.2868 19.6985 14.2843 19.697 14.2829Z" fill="url(#paint5_radial_308_756)"/>
<path fill-rule="evenodd" clip-rule="evenodd" d="M19.697 14.2829C19.3057 13.9024 18.6801 13.9057 18.2929 14.2929C17.9024 14.6834 17.9024 15.3166 18.2929 15.7071L18.2943 15.7085L18.2959 15.7101L18.2992 15.7134L18.3071 15.7211C18.3337 15.7464 18.3607 15.7713 18.3884 15.7955C18.4373 15.8384 18.5037 15.8934 18.5875 15.9562C18.755 16.0818 18.9933 16.2397 19.3028 16.3944C19.9251 16.7056 20.8272 17 22 17C23.1728 17 24.0749 16.7056 24.6972 16.3944C25.0067 16.2397 25.245 16.0818 25.4125 15.9562C25.4963 15.8934 25.5627 15.8384 25.6116 15.7955C25.6361 15.7741 25.6563 15.7557 25.6722 15.7408L25.7008 15.7134L25.7041 15.7101L25.7057 15.7085L25.7064 15.7078C26.0969 15.3173 26.0976 14.6834 25.7071 14.2929C25.3199 13.9057 24.6943 13.9024 24.303 14.2829C24.3015 14.2843 24.2987 14.2868 24.2946 14.2904C24.2811 14.3022 24.2537 14.3253 24.2125 14.3562C24.13 14.4182 23.9933 14.5103 23.8028 14.6056C23.4251 14.7944 22.8272 15 22 15C21.1728 15 20.5749 14.7944 20.1972 14.6056C20.0067 14.5103 19.87 14.4182 19.7875 14.3562C19.7463 14.3253 19.7189 14.3022 19.7054 14.2904C19.7013 14.2868 19.6985 14.2843 19.697 14.2829Z" fill="url(#paint6_radial_308_756)"/>
<path fill-rule="evenodd" clip-rule="evenodd" d="M8.06939 6.98761C7.47649 7.55049 7.11794 8.22774 6.97448 8.65811C6.88715 8.92009 6.60399 9.06167 6.34202 8.97434C6.08005 8.88702 5.93847 8.60386 6.02579 8.34189C6.21567 7.77226 6.65711 6.94951 7.38088 6.26239C8.11314 5.5672 9.14804 5 10.5001 5C10.7763 5 11.0001 5.22386 11.0001 5.5C11.0001 5.77614 10.7763 6 10.5001 6C9.45223 6 8.65379 6.4328 8.06939 6.98761Z" fill="url(#paint7_linear_308_756)"/>
<path fill-rule="evenodd" clip-rule="evenodd" d="M23.9306 6.98761C24.5235 7.55049 24.8821 8.22774 25.0255 8.65811C25.1128 8.92009 25.396 9.06167 25.658 8.97434C25.9199 8.88702 26.0615 8.60386 25.9742 8.34189C25.7843 7.77226 25.3429 6.94951 24.6191 6.26239C23.8869 5.5672 22.852 5 21.4999 5C21.2237 5 20.9999 5.22386 20.9999 5.5C20.9999 5.77614 21.2237 6 21.4999 6C22.5478 6 23.3462 6.4328 23.9306 6.98761Z" fill="url(#paint8_linear_308_756)"/>
<defs>
<radialGradient id="paint0_radial_308_756" cx="0" cy="0" r="1" gradientUnits="userSpaceOnUse" gradientTransform="translate(10 14) rotate(90) scale(3.3125 6)">
<stop offset="0.339623" stop-color="#4E3225"/>
<stop offset="0.55814" stop-color="#56424D"/>
<stop offset="0.867925" stop-color="#502A53"/>
</radialGradient>
<radialGradient id="paint1_radial_308_756" cx="0" cy="0" r="1" gradientUnits="userSpaceOnUse" gradientTransform="translate(11.9879 15.5) rotate(-177.107) scale(6.40914 3.35694)">
<stop offset="0.705029" stop-color="#4D3231" stop-opacity="0"/>
<stop offset="1" stop-color="#322020"/>
</radialGradient>
<radialGradient id="paint2_radial_308_756" cx="0" cy="0" r="1" gradientUnits="userSpaceOnUse" gradientTransform="translate(13.4296 14.6674) rotate(136.042) scale(1.01718 2.21748)">
<stop stop-color="#66515A"/>
<stop offset="1" stop-color="#58464D" stop-opacity="0"/>
</radialGradient>
<linearGradient id="paint3_linear_308_756" x1="23.2" y1="14.75" x2="22.9649" y2="16.1608" gradientUnits="userSpaceOnUse">
<stop stop-color="#52383E"/>
<stop offset="1" stop-color="#432A35"/>
</linearGradient>
<radialGradient id="paint4_radial_308_756" cx="0" cy="0" r="1" gradientUnits="userSpaceOnUse" gradientTransform="translate(22 14) rotate(90) scale(3.3125 6)">
<stop offset="0.339623" stop-color="#4E3225"/>
<stop offset="0.55814" stop-color="#56424D"/>
<stop offset="0.867925" stop-color="#502A53"/>
</radialGradient>
<radialGradient id="paint5_radial_308_756" cx="0" cy="0" r="1" gradientUnits="userSpaceOnUse" gradientTransform="translate(23.9879 15.5) rotate(-177.107) scale(6.40914 3.35694)">
<stop offset="0.705029" stop-color="#4D3231" stop-opacity="0"/>
<stop offset="1" stop-color="#322020"/>
</radialGradient>
<radialGradient id="paint6_radial_308_756" cx="0" cy="0" r="1" gradientUnits="userSpaceOnUse" gradientTransform="translate(25.4296 14.6674) rotate(136.042) scale(1.01718 2.21748)">
<stop stop-color="#66515A"/>
<stop offset="1" stop-color="#58464D" stop-opacity="0"/>
</radialGradient>
<linearGradient id="paint7_linear_308_756" x1="6.83347" y1="9.4" x2="6.83347" y2="7.6" gradientUnits="userSpaceOnUse">
<stop offset="0.0299084" stop-color="#524049"/>
<stop offset="1" stop-color="#4A2C42"/>
</linearGradient>
<linearGradient id="paint8_linear_308_756" x1="25.1665" y1="9.4" x2="25.1665" y2="7.6" gradientUnits="userSpaceOnUse">
<stop offset="0.0299084" stop-color="#524049"/>
<stop offset="1" stop-color="#4A2C42"/>
</linearGradient>
</defs>
</svg>
