<svg width="32" height="32" viewBox="0 0 32 32" fill="none" xmlns="http://www.w3.org/2000/svg">
<path d="M10.5 16C12.9853 16 15 13.9853 15 11.5C15 9.01472 12.9853 7 10.5 7C8.01472 7 6 9.01472 6 11.5C6 13.9853 8.01472 16 10.5 16Z" fill="white"/>
<path d="M21.5 16C23.9853 16 26 13.9853 26 11.5C26 9.01472 23.9853 7 21.5 7C19.0147 7 17 9.01472 17 11.5C17 13.9853 19.0147 16 21.5 16Z" fill="white"/>
<path d="M12 14C13.1046 14 14 13.1046 14 12C14 10.8954 13.1046 10 12 10C10.8954 10 10 10.8954 10 12C10 13.1046 10.8954 14 12 14Z" fill="url(#paint0_linear_226_346)"/>
<path d="M20 14C21.1046 14 22 13.1046 22 12C22 10.8954 21.1046 10 20 10C18.8954 10 18 10.8954 18 12C18 13.1046 18.8954 14 20 14Z" fill="url(#paint1_linear_226_346)"/>
<path fill-rule="evenodd" clip-rule="evenodd" d="M9.88364 2.3966L9.88406 2.39411L9.88135 2.40785C9.8785 2.42172 9.87336 2.44534 9.86537 2.47732C9.84934 2.54143 9.8221 2.63813 9.77937 2.75647C9.69335 2.99466 9.54798 3.31106 9.31252 3.625C8.85826 4.23069 8.03752 4.875 6.50002 4.875C6.15485 4.875 5.87502 5.15482 5.87502 5.5C5.87502 5.84518 6.15485 6.125 6.50002 6.125C8.46253 6.125 9.64179 5.26931 10.3125 4.375C10.6396 3.93894 10.8379 3.50534 10.9551 3.18103C11.0139 3.01812 11.0531 2.88044 11.078 2.78049C11.0906 2.73044 11.0996 2.68961 11.1058 2.65953C11.1094 2.64176 11.1129 2.62393 11.116 2.60605L11.1163 2.60426C11.1166 2.60198 11.1165 2.60275 11.1165 2.60275C11.1733 2.26227 10.9433 1.94025 10.6028 1.8835C10.2633 1.82693 9.94227 2.05537 9.88406 2.39411" fill="url(#paint2_linear_226_346)"/>
<path fill-rule="evenodd" clip-rule="evenodd" d="M9.88364 2.3966L9.88406 2.39411L9.88135 2.40785C9.8785 2.42172 9.87336 2.44534 9.86537 2.47732C9.84934 2.54143 9.8221 2.63813 9.77937 2.75647C9.69335 2.99466 9.54798 3.31106 9.31252 3.625C8.85826 4.23069 8.03752 4.875 6.50002 4.875C6.15485 4.875 5.87502 5.15482 5.87502 5.5C5.87502 5.84518 6.15485 6.125 6.50002 6.125C8.46253 6.125 9.64179 5.26931 10.3125 4.375C10.6396 3.93894 10.8379 3.50534 10.9551 3.18103C11.0139 3.01812 11.0531 2.88044 11.078 2.78049C11.0906 2.73044 11.0996 2.68961 11.1058 2.65953C11.1094 2.64176 11.1129 2.62393 11.116 2.60605L11.1163 2.60426C11.1166 2.60198 11.1165 2.60275 11.1165 2.60275C11.1733 2.26227 10.9433 1.94025 10.6028 1.8835C10.2633 1.82693 9.94227 2.05537 9.88406 2.39411" fill="url(#paint3_radial_226_346)"/>
<path fill-rule="evenodd" clip-rule="evenodd" d="M22.1164 2.3966L22.1159 2.39411L22.1186 2.40785C22.1215 2.42172 22.1266 2.44534 22.1346 2.47732C22.1507 2.54143 22.1779 2.63813 22.2206 2.75647C22.3066 2.99466 22.452 3.31106 22.6875 3.625C23.1417 4.23069 23.9625 4.875 25.5 4.875C25.8452 4.875 26.125 5.15482 26.125 5.5C26.125 5.84518 25.8452 6.125 25.5 6.125C23.5375 6.125 22.3582 5.26931 21.6875 4.375C21.3604 3.93894 21.1621 3.50534 21.0449 3.18103C20.9861 3.01812 20.9469 2.88044 20.922 2.78049C20.9094 2.73044 20.9004 2.68961 20.8942 2.65953C20.8905 2.64116 20.8869 2.62275 20.8837 2.60426C20.8834 2.60198 20.8835 2.60275 20.8835 2.60275C20.8267 2.26227 21.0567 1.94025 21.3972 1.8835C21.7367 1.82693 22.0577 2.05537 22.1159 2.39411" fill="url(#paint4_radial_226_346)"/>
<defs>
<linearGradient id="paint0_linear_226_346" x1="20.6154" y1="10" x2="19.9265" y2="14.0302" gradientUnits="userSpaceOnUse">
<stop stop-color="#553B3E"/>
<stop offset="1" stop-color="#3D2432"/>
</linearGradient>
<linearGradient id="paint1_linear_226_346" x1="20.6154" y1="10" x2="19.9265" y2="14.0302" gradientUnits="userSpaceOnUse">
<stop stop-color="#553B3E"/>
<stop offset="1" stop-color="#3D2432"/>
</linearGradient>
<linearGradient id="paint2_linear_226_346" x1="9.50002" y1="2" x2="9.50002" y2="3.5" gradientUnits="userSpaceOnUse">
<stop offset="0.0299084" stop-color="#524049"/>
<stop offset="1" stop-color="#4A2C42"/>
</linearGradient>
<radialGradient id="paint3_radial_226_346" cx="0" cy="0" r="1" gradientUnits="userSpaceOnUse" gradientTransform="translate(7.00003 2) rotate(54.4623) scale(4.30116)">
<stop offset="0.541667" stop-color="#493032"/>
<stop offset="0.806723" stop-color="#5E445A"/>
<stop offset="0.955326" stop-color="#4A2C42"/>
</radialGradient>
<radialGradient id="paint4_radial_226_346" cx="0" cy="0" r="1" gradientUnits="userSpaceOnUse" gradientTransform="translate(25 2) rotate(125.538) scale(4.30116)">
<stop stop-color="#C2B4B5"/>
<stop offset="0.887405" stop-color="#462B45"/>
<stop offset="1" stop-color="#4A2C42"/>
</radialGradient>
</defs>
</svg>
