<svg width="32" height="32" viewBox="0 0 32 32" fill="none" xmlns="http://www.w3.org/2000/svg">
<path fill-rule="evenodd" clip-rule="evenodd" d="M14.7131 12.5C14.7131 14.8472 12.8103 16.75 10.4631 16.75C8.11592 16.75 6.21313 14.8472 6.21313 12.5C6.21313 10.1528 8.11592 8.25 10.4631 8.25C12.8103 8.25 14.7131 10.1528 14.7131 12.5ZM25.7131 12.5C25.7131 14.8472 23.8103 16.75 21.4631 16.75C19.1159 16.75 17.2131 14.8472 17.2131 12.5C17.2131 10.1528 19.1159 8.25 21.4631 8.25C23.8103 8.25 25.7131 10.1528 25.7131 12.5Z" fill="white"/>
<path fill-rule="evenodd" clip-rule="evenodd" d="M11 14.5C12.1046 14.5 13 13.6046 13 12.5C13 11.3954 12.1046 10.5 11 10.5C9.89543 10.5 9 11.3954 9 12.5C9 13.6046 9.89543 14.5 11 14.5ZM21 14.5C22.1046 14.5 23 13.6046 23 12.5C23 11.3954 22.1046 10.5 21 10.5C19.8954 10.5 19 11.3954 19 12.5C19 13.6046 19.8954 14.5 21 14.5Z" fill="url(#paint0_linear_226_374)"/>
<path fill-rule="evenodd" clip-rule="evenodd" d="M8.06927 6.98761C7.47637 7.55049 7.11781 8.22774 6.97436 8.65811C6.88703 8.92009 6.60387 9.06167 6.3419 8.97434C6.07993 8.88702 5.93835 8.60386 6.02567 8.34189C6.21555 7.77226 6.65699 6.94951 7.38076 6.26239C8.11302 5.5672 9.14792 5 10.5 5C10.7762 5 11 5.22386 11 5.5C11 5.77614 10.7762 6 10.5 6C9.45211 6 8.65367 6.4328 8.06927 6.98761Z" fill="url(#paint1_linear_226_374)"/>
<path fill-rule="evenodd" clip-rule="evenodd" d="M23.9307 6.98761C24.5236 7.55049 24.8822 8.22774 25.0256 8.65811C25.113 8.92009 25.3961 9.06167 25.6581 8.97434C25.9201 8.88702 26.0617 8.60386 25.9743 8.34189C25.7845 7.77226 25.343 6.94951 24.6192 6.26239C23.887 5.5672 22.8521 5 21.5 5C21.2238 5 21 5.22386 21 5.5C21 5.77614 21.2238 6 21.5 6C22.5479 6 23.3463 6.4328 23.9307 6.98761Z" fill="url(#paint2_linear_226_374)"/>
<defs>
<linearGradient id="paint0_linear_226_374" x1="16.4375" y1="9.83333" x2="15.9253" y2="14.5395" gradientUnits="userSpaceOnUse">
<stop stop-color="#553B3E"/>
<stop offset="1" stop-color="#3D2432"/>
</linearGradient>
<linearGradient id="paint1_linear_226_374" x1="6.83335" y1="9.4" x2="6.83335" y2="7.6" gradientUnits="userSpaceOnUse">
<stop offset="0.0299084" stop-color="#524049"/>
<stop offset="1" stop-color="#4A2C42"/>
</linearGradient>
<linearGradient id="paint2_linear_226_374" x1="25.1667" y1="9.4" x2="25.1667" y2="7.6" gradientUnits="userSpaceOnUse">
<stop offset="0.0299084" stop-color="#524049"/>
<stop offset="1" stop-color="#4A2C42"/>
</linearGradient>
</defs>
</svg>
