<svg width="32" height="32" viewBox="0 0 32 32" fill="none" xmlns="http://www.w3.org/2000/svg">
<path d="M10.4995 16C12.9848 16 14.9995 13.9853 14.9995 11.5C14.9995 9.01472 12.9848 7 10.4995 7C8.01423 7 5.99951 9.01472 5.99951 11.5C5.99951 13.9853 8.01423 16 10.4995 16Z" fill="white"/>
<path d="M21.4995 16C23.9848 16 25.9995 13.9853 25.9995 11.5C25.9995 9.01472 23.9848 7 21.4995 7C19.0142 7 16.9995 9.01472 16.9995 11.5C16.9995 13.9853 19.0142 16 21.4995 16Z" fill="white"/>
<path d="M9.99951 15C11.1041 15 11.9995 14.1046 11.9995 13C11.9995 11.8955 11.1041 11 9.99951 11C8.89494 11 7.99951 11.8955 7.99951 13C7.99951 14.1046 8.89494 15 9.99951 15Z" fill="url(#paint0_linear_309_1119)"/>
<path d="M21.9993 11.9999C23.1039 11.9999 23.9993 11.1045 23.9993 9.99994C23.9993 8.89537 23.1039 7.99994 21.9993 7.99994C20.8948 7.99994 19.9993 8.89537 19.9993 9.99994C19.9993 11.1045 20.8948 11.9999 21.9993 11.9999Z" fill="url(#paint1_linear_309_1119)"/>
<defs>
<linearGradient id="paint0_linear_309_1119" x1="50.4606" y1="7.99994" x2="49.9207" y2="15.2185" gradientUnits="userSpaceOnUse">
<stop stop-color="#553B3E"/>
<stop offset="1" stop-color="#3D2432"/>
</linearGradient>
<linearGradient id="paint1_linear_309_1119" x1="22.6147" y1="7.99994" x2="21.9258" y2="12.0301" gradientUnits="userSpaceOnUse">
<stop stop-color="#553B3E"/>
<stop offset="1" stop-color="#3D2432"/>
</linearGradient>
</defs>
</svg>
