<svg width="32" height="32" viewBox="0 0 32 32" fill="none" xmlns="http://www.w3.org/2000/svg">
<path fill-rule="evenodd" clip-rule="evenodd" d="M14.7131 14.5C14.7131 16.8472 12.8103 18.75 10.4631 18.75C8.11592 18.75 6.21313 16.8472 6.21313 14.5C6.21313 12.1528 8.11592 10.25 10.4631 10.25C12.8103 10.25 14.7131 12.1528 14.7131 14.5ZM25.7131 14.5C25.7131 16.8472 23.8103 18.75 21.4631 18.75C19.1159 18.75 17.2131 16.8472 17.2131 14.5C17.2131 12.1528 19.1159 10.25 21.4631 10.25C23.8103 10.25 25.7131 12.1528 25.7131 14.5Z" fill="white"/>
<path fill-rule="evenodd" clip-rule="evenodd" d="M11 16.5C12.1046 16.5 13 15.6046 13 14.5C13 13.3954 12.1046 12.5 11 12.5C9.89543 12.5 9 13.3954 9 14.5C9 15.6046 9.89543 16.5 11 16.5ZM21 16.5C22.1046 16.5 23 15.6046 23 14.5C23 13.3954 22.1046 12.5 21 12.5C19.8954 12.5 19 13.3954 19 14.5C19 15.6046 19.8954 16.5 21 16.5Z" fill="url(#paint0_linear_216_376)"/>
<path fill-rule="evenodd" clip-rule="evenodd" d="M8.06927 8.98761C7.47637 9.55049 7.11781 10.2277 6.97436 10.6581C6.88703 10.9201 6.60387 11.0617 6.3419 10.9743C6.07993 10.887 5.93835 10.6039 6.02567 10.3419C6.21555 9.77226 6.65699 8.94951 7.38076 8.26239C8.11302 7.5672 9.14792 7 10.5 7C10.7762 7 11 7.22386 11 7.5C11 7.77614 10.7762 8 10.5 8C9.45211 8 8.65367 8.4328 8.06927 8.98761Z" fill="url(#paint1_linear_216_376)"/>
<path fill-rule="evenodd" clip-rule="evenodd" d="M23.9307 8.98761C24.5236 9.55049 24.8822 10.2277 25.0256 10.6581C25.113 10.9201 25.3961 11.0617 25.6581 10.9743C25.9201 10.887 26.0617 10.6039 25.9743 10.3419C25.7845 9.77226 25.343 8.94951 24.6192 8.26239C23.887 7.5672 22.8521 7 21.5 7C21.2238 7 21 7.22386 21 7.5C21 7.77614 21.2238 8 21.5 8C22.5479 8 23.3463 8.4328 23.9307 8.98761Z" fill="url(#paint2_linear_216_376)"/>
<defs>
<linearGradient id="paint0_linear_216_376" x1="16.4375" y1="11.8333" x2="15.9253" y2="16.5395" gradientUnits="userSpaceOnUse">
<stop stop-color="#553B3E"/>
<stop offset="1" stop-color="#3D2432"/>
</linearGradient>
<linearGradient id="paint1_linear_216_376" x1="6.83335" y1="11.4" x2="6.83335" y2="9.6" gradientUnits="userSpaceOnUse">
<stop offset="0.0299084" stop-color="#524049"/>
<stop offset="1" stop-color="#4A2C42"/>
</linearGradient>
<linearGradient id="paint2_linear_216_376" x1="25.1667" y1="11.4" x2="25.1667" y2="9.6" gradientUnits="userSpaceOnUse">
<stop offset="0.0299084" stop-color="#524049"/>
<stop offset="1" stop-color="#4A2C42"/>
</linearGradient>
</defs>
</svg>
