<svg width="32" height="32" viewBox="0 0 32 32" fill="none" xmlns="http://www.w3.org/2000/svg">
<path fill-rule="evenodd" clip-rule="evenodd" d="M22.7719 11.5649C22.5633 11.2853 22.2176 10.995 21.5388 11.0001C20.852 11.0051 20.5109 11.2989 20.3105 11.5712C20.1997 11.7217 20.127 11.8766 20.0825 11.995C20.0608 12.0529 20.0473 12.0983 20.04 12.1248C20.0368 12.1366 20.035 12.1444 20.0342 12.1475C19.9238 12.6832 19.4024 13.0316 18.8641 12.9269C18.322 12.8216 17.9679 12.2967 18.0732 11.7545C18.1101 11.5999 18.1101 11.5999 18.1101 11.5999C18.1316 11.5209 18.1638 11.4154 18.2101 11.2922C18.3016 11.0482 18.4539 10.7197 18.6997 10.3858C19.2122 9.68939 20.1093 9.01058 21.524 9.00012C22.9468 8.9896 23.855 9.672 24.375 10.369C24.6246 10.7036 24.7811 11.0338 24.8757 11.2789C24.9236 11.4028 24.9572 11.5087 24.9797 11.5881C25.1128 12.0569 24.9237 12.7834 24.2421 12.9246C23.7049 13.0359 23.1791 12.6937 23.0623 12.159C23.0615 12.1558 23.0594 12.1473 23.0557 12.1343C23.0478 12.1064 23.0332 12.0594 23.0101 11.9996C22.9629 11.8775 22.8865 11.7185 22.7719 11.5649Z" fill="url(#paint0_radial_226_316)"/>
<path fill-rule="evenodd" clip-rule="evenodd" d="M11.7407 11.5649C11.5321 11.2853 11.1864 10.995 10.5076 11.0001C9.8208 11.0051 9.47962 11.2989 9.27924 11.5712C9.1685 11.7217 9.09571 11.8766 9.05128 11.995C9.02955 12.0529 9.01601 12.0983 9.00879 12.1248C9.00557 12.1366 9.0037 12.1444 9.00298 12.1475C8.89254 12.6832 8.3712 13.0316 7.83286 12.9269C7.29072 12.8216 6.93663 12.2967 7.04199 11.7545C7.07889 11.5999 7.07889 11.5999 7.07889 11.5999C7.10039 11.5209 7.13257 11.4154 7.17883 11.2922C7.27039 11.0482 7.4227 10.7197 7.6684 10.3858C8.18091 9.68939 9.07801 9.01058 10.4928 9.00012C11.9156 8.9896 12.8238 9.672 13.3437 10.369C13.5934 10.7036 13.7498 11.0338 13.8445 11.2789C13.8923 11.4028 13.9259 11.5087 13.9484 11.5881C14.0815 12.0569 13.8924 12.7834 13.2109 12.9246C12.6736 13.0359 12.1478 12.6937 12.0311 12.159C12.0303 12.1558 12.0282 12.1473 12.0245 12.1343C12.0165 12.1064 12.0019 12.0594 11.9789 11.9996C11.9317 11.8775 11.8553 11.7185 11.7407 11.5649Z" fill="url(#paint1_radial_226_316)"/>
<path fill-rule="evenodd" clip-rule="evenodd" d="M8.06915 6.98761C7.47625 7.55049 7.11769 8.22774 6.97423 8.65811C6.88691 8.92009 6.60375 9.06167 6.34178 8.97434C6.07981 8.88702 5.93823 8.60386 6.02555 8.34189C6.21542 7.77226 6.65687 6.94951 7.38064 6.26239C8.1129 5.5672 9.1478 5 10.4999 5C10.776 5 10.9999 5.22386 10.9999 5.5C10.9999 5.77614 10.776 6 10.4999 6C9.45198 6 8.65355 6.4328 8.06915 6.98761Z" fill="url(#paint2_radial_226_316)"/>
<path fill-rule="evenodd" clip-rule="evenodd" d="M8.06915 6.98761C7.47625 7.55049 7.11769 8.22774 6.97423 8.65811C6.88691 8.92009 6.60375 9.06167 6.34178 8.97434C6.07981 8.88702 5.93823 8.60386 6.02555 8.34189C6.21542 7.77226 6.65687 6.94951 7.38064 6.26239C8.1129 5.5672 9.1478 5 10.4999 5C10.776 5 10.9999 5.22386 10.9999 5.5C10.9999 5.77614 10.776 6 10.4999 6C9.45198 6 8.65355 6.4328 8.06915 6.98761Z" fill="url(#paint3_radial_226_316)"/>
<path fill-rule="evenodd" clip-rule="evenodd" d="M23.9309 6.98761C24.5238 7.55049 24.8823 8.22774 25.0258 8.65811C25.1131 8.92009 25.3963 9.06167 25.6582 8.97434C25.9202 8.88702 26.0618 8.60386 25.9745 8.34189C25.7846 7.77226 25.3431 6.94951 24.6194 6.26239C23.8871 5.5672 22.8522 5 21.5001 5C21.224 5 21.0001 5.22386 21.0001 5.5C21.0001 5.77614 21.224 6 21.5001 6C22.548 6 23.3465 6.4328 23.9309 6.98761Z" fill="url(#paint4_radial_226_316)"/>
<path fill-rule="evenodd" clip-rule="evenodd" d="M23.9309 6.98761C24.5238 7.55049 24.8823 8.22774 25.0258 8.65811C25.1131 8.92009 25.3963 9.06167 25.6582 8.97434C25.9202 8.88702 26.0618 8.60386 25.9745 8.34189C25.7846 7.77226 25.3431 6.94951 24.6194 6.26239C23.8871 5.5672 22.8522 5 21.5001 5C21.224 5 21.0001 5.22386 21.0001 5.5C21.0001 5.77614 21.224 6 21.5001 6C22.548 6 23.3465 6.4328 23.9309 6.98761Z" fill="url(#paint5_radial_226_316)"/>
<defs>
<radialGradient id="paint0_radial_226_316" cx="0" cy="0" r="1" gradientUnits="userSpaceOnUse" gradientTransform="translate(21.5371 11.8359) rotate(90) scale(3.1875 4.31047)">
<stop offset="0.307692" stop-color="#452A3D"/>
<stop offset="0.626374" stop-color="#594052"/>
<stop offset="1" stop-color="#482C40"/>
</radialGradient>
<radialGradient id="paint1_radial_226_316" cx="0" cy="0" r="1" gradientUnits="userSpaceOnUse" gradientTransform="translate(10.5059 11.8359) rotate(90) scale(3.1875 4.31047)">
<stop offset="0.307692" stop-color="#452A3D"/>
<stop offset="0.626374" stop-color="#594052"/>
<stop offset="1" stop-color="#482C40"/>
</radialGradient>
<radialGradient id="paint2_radial_226_316" cx="0" cy="0" r="1" gradientUnits="userSpaceOnUse" gradientTransform="translate(9.8564 8.81565) rotate(-124.747) scale(3.41018 4.28513)">
<stop offset="0.552138" stop-color="#4A2F37"/>
<stop offset="0.822285" stop-color="#51394C"/>
<stop offset="0.881253" stop-color="#50394C"/>
<stop offset="1" stop-color="#4D3635"/>
</radialGradient>
<radialGradient id="paint3_radial_226_316" cx="0" cy="0" r="1" gradientUnits="userSpaceOnUse" gradientTransform="translate(10.7526 5.62374) rotate(-176.165) scale(0.413982 0.778569)">
<stop stop-color="#5A4950"/>
<stop offset="1" stop-color="#5D4C4F" stop-opacity="0"/>
</radialGradient>
<radialGradient id="paint4_radial_226_316" cx="0" cy="0" r="1" gradientUnits="userSpaceOnUse" gradientTransform="translate(22.2237 8.49804) rotate(-145.524) scale(3.94156 3.60988)">
<stop offset="0.641397" stop-color="#2F1F2A"/>
<stop offset="0.822285" stop-color="#51394C"/>
<stop offset="0.881253" stop-color="#50394C"/>
<stop offset="1" stop-color="#442E3E"/>
</radialGradient>
<radialGradient id="paint5_radial_226_316" cx="0" cy="0" r="1" gradientUnits="userSpaceOnUse" gradientTransform="translate(23.312 7.00006) rotate(129.805) scale(4.05269 3.26964)">
<stop offset="0.645531" stop-color="#362530" stop-opacity="0"/>
<stop offset="1" stop-color="#342330"/>
</radialGradient>
</defs>
</svg>
