<svg width="32" height="32" viewBox="0 0 32 32" fill="none" xmlns="http://www.w3.org/2000/svg">
<path d="M8.77746 15.062L6.8184 16.5857C6.12791 17.1227 5.12937 16.577 5.20856 15.7058L5.3821 13.7969C5.45377 13.0085 5.05364 12.252 4.3616 11.8676L2.83865 11.0215C2.10222 10.6123 2.17072 9.53171 2.9529 9.21884L4.99409 8.40236C5.62162 8.15135 6.07992 7.60038 6.21247 6.93764L6.56137 5.19315C6.73089 4.34555 7.82332 4.09776 8.34195 4.78927L9.33038 6.10717C9.74659 6.66211 10.4206 6.96176 11.1115 6.89896L13.2598 6.70365C14.1227 6.62521 14.6702 7.60642 14.1503 8.29955L13.1744 9.60081C12.7556 10.1592 12.6582 10.8955 12.9174 11.5436L13.8144 13.786C14.1093 14.5233 13.4685 15.2937 12.6898 15.138L10.3976 14.6795C9.82762 14.5655 9.23627 14.7051 8.77746 15.062Z" fill="url(#paint0_linear_267_2420)"/>
<path d="M8.77746 15.062L6.8184 16.5857C6.12791 17.1227 5.12937 16.577 5.20856 15.7058L5.3821 13.7969C5.45377 13.0085 5.05364 12.252 4.3616 11.8676L2.83865 11.0215C2.10222 10.6123 2.17072 9.53171 2.9529 9.21884L4.99409 8.40236C5.62162 8.15135 6.07992 7.60038 6.21247 6.93764L6.56137 5.19315C6.73089 4.34555 7.82332 4.09776 8.34195 4.78927L9.33038 6.10717C9.74659 6.66211 10.4206 6.96176 11.1115 6.89896L13.2598 6.70365C14.1227 6.62521 14.6702 7.60642 14.1503 8.29955L13.1744 9.60081C12.7556 10.1592 12.6582 10.8955 12.9174 11.5436L13.8144 13.786C14.1093 14.5233 13.4685 15.2937 12.6898 15.138L10.3976 14.6795C9.82762 14.5655 9.23627 14.7051 8.77746 15.062Z" fill="url(#paint1_radial_267_2420)"/>
<path d="M8.77746 15.062L6.8184 16.5857C6.12791 17.1227 5.12937 16.577 5.20856 15.7058L5.3821 13.7969C5.45377 13.0085 5.05364 12.252 4.3616 11.8676L2.83865 11.0215C2.10222 10.6123 2.17072 9.53171 2.9529 9.21884L4.99409 8.40236C5.62162 8.15135 6.07992 7.60038 6.21247 6.93764L6.56137 5.19315C6.73089 4.34555 7.82332 4.09776 8.34195 4.78927L9.33038 6.10717C9.74659 6.66211 10.4206 6.96176 11.1115 6.89896L13.2598 6.70365C14.1227 6.62521 14.6702 7.60642 14.1503 8.29955L13.1744 9.60081C12.7556 10.1592 12.6582 10.8955 12.9174 11.5436L13.8144 13.786C14.1093 14.5233 13.4685 15.2937 12.6898 15.138L10.3976 14.6795C9.82762 14.5655 9.23627 14.7051 8.77746 15.062Z" fill="url(#paint2_radial_267_2420)"/>
<path d="M23.2225 15.062L25.1816 16.5857C25.8721 17.1227 26.8706 16.577 26.7914 15.7058L26.6179 13.7969C26.5462 13.0085 26.9464 12.252 27.6384 11.8676L29.1613 11.0215C29.8978 10.6123 29.8293 9.53171 29.0471 9.21884L27.0059 8.40236C26.3784 8.15135 25.9201 7.60038 25.7875 6.93764L25.4386 5.19315C25.2691 4.34555 24.1767 4.09776 23.658 4.78927L22.6696 6.10717C22.2534 6.66211 21.5794 6.96176 20.8885 6.89896L18.7402 6.70365C17.8773 6.62521 17.3298 7.60642 17.8497 8.29955L18.8256 9.60081C19.2444 10.1592 19.3418 10.8955 19.0826 11.5436L18.1856 13.786C17.8907 14.5233 18.5315 15.2937 19.3102 15.138L21.6024 14.6795C22.1724 14.5655 22.7637 14.7051 23.2225 15.062Z" fill="url(#paint3_linear_267_2420)"/>
<path d="M23.2225 15.062L25.1816 16.5857C25.8721 17.1227 26.8706 16.577 26.7914 15.7058L26.6179 13.7969C26.5462 13.0085 26.9464 12.252 27.6384 11.8676L29.1613 11.0215C29.8978 10.6123 29.8293 9.53171 29.0471 9.21884L27.0059 8.40236C26.3784 8.15135 25.9201 7.60038 25.7875 6.93764L25.4386 5.19315C25.2691 4.34555 24.1767 4.09776 23.658 4.78927L22.6696 6.10717C22.2534 6.66211 21.5794 6.96176 20.8885 6.89896L18.7402 6.70365C17.8773 6.62521 17.3298 7.60642 17.8497 8.29955L18.8256 9.60081C19.2444 10.1592 19.3418 10.8955 19.0826 11.5436L18.1856 13.786C17.8907 14.5233 18.5315 15.2937 19.3102 15.138L21.6024 14.6795C22.1724 14.5655 22.7637 14.7051 23.2225 15.062Z" fill="url(#paint4_radial_267_2420)"/>
<path d="M23.2225 15.062L25.1816 16.5857C25.8721 17.1227 26.8706 16.577 26.7914 15.7058L26.6179 13.7969C26.5462 13.0085 26.9464 12.252 27.6384 11.8676L29.1613 11.0215C29.8978 10.6123 29.8293 9.53171 29.0471 9.21884L27.0059 8.40236C26.3784 8.15135 25.9201 7.60038 25.7875 6.93764L25.4386 5.19315C25.2691 4.34555 24.1767 4.09776 23.658 4.78927L22.6696 6.10717C22.2534 6.66211 21.5794 6.96176 20.8885 6.89896L18.7402 6.70365C17.8773 6.62521 17.3298 7.60642 17.8497 8.29955L18.8256 9.60081C19.2444 10.1592 19.3418 10.8955 19.0826 11.5436L18.1856 13.786C17.8907 14.5233 18.5315 15.2937 19.3102 15.138L21.6024 14.6795C22.1724 14.5655 22.7637 14.7051 23.2225 15.062Z" fill="url(#paint5_radial_267_2420)"/>
<path d="M23.2225 15.062L25.1816 16.5857C25.8721 17.1227 26.8706 16.577 26.7914 15.7058L26.6179 13.7969C26.5462 13.0085 26.9464 12.252 27.6384 11.8676L29.1613 11.0215C29.8978 10.6123 29.8293 9.53171 29.0471 9.21884L27.0059 8.40236C26.3784 8.15135 25.9201 7.60038 25.7875 6.93764L25.4386 5.19315C25.2691 4.34555 24.1767 4.09776 23.658 4.78927L22.6696 6.10717C22.2534 6.66211 21.5794 6.96176 20.8885 6.89896L18.7402 6.70365C17.8773 6.62521 17.3298 7.60642 17.8497 8.29955L18.8256 9.60081C19.2444 10.1592 19.3418 10.8955 19.0826 11.5436L18.1856 13.786C17.8907 14.5233 18.5315 15.2937 19.3102 15.138L21.6024 14.6795C22.1724 14.5655 22.7637 14.7051 23.2225 15.062Z" fill="url(#paint6_radial_267_2420)"/>
<path d="M23.2225 15.062L25.1816 16.5857C25.8721 17.1227 26.8706 16.577 26.7914 15.7058L26.6179 13.7969C26.5462 13.0085 26.9464 12.252 27.6384 11.8676L29.1613 11.0215C29.8978 10.6123 29.8293 9.53171 29.0471 9.21884L27.0059 8.40236C26.3784 8.15135 25.9201 7.60038 25.7875 6.93764L25.4386 5.19315C25.2691 4.34555 24.1767 4.09776 23.658 4.78927L22.6696 6.10717C22.2534 6.66211 21.5794 6.96176 20.8885 6.89896L18.7402 6.70365C17.8773 6.62521 17.3298 7.60642 17.8497 8.29955L18.8256 9.60081C19.2444 10.1592 19.3418 10.8955 19.0826 11.5436L18.1856 13.786C17.8907 14.5233 18.5315 15.2937 19.3102 15.138L21.6024 14.6795C22.1724 14.5655 22.7637 14.7051 23.2225 15.062Z" fill="url(#paint7_radial_267_2420)"/>
<path d="M23.2225 15.062L25.1816 16.5857C25.8721 17.1227 26.8706 16.577 26.7914 15.7058L26.6179 13.7969C26.5462 13.0085 26.9464 12.252 27.6384 11.8676L29.1613 11.0215C29.8978 10.6123 29.8293 9.53171 29.0471 9.21884L27.0059 8.40236C26.3784 8.15135 25.9201 7.60038 25.7875 6.93764L25.4386 5.19315C25.2691 4.34555 24.1767 4.09776 23.658 4.78927L22.6696 6.10717C22.2534 6.66211 21.5794 6.96176 20.8885 6.89896L18.7402 6.70365C17.8773 6.62521 17.3298 7.60642 17.8497 8.29955L18.8256 9.60081C19.2444 10.1592 19.3418 10.8955 19.0826 11.5436L18.1856 13.786C17.8907 14.5233 18.5315 15.2937 19.3102 15.138L21.6024 14.6795C22.1724 14.5655 22.7637 14.7051 23.2225 15.062Z" fill="url(#paint8_radial_267_2420)"/>
<path d="M23.2225 15.062L25.1816 16.5857C25.8721 17.1227 26.8706 16.577 26.7914 15.7058L26.6179 13.7969C26.5462 13.0085 26.9464 12.252 27.6384 11.8676L29.1613 11.0215C29.8978 10.6123 29.8293 9.53171 29.0471 9.21884L27.0059 8.40236C26.3784 8.15135 25.9201 7.60038 25.7875 6.93764L25.4386 5.19315C25.2691 4.34555 24.1767 4.09776 23.658 4.78927L22.6696 6.10717C22.2534 6.66211 21.5794 6.96176 20.8885 6.89896L18.7402 6.70365C17.8773 6.62521 17.3298 7.60642 17.8497 8.29955L18.8256 9.60081C19.2444 10.1592 19.3418 10.8955 19.0826 11.5436L18.1856 13.786C17.8907 14.5233 18.5315 15.2937 19.3102 15.138L21.6024 14.6795C22.1724 14.5655 22.7637 14.7051 23.2225 15.062Z" fill="url(#paint9_radial_267_2420)"/>
<defs>
<linearGradient id="paint0_linear_267_2420" x1="7.5" y1="3" x2="10" y2="17" gradientUnits="userSpaceOnUse">
<stop stop-color="#7912B2"/>
<stop offset="1" stop-color="#CF1DA1"/>
</linearGradient>
<radialGradient id="paint1_radial_267_2420" cx="0" cy="0" r="1" gradientUnits="userSpaceOnUse" gradientTransform="translate(9.20619 5.85915) rotate(135) scale(0.679562 2.48129)">
<stop stop-color="#A82D9C"/>
<stop offset="1" stop-color="#A82D9C" stop-opacity="0"/>
</radialGradient>
<radialGradient id="paint2_radial_267_2420" cx="0" cy="0" r="1" gradientUnits="userSpaceOnUse" gradientTransform="translate(12.2565 6.82019) rotate(87.6141) scale(0.50185 3.09894)">
<stop stop-color="#A82D9C"/>
<stop offset="1" stop-color="#A82D9C" stop-opacity="0"/>
</radialGradient>
<linearGradient id="paint3_linear_267_2420" x1="22" y1="4.5" x2="22.5" y2="16.5" gradientUnits="userSpaceOnUse">
<stop stop-color="#7912B2"/>
<stop offset="1" stop-color="#CF1DA1"/>
</linearGradient>
<radialGradient id="paint4_radial_267_2420" cx="0" cy="0" r="1" gradientUnits="userSpaceOnUse" gradientTransform="translate(28.9734 9.19478) rotate(116.565) scale(0.31087 2.20718)">
<stop stop-color="#B51AA6"/>
<stop offset="0.432292" stop-color="#B51AA6" stop-opacity="0.21875"/>
<stop offset="1" stop-color="#B51AA6" stop-opacity="0"/>
</radialGradient>
<radialGradient id="paint5_radial_267_2420" cx="0" cy="0" r="1" gradientUnits="userSpaceOnUse" gradientTransform="translate(27.6141 8.66958) rotate(116.456) scale(0.512027 2.14062)">
<stop stop-color="#B51AA6"/>
<stop offset="0.600176" stop-color="#B51AA6" stop-opacity="0.21875"/>
<stop offset="1" stop-color="#B51AA6" stop-opacity="0"/>
</radialGradient>
<radialGradient id="paint6_radial_267_2420" cx="0" cy="0" r="1" gradientUnits="userSpaceOnUse" gradientTransform="translate(29.5174 9.29171) rotate(112.521) scale(0.554675 2.31891)">
<stop offset="0.145752" stop-color="#B51AA6"/>
<stop offset="0.761264" stop-color="#B51AA6" stop-opacity="0.21875"/>
<stop offset="1" stop-color="#B51AA6" stop-opacity="0"/>
</radialGradient>
<radialGradient id="paint7_radial_267_2420" cx="0" cy="0" r="1" gradientUnits="userSpaceOnUse" gradientTransform="translate(26.5034 8.0539) rotate(127.504) scale(0.543309 1.27284)">
<stop stop-color="#B51AA6"/>
<stop offset="0.565981" stop-color="#B51AA6" stop-opacity="0.21875"/>
<stop offset="0.841141" stop-color="#B51AA6" stop-opacity="0"/>
</radialGradient>
<radialGradient id="paint8_radial_267_2420" cx="0" cy="0" r="1" gradientUnits="userSpaceOnUse" gradientTransform="translate(25.9813 7.50805) rotate(152.269) scale(0.416143 1.29012)">
<stop stop-color="#B51AA6"/>
<stop offset="0.546247" stop-color="#B51AA6" stop-opacity="0.21875"/>
<stop offset="1" stop-color="#B51AA6" stop-opacity="0"/>
</radialGradient>
<radialGradient id="paint9_radial_267_2420" cx="0" cy="0" r="1" gradientUnits="userSpaceOnUse" gradientTransform="translate(25.6433 6.12997) rotate(168.178) scale(0.549015 2.98829)">
<stop offset="0.00764343" stop-color="#B51AA6"/>
<stop offset="0.704661" stop-color="#B51AA6" stop-opacity="0.21875"/>
<stop offset="1" stop-color="#B51AA6" stop-opacity="0"/>
</radialGradient>
</defs>
</svg>
