<svg width="32" height="32" viewBox="0 0 32 32" fill="none" xmlns="http://www.w3.org/2000/svg">
<path d="M10.5 15.5C12.8472 15.5 14.75 13.5972 14.75 11.25C14.75 8.90279 12.8472 7 10.5 7C8.15279 7 6.25 8.90279 6.25 11.25C6.25 13.5972 8.15279 15.5 10.5 15.5Z" fill="white"/>
<path d="M21.5 15.5C23.8472 15.5 25.75 13.5972 25.75 11.25C25.75 8.90279 23.8472 7 21.5 7C19.1528 7 17.25 8.90279 17.25 11.25C17.25 13.5972 19.1528 15.5 21.5 15.5Z" fill="white"/>
<path d="M13.25 11.25C13.25 12.4926 12.2426 13.5 11 13.5C9.75736 13.5 8.75 12.4926 8.75 11.25C8.75 10.0074 9.75736 9 11 9C12.2426 9 13.25 10.0074 13.25 11.25Z" fill="url(#paint0_linear_309_1109)"/>
<path d="M23.25 11.25C23.25 12.4926 22.2426 13.5 21 13.5C19.7574 13.5 18.75 12.4926 18.75 11.25C18.75 10.0074 19.7574 9 21 9C22.2426 9 23.25 10.0074 23.25 11.25Z" fill="url(#paint1_linear_309_1109)"/>
<defs>
<linearGradient id="paint0_linear_309_1109" x1="16.5" y1="9.25" x2="16.5" y2="13.25" gradientUnits="userSpaceOnUse">
<stop stop-color="#553B3E"/>
<stop offset="1" stop-color="#3D2432"/>
</linearGradient>
<linearGradient id="paint1_linear_309_1109" x1="16.5" y1="9.25" x2="16.5" y2="13.25" gradientUnits="userSpaceOnUse">
<stop stop-color="#553B3E"/>
<stop offset="1" stop-color="#3D2432"/>
</linearGradient>
</defs>
</svg>
