<svg width="32" height="32" viewBox="0 0 32 32" fill="none" xmlns="http://www.w3.org/2000/svg">
<path fill-rule="evenodd" clip-rule="evenodd" d="M22.7719 9.56488C22.5633 9.28531 22.2176 8.99505 21.5388 9.00007C20.852 9.00514 20.5109 9.29894 20.3105 9.57124C20.1997 9.72171 20.127 9.87659 20.0825 9.99496C20.0608 10.0529 20.0473 10.0983 20.04 10.1248C20.0368 10.1366 20.035 10.1444 20.0342 10.1475C19.9238 10.6832 19.4024 11.0316 18.8641 10.9269C18.322 10.8216 17.9679 10.2967 18.0732 9.75455C18.1101 9.59993 18.1101 9.59993 18.1101 9.59993C18.1316 9.52087 18.1638 9.41541 18.2101 9.29215C18.3016 9.04822 18.4539 8.7197 18.6997 8.38582C19.2122 7.68939 20.1093 7.01058 21.524 7.00012C22.9468 6.9896 23.855 7.672 24.375 8.36897C24.6246 8.70361 24.7811 9.03384 24.8757 9.2789C24.9236 9.40276 24.9572 9.50875 24.9797 9.58808C25.1128 10.0569 24.9237 10.7834 24.2421 10.9246C23.7049 11.0359 23.1791 10.6937 23.0623 10.159C23.0615 10.1558 23.0594 10.1473 23.0557 10.1343C23.0478 10.1064 23.0332 10.0594 23.0101 9.99963C22.9629 9.87751 22.8865 9.71851 22.7719 9.56488Z" fill="url(#paint0_radial_267_2450)"/>
<path fill-rule="evenodd" clip-rule="evenodd" d="M11.7407 9.56488C11.5321 9.28531 11.1864 8.99505 10.5076 9.00007C9.8208 9.00514 9.47962 9.29894 9.27924 9.57124C9.1685 9.72171 9.09571 9.87659 9.05128 9.99496C9.02955 10.0529 9.01601 10.0983 9.00879 10.1248C9.00557 10.1366 9.0037 10.1444 9.00298 10.1475C8.89254 10.6832 8.3712 11.0316 7.83286 10.9269C7.29072 10.8216 6.93663 10.2967 7.04199 9.75455C7.07889 9.59993 7.07889 9.59993 7.07889 9.59993C7.10039 9.52087 7.13257 9.41541 7.17883 9.29215C7.27039 9.04822 7.4227 8.7197 7.6684 8.38582C8.18091 7.68939 9.07801 7.01058 10.4928 7.00012C11.9156 6.9896 12.8238 7.672 13.3437 8.36897C13.5934 8.70361 13.7498 9.03384 13.8445 9.2789C13.8923 9.40276 13.9259 9.50875 13.9484 9.58808C14.0815 10.0569 13.8924 10.7834 13.2109 10.9246C12.6736 11.0359 12.1478 10.6937 12.0311 10.159C12.0303 10.1558 12.0282 10.1473 12.0245 10.1343C12.0165 10.1064 12.0019 10.0594 11.9789 9.99963C11.9317 9.87751 11.8553 9.71851 11.7407 9.56488Z" fill="url(#paint1_radial_267_2450)"/>
<path d="M8 16L4.6302 19.3698C3.75264 20.2474 2.31246 20.1875 1.51081 19.2401C0.798161 18.3978 0.850067 17.1499 1.6302 16.3698L5 13C5.82843 12.1716 7.17157 12.1716 8 13C8.82843 13.8284 8.82843 15.1716 8 16Z" fill="url(#paint2_radial_267_2450)"/>
<path d="M8 16L4.6302 19.3698C3.75264 20.2474 2.31246 20.1875 1.51081 19.2401C0.798161 18.3978 0.850067 17.1499 1.6302 16.3698L5 13C5.82843 12.1716 7.17157 12.1716 8 13C8.82843 13.8284 8.82843 15.1716 8 16Z" fill="url(#paint3_radial_267_2450)"/>
<path d="M8 16L4.6302 19.3698C3.75264 20.2474 2.31246 20.1875 1.51081 19.2401C0.798161 18.3978 0.850067 17.1499 1.6302 16.3698L5 13C5.82843 12.1716 7.17157 12.1716 8 13C8.82843 13.8284 8.82843 15.1716 8 16Z" fill="url(#paint4_radial_267_2450)"/>
<path d="M24.25 16L27.6198 19.3698C28.4974 20.2474 29.9375 20.1875 30.7392 19.2401C31.4518 18.3978 31.3999 17.1499 30.6198 16.3698L27.25 13C26.4216 12.1716 25.0784 12.1716 24.25 13C23.4216 13.8284 23.4216 15.1716 24.25 16Z" fill="url(#paint5_radial_267_2450)"/>
<defs>
<radialGradient id="paint0_radial_267_2450" cx="0" cy="0" r="1" gradientUnits="userSpaceOnUse" gradientTransform="translate(21.5371 9.83594) rotate(90) scale(3.1875 4.31047)">
<stop offset="0.307692" stop-color="#452A3D"/>
<stop offset="0.626374" stop-color="#594052"/>
<stop offset="1" stop-color="#482C40"/>
</radialGradient>
<radialGradient id="paint1_radial_267_2450" cx="0" cy="0" r="1" gradientUnits="userSpaceOnUse" gradientTransform="translate(10.5059 9.83594) rotate(90) scale(3.1875 4.31047)">
<stop offset="0.307692" stop-color="#452A3D"/>
<stop offset="0.626374" stop-color="#594052"/>
<stop offset="1" stop-color="#482C40"/>
</radialGradient>
<radialGradient id="paint2_radial_267_2450" cx="0" cy="0" r="1" gradientUnits="userSpaceOnUse" gradientTransform="translate(8 14) rotate(147.529) scale(6.5192 2.96814)">
<stop stop-color="#508FFF"/>
<stop offset="1" stop-color="#3D5BF1"/>
</radialGradient>
<radialGradient id="paint3_radial_267_2450" cx="0" cy="0" r="1" gradientUnits="userSpaceOnUse" gradientTransform="translate(5.06363 17.0291) rotate(137.675) scale(3.68974 1.76433)">
<stop stop-color="#4478FF"/>
<stop offset="1" stop-color="#4678FF" stop-opacity="0"/>
</radialGradient>
<radialGradient id="paint4_radial_267_2450" cx="0" cy="0" r="1" gradientUnits="userSpaceOnUse" gradientTransform="translate(7.21213 13.9454) rotate(42.7094) scale(1.95269 1.02492)">
<stop stop-color="#5190FF"/>
<stop offset="1" stop-color="#5190FF" stop-opacity="0"/>
</radialGradient>
<radialGradient id="paint5_radial_267_2450" cx="0" cy="0" r="1" gradientUnits="userSpaceOnUse" gradientTransform="translate(27.6864 15.0222) rotate(47.9273) scale(5.03284 2.39389)">
<stop stop-color="#5092FF"/>
<stop offset="1" stop-color="#3F5FFF"/>
</radialGradient>
</defs>
</svg>
