<svg width="32" height="32" viewBox="0 0 32 32" fill="none" xmlns="http://www.w3.org/2000/svg">
<path d="M10.5 17C12.9853 17 15 14.9853 15 12.5C15 10.0147 12.9853 8 10.5 8C8.01472 8 6 10.0147 6 12.5C6 14.9853 8.01472 17 10.5 17Z" fill="white"/>
<path d="M21.5 17C23.9853 17 26 14.9853 26 12.5C26 10.0147 23.9853 8 21.5 8C19.0147 8 17 10.0147 17 12.5C17 14.9853 19.0147 17 21.5 17Z" fill="white"/>
<path d="M12 15C13.1046 15 14 14.1046 14 13C14 11.8954 13.1046 11 12 11C10.8954 11 10 11.8954 10 13C10 14.1046 10.8954 15 12 15Z" fill="url(#paint0_linear_226_384)"/>
<path d="M20 15C21.1046 15 22 14.1046 22 13C22 11.8954 21.1046 11 20 11C18.8954 11 18 11.8954 18 13C18 14.1046 18.8954 15 20 15Z" fill="url(#paint1_linear_226_384)"/>
<path fill-rule="evenodd" clip-rule="evenodd" d="M10.9774 6.06741L10.9767 6.06456L10.9803 6.07739C10.9841 6.09082 10.991 6.11401 11.0013 6.14556C11.0221 6.20881 11.0562 6.30465 11.1068 6.42216C11.2088 6.65891 11.3728 6.97319 11.6193 7.28447C12.099 7.89047 12.8961 8.5 14.25 8.5C14.6642 8.5 15 8.83579 15 9.25C15 9.66421 14.6642 10 14.25 10C12.3539 10 11.151 9.10953 10.4432 8.21553C10.0959 7.77681 9.86935 7.34109 9.7291 7.01534C9.6586 6.8516 9.6088 6.71307 9.57579 6.61226C9.55927 6.56177 9.54687 6.52051 9.53814 6.49C9.53378 6.47473 9.53032 6.46214 9.52771 6.4524L9.52444 6.43995L9.52326 6.43536L9.52279 6.43349L9.52239 6.4319C9.42193 6.03006 9.66625 5.62285 10.0681 5.52239C10.4687 5.42223 10.8747 5.66483 10.9767 6.06456L10.977 6.06573L10.9774 6.06741Z" fill="url(#paint2_radial_226_384)"/>
<path fill-rule="evenodd" clip-rule="evenodd" d="M10.9774 6.06741L10.9767 6.06456L10.9803 6.07739C10.9841 6.09082 10.991 6.11401 11.0013 6.14556C11.0221 6.20881 11.0562 6.30465 11.1068 6.42216C11.2088 6.65891 11.3728 6.97319 11.6193 7.28447C12.099 7.89047 12.8961 8.5 14.25 8.5C14.6642 8.5 15 8.83579 15 9.25C15 9.66421 14.6642 10 14.25 10C12.3539 10 11.151 9.10953 10.4432 8.21553C10.0959 7.77681 9.86935 7.34109 9.7291 7.01534C9.6586 6.8516 9.6088 6.71307 9.57579 6.61226C9.55927 6.56177 9.54687 6.52051 9.53814 6.49C9.53378 6.47473 9.53032 6.46214 9.52771 6.4524L9.52444 6.43995L9.52326 6.43536L9.52279 6.43349L9.52239 6.4319C9.42193 6.03006 9.66625 5.62285 10.0681 5.52239C10.4687 5.42223 10.8747 5.66483 10.9767 6.06456L10.977 6.06573L10.9774 6.06741Z" fill="url(#paint3_radial_226_384)"/>
<path fill-rule="evenodd" clip-rule="evenodd" d="M10.9774 6.06741L10.9767 6.06456L10.9803 6.07739C10.9841 6.09082 10.991 6.11401 11.0013 6.14556C11.0221 6.20881 11.0562 6.30465 11.1068 6.42216C11.2088 6.65891 11.3728 6.97319 11.6193 7.28447C12.099 7.89047 12.8961 8.5 14.25 8.5C14.6642 8.5 15 8.83579 15 9.25C15 9.66421 14.6642 10 14.25 10C12.3539 10 11.151 9.10953 10.4432 8.21553C10.0959 7.77681 9.86935 7.34109 9.7291 7.01534C9.6586 6.8516 9.6088 6.71307 9.57579 6.61226C9.55927 6.56177 9.54687 6.52051 9.53814 6.49C9.53378 6.47473 9.53032 6.46214 9.52771 6.4524L9.52444 6.43995L9.52326 6.43536L9.52279 6.43349L9.52239 6.4319C9.42193 6.03006 9.66625 5.62285 10.0681 5.52239C10.4687 5.42223 10.8747 5.66483 10.9767 6.06456L10.977 6.06573L10.9774 6.06741Z" fill="url(#paint4_radial_226_384)"/>
<path fill-rule="evenodd" clip-rule="evenodd" d="M21.0226 6.06741L21.0233 6.06456L21.0197 6.07739C21.0159 6.09082 21.009 6.11401 20.9987 6.14556C20.9779 6.20881 20.9438 6.30465 20.8932 6.42216C20.7912 6.65891 20.6272 6.97319 20.3807 7.28447C19.901 7.89047 19.1039 8.5 17.75 8.5C17.3358 8.5 17 8.83579 17 9.25C17 9.66421 17.3358 10 17.75 10C19.6461 10 20.849 9.10953 21.5568 8.21553C21.9041 7.77681 22.1306 7.34109 22.2709 7.01534C22.3414 6.8516 22.3912 6.71307 22.4242 6.61226C22.4407 6.56177 22.4531 6.52051 22.4619 6.49C22.4662 6.47473 22.4697 6.46214 22.4723 6.4524L22.4756 6.43995L22.4767 6.43536L22.4772 6.43349L22.4776 6.4319C22.5781 6.03006 22.3338 5.62285 21.9319 5.52239C21.5313 5.42223 21.1253 5.66483 21.0233 6.06456L21.023 6.06573L21.0226 6.06741Z" fill="url(#paint5_linear_226_384)"/>
<path fill-rule="evenodd" clip-rule="evenodd" d="M21.0226 6.06741L21.0233 6.06456L21.0197 6.07739C21.0159 6.09082 21.009 6.11401 20.9987 6.14556C20.9779 6.20881 20.9438 6.30465 20.8932 6.42216C20.7912 6.65891 20.6272 6.97319 20.3807 7.28447C19.901 7.89047 19.1039 8.5 17.75 8.5C17.3358 8.5 17 8.83579 17 9.25C17 9.66421 17.3358 10 17.75 10C19.6461 10 20.849 9.10953 21.5568 8.21553C21.9041 7.77681 22.1306 7.34109 22.2709 7.01534C22.3414 6.8516 22.3912 6.71307 22.4242 6.61226C22.4407 6.56177 22.4531 6.52051 22.4619 6.49C22.4662 6.47473 22.4697 6.46214 22.4723 6.4524L22.4756 6.43995L22.4767 6.43536L22.4772 6.43349L22.4776 6.4319C22.5781 6.03006 22.3338 5.62285 21.9319 5.52239C21.5313 5.42223 21.1253 5.66483 21.0233 6.06456L21.023 6.06573L21.0226 6.06741Z" fill="url(#paint6_radial_226_384)"/>
<path fill-rule="evenodd" clip-rule="evenodd" d="M21.0226 6.06741L21.0233 6.06456L21.0197 6.07739C21.0159 6.09082 21.009 6.11401 20.9987 6.14556C20.9779 6.20881 20.9438 6.30465 20.8932 6.42216C20.7912 6.65891 20.6272 6.97319 20.3807 7.28447C19.901 7.89047 19.1039 8.5 17.75 8.5C17.3358 8.5 17 8.83579 17 9.25C17 9.66421 17.3358 10 17.75 10C19.6461 10 20.849 9.10953 21.5568 8.21553C21.9041 7.77681 22.1306 7.34109 22.2709 7.01534C22.3414 6.8516 22.3912 6.71307 22.4242 6.61226C22.4407 6.56177 22.4531 6.52051 22.4619 6.49C22.4662 6.47473 22.4697 6.46214 22.4723 6.4524L22.4756 6.43995L22.4767 6.43536L22.4772 6.43349L22.4776 6.4319C22.5781 6.03006 22.3338 5.62285 21.9319 5.52239C21.5313 5.42223 21.1253 5.66483 21.0233 6.06456L21.023 6.06573L21.0226 6.06741Z" fill="url(#paint7_radial_226_384)"/>
<path fill-rule="evenodd" clip-rule="evenodd" d="M21.0226 6.06741L21.0233 6.06456L21.0197 6.07739C21.0159 6.09082 21.009 6.11401 20.9987 6.14556C20.9779 6.20881 20.9438 6.30465 20.8932 6.42216C20.7912 6.65891 20.6272 6.97319 20.3807 7.28447C19.901 7.89047 19.1039 8.5 17.75 8.5C17.3358 8.5 17 8.83579 17 9.25C17 9.66421 17.3358 10 17.75 10C19.6461 10 20.849 9.10953 21.5568 8.21553C21.9041 7.77681 22.1306 7.34109 22.2709 7.01534C22.3414 6.8516 22.3912 6.71307 22.4242 6.61226C22.4407 6.56177 22.4531 6.52051 22.4619 6.49C22.4662 6.47473 22.4697 6.46214 22.4723 6.4524L22.4756 6.43995L22.4767 6.43536L22.4772 6.43349L22.4776 6.4319C22.5781 6.03006 22.3338 5.62285 21.9319 5.52239C21.5313 5.42223 21.1253 5.66483 21.0233 6.06456L21.023 6.06573L21.0226 6.06741Z" fill="url(#paint8_radial_226_384)" fill-opacity="0.6"/>
<defs>
<linearGradient id="paint0_linear_226_384" x1="20.6154" y1="11" x2="19.9265" y2="15.0302" gradientUnits="userSpaceOnUse">
<stop stop-color="#553B3E"/>
<stop offset="1" stop-color="#3D2432"/>
</linearGradient>
<linearGradient id="paint1_linear_226_384" x1="20.6154" y1="11" x2="19.9265" y2="15.0302" gradientUnits="userSpaceOnUse">
<stop stop-color="#553B3E"/>
<stop offset="1" stop-color="#3D2432"/>
</linearGradient>
<radialGradient id="paint2_radial_226_384" cx="0" cy="0" r="1" gradientUnits="userSpaceOnUse" gradientTransform="translate(13.2788 6.31726) rotate(-49.1446) scale(4.06762 5.81684)">
<stop offset="0.423728" stop-color="#3B2A3A"/>
<stop offset="0.556723" stop-color="#4D414B"/>
<stop offset="0.64586" stop-color="#4D414B"/>
<stop offset="0.791667" stop-color="#481E58"/>
<stop offset="0.833333" stop-color="#49404A"/>
</radialGradient>
<radialGradient id="paint3_radial_226_384" cx="0" cy="0" r="1" gradientUnits="userSpaceOnUse" gradientTransform="translate(10.7365 9.30957) rotate(-53.441) scale(7.03062 6.42911)">
<stop offset="0.484115" stop-color="#362839" stop-opacity="0"/>
<stop offset="0.591432" stop-color="#362839"/>
</radialGradient>
<radialGradient id="paint4_radial_226_384" cx="0" cy="0" r="1" gradientUnits="userSpaceOnUse" gradientTransform="translate(14.5499 9.11773) rotate(-135) scale(0.789533)">
<stop stop-color="#645560"/>
<stop offset="1" stop-color="#4F434C" stop-opacity="0"/>
</radialGradient>
<linearGradient id="paint5_linear_226_384" x1="20.5" y1="6" x2="20.5" y2="7.5" gradientUnits="userSpaceOnUse">
<stop offset="0.0299084" stop-color="#524049"/>
<stop offset="1" stop-color="#4A2C42"/>
</linearGradient>
<radialGradient id="paint6_radial_226_384" cx="0" cy="0" r="1" gradientUnits="userSpaceOnUse" gradientTransform="translate(18.7212 6.31726) rotate(-130.855) scale(4.06762 5.81684)">
<stop offset="0.423728" stop-color="#3B2A3A"/>
<stop offset="0.556723" stop-color="#4D414B"/>
<stop offset="0.64586" stop-color="#4D414B"/>
<stop offset="0.791667" stop-color="#481E58"/>
<stop offset="0.833333" stop-color="#49404A"/>
</radialGradient>
<radialGradient id="paint7_radial_226_384" cx="0" cy="0" r="1" gradientUnits="userSpaceOnUse" gradientTransform="translate(21.2635 9.30957) rotate(-126.559) scale(7.03062 6.42911)">
<stop offset="0.484115" stop-color="#362839" stop-opacity="0"/>
<stop offset="0.591432" stop-color="#362839"/>
</radialGradient>
<radialGradient id="paint8_radial_226_384" cx="0" cy="0" r="1" gradientUnits="userSpaceOnUse" gradientTransform="translate(21.905 5.97917) rotate(123.071) scale(0.563326 0.947149)">
<stop stop-color="#645560"/>
<stop offset="1" stop-color="#4F434C" stop-opacity="0"/>
</radialGradient>
</defs>
</svg>
