<svg width="32" height="32" viewBox="0 0 32 32" fill="none" xmlns="http://www.w3.org/2000/svg">
<path fill-rule="evenodd" clip-rule="evenodd" d="M6 11.5C6 11.331 6.00932 11.1642 6.02746 11H14.9725C14.9907 11.1642 15 11.331 15 11.5C15 13.9853 12.9853 16 10.5 16C8.01472 16 6 13.9853 6 11.5ZM17 11.5C17 11.331 17.0093 11.1642 17.0275 11H25.9725C25.9907 11.1642 26 11.331 26 11.5C26 13.9853 23.9853 16 21.5 16C19.0147 16 17 13.9853 17 11.5Z" fill="white"/>
<path fill-rule="evenodd" clip-rule="evenodd" d="M10 11.25C10 11.1655 10.0046 11.0821 10.0137 11H14.4863C14.4954 11.0821 14.5 11.1655 14.5 11.25C14.5 12.4945 13.4945 13.5 12.25 13.5C11.0055 13.49 10 12.4845 10 11.25ZM21 11.25C21 11.1655 21.0046 11.0821 21.0137 11H25.4863C25.4954 11.0821 25.5 11.1655 25.5 11.25C25.5 12.4945 24.4945 13.5 23.25 13.5C22.0055 13.49 21 12.4845 21 11.25Z" fill="url(#paint0_linear_226_356)"/>
<path fill-rule="evenodd" clip-rule="evenodd" d="M8.06915 5.98761C7.47625 6.55049 7.11769 7.22774 6.97423 7.65811C6.88691 7.92009 6.60375 8.06167 6.34178 7.97434C6.07981 7.88702 5.93823 7.60386 6.02555 7.34189C6.21542 6.77226 6.65687 5.94951 7.38064 5.26239C8.1129 4.5672 9.1478 4 10.4999 4C10.776 4 10.9999 4.22386 10.9999 4.5C10.9999 4.77614 10.776 5 10.4999 5C9.45198 5 8.65355 5.4328 8.06915 5.98761Z" fill="url(#paint1_linear_226_356)"/>
<path fill-rule="evenodd" clip-rule="evenodd" d="M23.9309 5.98761C24.5238 6.55049 24.8823 7.22774 25.0258 7.65811C25.1131 7.92009 25.3963 8.06167 25.6582 7.97434C25.9202 7.88702 26.0618 7.60386 25.9745 7.34189C25.7846 6.77226 25.3431 5.94951 24.6194 5.26239C23.8871 4.5672 22.8522 4 21.5001 4C21.224 4 21.0001 4.22386 21.0001 4.5C21.0001 4.77614 21.224 5 21.5001 5C22.548 5 23.3465 5.4328 23.9309 5.98761Z" fill="url(#paint2_linear_226_356)"/>
<defs>
<linearGradient id="paint0_linear_226_356" x1="23.7115" y1="11" x2="23.4986" y2="13.5748" gradientUnits="userSpaceOnUse">
<stop stop-color="#553B3E"/>
<stop offset="1" stop-color="#3D2432"/>
</linearGradient>
<linearGradient id="paint1_linear_226_356" x1="6.83322" y1="8.4" x2="6.83322" y2="6.6" gradientUnits="userSpaceOnUse">
<stop offset="0.0299084" stop-color="#524049"/>
<stop offset="1" stop-color="#4A2C42"/>
</linearGradient>
<linearGradient id="paint2_linear_226_356" x1="25.1668" y1="8.4" x2="25.1668" y2="6.6" gradientUnits="userSpaceOnUse">
<stop offset="0.0299084" stop-color="#524049"/>
<stop offset="1" stop-color="#4A2C42"/>
</linearGradient>
</defs>
</svg>
