<svg width="32" height="32" viewBox="0 0 32 32" fill="none" xmlns="http://www.w3.org/2000/svg">
<path d="M14.75 12.4597C14.75 14.8069 12.8472 16.7097 10.5 16.7097C8.15279 16.7097 6.25 14.8069 6.25 12.4597C6.25 10.1125 8.15279 8.20972 10.5 8.20972C12.8472 8.20972 14.75 10.1125 14.75 12.4597Z" fill="white"/>
<path d="M17.25 12.4597C17.25 14.8069 19.1528 16.7097 21.5 16.7097C23.8472 16.7097 25.75 14.8069 25.75 12.4597C25.75 10.1125 23.8472 8.20972 21.5 8.20972C19.1528 8.20972 17.25 10.1125 17.25 12.4597Z" fill="white"/>
<path d="M17.25 12.2097C17.25 14.2808 18.9289 15.9597 21 15.9597C23.0711 15.9597 24.75 14.2808 24.75 12.2097C24.75 10.1386 23.0711 8.45972 21 8.45972C18.9289 8.45972 17.25 10.1386 17.25 12.2097Z" fill="#3E272F"/>
<path d="M11 15.9597C13.0711 15.9597 14.75 14.2808 14.75 12.2097C14.75 10.1386 13.0711 8.45972 11 8.45972C8.92893 8.45972 7.25 10.1386 7.25 12.2097C7.25 14.2808 8.92893 15.9597 11 15.9597Z" fill="#3E272F"/>
<path fill-rule="evenodd" clip-rule="evenodd" d="M10.5103 3.01356C10.8619 3.08616 11.088 3.43002 11.0154 3.78158C10.7068 5.27633 9.86781 6.27492 8.98823 6.90015C8.12638 7.51278 7.20324 7.78397 6.64571 7.82477C6.28768 7.85096 5.9762 7.58196 5.95 7.22394C5.92381 6.86591 6.19281 6.55443 6.55084 6.52823C6.86164 6.50549 7.55873 6.32132 8.23505 5.84057C8.89365 5.37241 9.51082 4.63959 9.7423 3.51868C9.8149 3.16711 10.1588 2.94096 10.5103 3.01356Z" fill="#4F384A"/>
<path fill-rule="evenodd" clip-rule="evenodd" d="M10.5103 3.01356C10.8619 3.08616 11.088 3.43002 11.0154 3.78158C10.7068 5.27633 9.86781 6.27492 8.98823 6.90015C8.12638 7.51278 7.20324 7.78397 6.64571 7.82477C6.28768 7.85096 5.9762 7.58196 5.95 7.22394C5.92381 6.86591 6.19281 6.55443 6.55084 6.52823C6.86164 6.50549 7.55873 6.32132 8.23505 5.84057C8.89365 5.37241 9.51082 4.63959 9.7423 3.51868C9.8149 3.16711 10.1588 2.94096 10.5103 3.01356Z" fill="url(#paint0_radial_267_2438)"/>
<path fill-rule="evenodd" clip-rule="evenodd" d="M10.5103 3.01356C10.8619 3.08616 11.088 3.43002 11.0154 3.78158C10.7068 5.27633 9.86781 6.27492 8.98823 6.90015C8.12638 7.51278 7.20324 7.78397 6.64571 7.82477C6.28768 7.85096 5.9762 7.58196 5.95 7.22394C5.92381 6.86591 6.19281 6.55443 6.55084 6.52823C6.86164 6.50549 7.55873 6.32132 8.23505 5.84057C8.89365 5.37241 9.51082 4.63959 9.7423 3.51868C9.8149 3.16711 10.1588 2.94096 10.5103 3.01356Z" fill="url(#paint1_radial_267_2438)"/>
<path fill-rule="evenodd" clip-rule="evenodd" d="M10.5103 3.01356C10.8619 3.08616 11.088 3.43002 11.0154 3.78158C10.7068 5.27633 9.86781 6.27492 8.98823 6.90015C8.12638 7.51278 7.20324 7.78397 6.64571 7.82477C6.28768 7.85096 5.9762 7.58196 5.95 7.22394C5.92381 6.86591 6.19281 6.55443 6.55084 6.52823C6.86164 6.50549 7.55873 6.32132 8.23505 5.84057C8.89365 5.37241 9.51082 4.63959 9.7423 3.51868C9.8149 3.16711 10.1588 2.94096 10.5103 3.01356Z" fill="url(#paint2_radial_267_2438)"/>
<path fill-rule="evenodd" clip-rule="evenodd" d="M10.5103 3.01356C10.8619 3.08616 11.088 3.43002 11.0154 3.78158C10.7068 5.27633 9.86781 6.27492 8.98823 6.90015C8.12638 7.51278 7.20324 7.78397 6.64571 7.82477C6.28768 7.85096 5.9762 7.58196 5.95 7.22394C5.92381 6.86591 6.19281 6.55443 6.55084 6.52823C6.86164 6.50549 7.55873 6.32132 8.23505 5.84057C8.89365 5.37241 9.51082 4.63959 9.7423 3.51868C9.8149 3.16711 10.1588 2.94096 10.5103 3.01356Z" fill="url(#paint3_radial_267_2438)"/>
<path fill-rule="evenodd" clip-rule="evenodd" d="M21.4511 3.01356C21.0995 3.08616 20.8734 3.43002 20.946 3.78158C21.2547 5.27633 22.0936 6.27492 22.9732 6.90015C23.835 7.51278 24.7582 7.78397 25.3157 7.82477C25.6737 7.85096 25.9852 7.58196 26.0114 7.22394C26.0376 6.86591 25.7686 6.55443 25.4106 6.52823C25.0998 6.50549 24.4027 6.32132 23.7264 5.84057C23.0678 5.37241 22.4506 4.63959 22.2191 3.51868C22.1465 3.16711 21.8027 2.94096 21.4511 3.01356Z" fill="#462E2E"/>
<path fill-rule="evenodd" clip-rule="evenodd" d="M21.4511 3.01356C21.0995 3.08616 20.8734 3.43002 20.946 3.78158C21.2547 5.27633 22.0936 6.27492 22.9732 6.90015C23.835 7.51278 24.7582 7.78397 25.3157 7.82477C25.6737 7.85096 25.9852 7.58196 26.0114 7.22394C26.0376 6.86591 25.7686 6.55443 25.4106 6.52823C25.0998 6.50549 24.4027 6.32132 23.7264 5.84057C23.0678 5.37241 22.4506 4.63959 22.2191 3.51868C22.1465 3.16711 21.8027 2.94096 21.4511 3.01356Z" fill="url(#paint4_radial_267_2438)"/>
<path fill-rule="evenodd" clip-rule="evenodd" d="M21.4511 3.01356C21.0995 3.08616 20.8734 3.43002 20.946 3.78158C21.2547 5.27633 22.0936 6.27492 22.9732 6.90015C23.835 7.51278 24.7582 7.78397 25.3157 7.82477C25.6737 7.85096 25.9852 7.58196 26.0114 7.22394C26.0376 6.86591 25.7686 6.55443 25.4106 6.52823C25.0998 6.50549 24.4027 6.32132 23.7264 5.84057C23.0678 5.37241 22.4506 4.63959 22.2191 3.51868C22.1465 3.16711 21.8027 2.94096 21.4511 3.01356Z" fill="url(#paint5_radial_267_2438)"/>
<path fill-rule="evenodd" clip-rule="evenodd" d="M21.4511 3.01356C21.0995 3.08616 20.8734 3.43002 20.946 3.78158C21.2547 5.27633 22.0936 6.27492 22.9732 6.90015C23.835 7.51278 24.7582 7.78397 25.3157 7.82477C25.6737 7.85096 25.9852 7.58196 26.0114 7.22394C26.0376 6.86591 25.7686 6.55443 25.4106 6.52823C25.0998 6.50549 24.4027 6.32132 23.7264 5.84057C23.0678 5.37241 22.4506 4.63959 22.2191 3.51868C22.1465 3.16711 21.8027 2.94096 21.4511 3.01356Z" fill="url(#paint6_radial_267_2438)"/>
<path fill-rule="evenodd" clip-rule="evenodd" d="M21.4511 3.01356C21.0995 3.08616 20.8734 3.43002 20.946 3.78158C21.2547 5.27633 22.0936 6.27492 22.9732 6.90015C23.835 7.51278 24.7582 7.78397 25.3157 7.82477C25.6737 7.85096 25.9852 7.58196 26.0114 7.22394C26.0376 6.86591 25.7686 6.55443 25.4106 6.52823C25.0998 6.50549 24.4027 6.32132 23.7264 5.84057C23.0678 5.37241 22.4506 4.63959 22.2191 3.51868C22.1465 3.16711 21.8027 2.94096 21.4511 3.01356Z" fill="url(#paint7_radial_267_2438)"/>
<ellipse cx="22.5219" cy="11.0841" rx="1.1782" ry="1.4837" transform="rotate(-37.3021 22.5219 11.0841)" fill="url(#paint8_radial_267_2438)"/>
<ellipse cx="12.4594" cy="11.0841" rx="1.1782" ry="1.4837" transform="rotate(-37.3021 12.4594 11.0841)" fill="url(#paint9_radial_267_2438)"/>
<path d="M7.21986 15.5406C6.95143 15.2549 7.18004 14.829 7.57203 14.829H7.92213C8.31549 14.829 8.56861 14.7815 8.81577 14.7351C9.05156 14.6908 9.28192 14.6476 9.62346 14.6476C10.1724 14.6476 10.5438 14.691 10.9234 14.7353C11.3201 14.7816 11.7258 14.829 12.3525 14.829H13.4276C13.8196 14.829 14.0482 15.2549 13.7798 15.5406C12.9589 16.4141 11.7931 16.9597 10.4998 16.9597C9.20655 16.9597 8.04069 16.4141 7.21986 15.5406Z" fill="#427DFF"/>
<path d="M7.21986 15.5406C6.95143 15.2549 7.18004 14.829 7.57203 14.829H7.92213C8.31549 14.829 8.56861 14.7815 8.81577 14.7351C9.05156 14.6908 9.28192 14.6476 9.62346 14.6476C10.1724 14.6476 10.5438 14.691 10.9234 14.7353C11.3201 14.7816 11.7258 14.829 12.3525 14.829H13.4276C13.8196 14.829 14.0482 15.2549 13.7798 15.5406C12.9589 16.4141 11.7931 16.9597 10.4998 16.9597C9.20655 16.9597 8.04069 16.4141 7.21986 15.5406Z" fill="url(#paint10_radial_267_2438)"/>
<path d="M7.21986 15.5406C6.95143 15.2549 7.18004 14.829 7.57203 14.829H7.92213C8.31549 14.829 8.56861 14.7815 8.81577 14.7351C9.05156 14.6908 9.28192 14.6476 9.62346 14.6476C10.1724 14.6476 10.5438 14.691 10.9234 14.7353C11.3201 14.7816 11.7258 14.829 12.3525 14.829H13.4276C13.8196 14.829 14.0482 15.2549 13.7798 15.5406C12.9589 16.4141 11.7931 16.9597 10.4998 16.9597C9.20655 16.9597 8.04069 16.4141 7.21986 15.5406Z" fill="url(#paint11_linear_267_2438)"/>
<path d="M7.21986 15.5406C6.95143 15.2549 7.18004 14.829 7.57203 14.829H7.92213C8.31549 14.829 8.56861 14.7815 8.81577 14.7351C9.05156 14.6908 9.28192 14.6476 9.62346 14.6476C10.1724 14.6476 10.5438 14.691 10.9234 14.7353C11.3201 14.7816 11.7258 14.829 12.3525 14.829H13.4276C13.8196 14.829 14.0482 15.2549 13.7798 15.5406C12.9589 16.4141 11.7931 16.9597 10.4998 16.9597C9.20655 16.9597 8.04069 16.4141 7.21986 15.5406Z" fill="url(#paint12_radial_267_2438)"/>
<path d="M7.21986 15.5406C6.95143 15.2549 7.18004 14.829 7.57203 14.829H7.92213C8.31549 14.829 8.56861 14.7815 8.81577 14.7351C9.05156 14.6908 9.28192 14.6476 9.62346 14.6476C10.1724 14.6476 10.5438 14.691 10.9234 14.7353C11.3201 14.7816 11.7258 14.829 12.3525 14.829H13.4276C13.8196 14.829 14.0482 15.2549 13.7798 15.5406C12.9589 16.4141 11.7931 16.9597 10.4998 16.9597C9.20655 16.9597 8.04069 16.4141 7.21986 15.5406Z" fill="url(#paint13_radial_267_2438)"/>
<path d="M7.21986 15.5406C6.95143 15.2549 7.18004 14.829 7.57203 14.829H7.92213C8.31549 14.829 8.56861 14.7815 8.81577 14.7351C9.05156 14.6908 9.28192 14.6476 9.62346 14.6476C10.1724 14.6476 10.5438 14.691 10.9234 14.7353C11.3201 14.7816 11.7258 14.829 12.3525 14.829H13.4276C13.8196 14.829 14.0482 15.2549 13.7798 15.5406C12.9589 16.4141 11.7931 16.9597 10.4998 16.9597C9.20655 16.9597 8.04069 16.4141 7.21986 15.5406Z" fill="url(#paint14_radial_267_2438)"/>
<path d="M24.7797 15.5406C25.0481 15.2549 24.8195 14.829 24.4275 14.829H24.0774C23.684 14.829 23.4309 14.7815 23.1837 14.7351C22.948 14.6908 22.7176 14.6476 22.3761 14.6476C21.8271 14.6476 21.4557 14.691 21.0761 14.7353C20.6794 14.7816 20.2737 14.829 19.647 14.829H18.5719C18.1799 14.829 17.9513 15.2549 18.2197 15.5406C19.0406 16.4141 20.2064 16.9597 21.4997 16.9597C22.793 16.9597 23.9588 16.4141 24.7797 15.5406Z" fill="url(#paint15_radial_267_2438)"/>
<path d="M24.7797 15.5406C25.0481 15.2549 24.8195 14.829 24.4275 14.829H24.0774C23.684 14.829 23.4309 14.7815 23.1837 14.7351C22.948 14.6908 22.7176 14.6476 22.3761 14.6476C21.8271 14.6476 21.4557 14.691 21.0761 14.7353C20.6794 14.7816 20.2737 14.829 19.647 14.829H18.5719C18.1799 14.829 17.9513 15.2549 18.2197 15.5406C19.0406 16.4141 20.2064 16.9597 21.4997 16.9597C22.793 16.9597 23.9588 16.4141 24.7797 15.5406Z" fill="url(#paint16_linear_267_2438)"/>
<path d="M24.7797 15.5406C25.0481 15.2549 24.8195 14.829 24.4275 14.829H24.0774C23.684 14.829 23.4309 14.7815 23.1837 14.7351C22.948 14.6908 22.7176 14.6476 22.3761 14.6476C21.8271 14.6476 21.4557 14.691 21.0761 14.7353C20.6794 14.7816 20.2737 14.829 19.647 14.829H18.5719C18.1799 14.829 17.9513 15.2549 18.2197 15.5406C19.0406 16.4141 20.2064 16.9597 21.4997 16.9597C22.793 16.9597 23.9588 16.4141 24.7797 15.5406Z" fill="url(#paint17_radial_267_2438)"/>
<path d="M24.7797 15.5406C25.0481 15.2549 24.8195 14.829 24.4275 14.829H24.0774C23.684 14.829 23.4309 14.7815 23.1837 14.7351C22.948 14.6908 22.7176 14.6476 22.3761 14.6476C21.8271 14.6476 21.4557 14.691 21.0761 14.7353C20.6794 14.7816 20.2737 14.829 19.647 14.829H18.5719C18.1799 14.829 17.9513 15.2549 18.2197 15.5406C19.0406 16.4141 20.2064 16.9597 21.4997 16.9597C22.793 16.9597 23.9588 16.4141 24.7797 15.5406Z" fill="url(#paint18_radial_267_2438)"/>
<defs>
<radialGradient id="paint0_radial_267_2438" cx="0" cy="0" r="1" gradientUnits="userSpaceOnUse" gradientTransform="translate(7.60543 6.1591) rotate(61.384) scale(0.785239 2.31871)">
<stop stop-color="#4C3636"/>
<stop offset="1" stop-color="#4C3636" stop-opacity="0"/>
</radialGradient>
<radialGradient id="paint1_radial_267_2438" cx="0" cy="0" r="1" gradientUnits="userSpaceOnUse" gradientTransform="translate(9.39706 4.19774) rotate(43.9191) scale(0.706908 3.43717)">
<stop offset="0.309609" stop-color="#4C3636"/>
<stop offset="1" stop-color="#4C3636" stop-opacity="0"/>
</radialGradient>
<radialGradient id="paint2_radial_267_2438" cx="0" cy="0" r="1" gradientUnits="userSpaceOnUse" gradientTransform="translate(10.6701 3.09575) rotate(115.628) scale(1.76607 1.36267)">
<stop stop-color="#4C3636"/>
<stop offset="0.479481" stop-color="#4C3636" stop-opacity="0"/>
</radialGradient>
<radialGradient id="paint3_radial_267_2438" cx="0" cy="0" r="1" gradientUnits="userSpaceOnUse" gradientTransform="translate(6.00673 7.32584) rotate(-30.4655) scale(0.856017 2.63847)">
<stop stop-color="#4C3636"/>
<stop offset="1" stop-color="#4C3636" stop-opacity="0"/>
</radialGradient>
<radialGradient id="paint4_radial_267_2438" cx="0" cy="0" r="1" gradientUnits="userSpaceOnUse" gradientTransform="translate(24.2061 5.92732) rotate(120.958) scale(0.902555 2.48881)">
<stop offset="0.22426" stop-color="#5E4F4F"/>
<stop offset="1" stop-color="#5E4F4F" stop-opacity="0"/>
</radialGradient>
<radialGradient id="paint5_radial_267_2438" cx="0" cy="0" r="1" gradientUnits="userSpaceOnUse" gradientTransform="translate(22.4015 4.0034) rotate(148.815) scale(0.773138 2.65717)">
<stop stop-color="#5E4F4F"/>
<stop offset="0.739583" stop-color="#5E4F4F" stop-opacity="0.15625"/>
<stop offset="1" stop-color="#5E4F4F" stop-opacity="0"/>
</radialGradient>
<radialGradient id="paint6_radial_267_2438" cx="0" cy="0" r="1" gradientUnits="userSpaceOnUse" gradientTransform="translate(21.7136 3.00482) rotate(85.6013) scale(0.81547 1.27578)">
<stop stop-color="#5E4F4F"/>
<stop offset="1" stop-color="#5E4F4F" stop-opacity="0"/>
</radialGradient>
<radialGradient id="paint7_radial_267_2438" cx="0" cy="0" r="1" gradientUnits="userSpaceOnUse" gradientTransform="translate(26.05 7.23695) rotate(164.407) scale(0.930713 1.45514)">
<stop stop-color="#5E4F4F"/>
<stop offset="1" stop-color="#5E4F4F" stop-opacity="0"/>
</radialGradient>
<radialGradient id="paint8_radial_267_2438" cx="0" cy="0" r="1" gradientUnits="userSpaceOnUse" gradientTransform="translate(21.374 12.5909) rotate(-70.1721) scale(2.96206 3.64293)">
<stop offset="0.134935" stop-color="#FAF9F9" stop-opacity="0"/>
<stop offset="1" stop-color="#FAF9F9"/>
</radialGradient>
<radialGradient id="paint9_radial_267_2438" cx="0" cy="0" r="1" gradientUnits="userSpaceOnUse" gradientTransform="translate(11.3115 12.5909) rotate(-70.1721) scale(2.96206 3.64293)">
<stop offset="0.134935" stop-color="#FAF9F9" stop-opacity="0"/>
<stop offset="1" stop-color="#FAF9F9"/>
</radialGradient>
<radialGradient id="paint10_radial_267_2438" cx="0" cy="0" r="1" gradientUnits="userSpaceOnUse" gradientTransform="translate(11.1682 14.9416) rotate(98.3333) scale(2.03966 6.59224)">
<stop offset="0.286349" stop-color="#4D8AFF"/>
<stop offset="0.882353" stop-color="#3E4FFF"/>
</radialGradient>
<linearGradient id="paint11_linear_267_2438" x1="13.4777" y1="16.4381" x2="12.9604" y2="15.5882" gradientUnits="userSpaceOnUse">
<stop offset="0.0952251" stop-color="#3B4FFF"/>
<stop offset="1" stop-color="#3B4FFF" stop-opacity="0"/>
</linearGradient>
<radialGradient id="paint12_radial_267_2438" cx="0" cy="0" r="1" gradientUnits="userSpaceOnUse" gradientTransform="translate(13.2031 15.3059) rotate(64.9047) scale(0.390473 1.20458)">
<stop stop-color="#659DFF"/>
<stop offset="1" stop-color="#4F8BFF" stop-opacity="0"/>
</radialGradient>
<radialGradient id="paint13_radial_267_2438" cx="0" cy="0" r="1" gradientUnits="userSpaceOnUse" gradientTransform="translate(10.4998 15.4841) rotate(90) scale(0.758829 2.5117)">
<stop stop-color="#3F80FF"/>
<stop offset="1" stop-color="#417EFF" stop-opacity="0"/>
</radialGradient>
<radialGradient id="paint14_radial_267_2438" cx="0" cy="0" r="1" gradientUnits="userSpaceOnUse" gradientTransform="translate(8.26803 15.322) rotate(12.3391) scale(0.853795 0.290715)">
<stop stop-color="#3F80FF"/>
<stop offset="1" stop-color="#417EFF" stop-opacity="0"/>
</radialGradient>
<radialGradient id="paint15_radial_267_2438" cx="0" cy="0" r="1" gradientUnits="userSpaceOnUse" gradientTransform="translate(20.8313 14.9416) rotate(81.6667) scale(2.03966 6.59224)">
<stop offset="0.286349" stop-color="#4D8AFF"/>
<stop offset="0.882353" stop-color="#3E4FFF"/>
</radialGradient>
<linearGradient id="paint16_linear_267_2438" x1="18.5218" y1="16.4381" x2="19.0391" y2="15.5882" gradientUnits="userSpaceOnUse">
<stop offset="0.0952251" stop-color="#3B4FFF"/>
<stop offset="1" stop-color="#3B4FFF" stop-opacity="0"/>
</linearGradient>
<radialGradient id="paint17_radial_267_2438" cx="0" cy="0" r="1" gradientUnits="userSpaceOnUse" gradientTransform="translate(24.3404 15.2789) rotate(-111.181) scale(0.393934 1.09864)">
<stop stop-color="#659DFF"/>
<stop offset="1" stop-color="#4579FF" stop-opacity="0"/>
</radialGradient>
<radialGradient id="paint18_radial_267_2438" cx="0" cy="0" r="1" gradientUnits="userSpaceOnUse" gradientTransform="translate(21.4997 15.4841) rotate(90) scale(0.758829 2.5117)">
<stop stop-color="#3F80FF"/>
<stop offset="1" stop-color="#417EFF" stop-opacity="0"/>
</radialGradient>
</defs>
</svg>
