<svg width="32" height="32" viewBox="0 0 32 32" fill="none" xmlns="http://www.w3.org/2000/svg">
<path d="M10.5 15.25C12.8472 15.25 14.75 13.3472 14.75 11C14.75 8.65279 12.8472 6.75 10.5 6.75C8.15279 6.75 6.25 8.65279 6.25 11C6.25 13.3472 8.15279 15.25 10.5 15.25Z" fill="white"/>
<path d="M21.5 15.25C23.8472 15.25 25.75 13.3472 25.75 11C25.75 8.65279 23.8472 6.75 21.5 6.75C19.1528 6.75 17.25 8.65279 17.25 11C17.25 13.3472 19.1528 15.25 21.5 15.25Z" fill="white"/>
<path d="M13.25 11C13.25 12.2426 12.2426 13.25 11 13.25C9.75736 13.25 8.75 12.2426 8.75 11C8.75 9.75736 9.75736 8.75 11 8.75C12.2426 8.75 13.25 9.75736 13.25 11Z" fill="url(#paint0_linear_226_352)"/>
<path d="M23.25 11C23.25 12.2426 22.2426 13.25 21 13.25C19.7574 13.25 18.75 12.2426 18.75 11C18.75 9.75736 19.7574 8.75 21 8.75C22.2426 8.75 23.25 9.75736 23.25 11Z" fill="url(#paint1_linear_226_352)"/>
<defs>
<linearGradient id="paint0_linear_226_352" x1="16.5" y1="9" x2="16.5" y2="13" gradientUnits="userSpaceOnUse">
<stop stop-color="#553B3E"/>
<stop offset="1" stop-color="#3D2432"/>
</linearGradient>
<linearGradient id="paint1_linear_226_352" x1="16.5" y1="9" x2="16.5" y2="13" gradientUnits="userSpaceOnUse">
<stop stop-color="#553B3E"/>
<stop offset="1" stop-color="#3D2432"/>
</linearGradient>
</defs>
</svg>
