<svg width="32" height="32" viewBox="0 0 32 32" fill="none" xmlns="http://www.w3.org/2000/svg">
<path d="M9.20711 9.29289C8.81658 8.90237 8.18342 8.90237 7.79289 9.29289C7.40237 9.68342 7.40237 10.3166 7.79289 10.7071L9.58579 12.5L7.79289 14.2929C7.40237 14.6834 7.40237 15.3166 7.79289 15.7071C8.18342 16.0976 8.81658 16.0976 9.20711 15.7071L11 13.9142L12.7929 15.7071C13.1834 16.0976 13.8166 16.0976 14.2071 15.7071C14.5976 15.3166 14.5976 14.6834 14.2071 14.2929L12.4142 12.5L14.2071 10.7071C14.5976 10.3166 14.5976 9.68342 14.2071 9.29289C13.8166 8.90237 13.1834 8.90237 12.7929 9.29289L11 11.0858L9.20711 9.29289Z" fill="url(#paint0_linear_267_2465)"/>
<path d="M20.2071 9.29289C19.8166 8.90237 19.1834 8.90237 18.7929 9.29289C18.4024 9.68342 18.4024 10.3166 18.7929 10.7071L20.5858 12.5L18.7929 14.2929C18.4024 14.6834 18.4024 15.3166 18.7929 15.7071C19.1834 16.0976 19.8166 16.0976 20.2071 15.7071L22 13.9142L23.7929 15.7071C24.1834 16.0976 24.8166 16.0976 25.2071 15.7071C25.5976 15.3166 25.5976 14.6834 25.2071 14.2929L23.4142 12.5L25.2071 10.7071C25.5976 10.3166 25.5976 9.68342 25.2071 9.29289C24.8166 8.90237 24.1834 8.90237 23.7929 9.29289L22 11.0858L20.2071 9.29289Z" fill="url(#paint1_linear_267_2465)"/>
<defs>
<linearGradient id="paint0_linear_267_2465" x1="13.5" y1="12.5" x2="11.5" y2="14.5" gradientUnits="userSpaceOnUse">
<stop stop-color="#45253E"/>
<stop offset="0.414382" stop-color="#55424C"/>
<stop offset="1" stop-color="#512756"/>
</linearGradient>
<linearGradient id="paint1_linear_267_2465" x1="24.5" y1="12.5" x2="22.5" y2="14.5" gradientUnits="userSpaceOnUse">
<stop stop-color="#45253E"/>
<stop offset="0.414382" stop-color="#55424C"/>
<stop offset="1" stop-color="#512756"/>
</linearGradient>
</defs>
</svg>
