<svg width="32" height="32" viewBox="0 0 32 32" fill="none" xmlns="http://www.w3.org/2000/svg">
<path fill-rule="evenodd" clip-rule="evenodd" d="M11.0938 13.1562C12.1901 13.1562 12.5423 13.8535 12.592 14.0536C12.7252 14.5896 13.2676 14.9162 13.8036 14.783C14.3396 14.6498 14.6662 14.1074 14.533 13.5714C14.3084 12.6673 13.2891 11.1562 11.0938 11.1562C8.89839 11.1562 7.87911 12.6673 7.65451 13.5714C7.52135 14.1074 7.84792 14.6498 8.38391 14.783C8.9199 14.9162 9.46235 14.5896 9.59551 14.0536C9.64521 13.8535 9.99746 13.1562 11.0938 13.1562Z" fill="url(#paint0_radial_226_339)"/>
<path d="M18.8062 16.1706C19.6962 15.8406 20.6562 15.6406 21.6662 15.6406C22.6762 15.6406 23.6363 15.8306 24.5163 16.1706C25.3663 15.3906 25.9062 14.2906 25.9062 13.0406C25.9062 10.6906 24.0062 8.79065 21.6562 8.79065C19.3063 8.79065 17.4062 10.6906 17.4062 13.0406C17.4162 14.2906 17.9562 15.4006 18.8062 16.1706Z" fill="white"/>
<path d="M21.2087 15C22.3133 15 23.2087 14.1046 23.2087 13C23.2087 11.8954 22.3133 11 21.2087 11C20.1042 11 19.2087 11.8954 19.2087 13C19.2087 14.1046 20.1042 15 21.2087 15Z" fill="url(#paint1_linear_226_339)"/>
<path fill-rule="evenodd" clip-rule="evenodd" d="M11 7.5C11 7.22386 10.7761 7 10.5 7C9.72575 7 8.7575 7.2843 7.9154 7.83052C7.0671 8.38077 6.30302 9.22636 6.01493 10.3787C5.94795 10.6466 6.11083 10.9181 6.37873 10.9851C6.64663 11.052 6.9181 10.8892 6.98507 10.6213C7.19698 9.77364 7.76623 9.11923 8.4596 8.66948C9.15917 8.2157 9.94092 8 10.5 8C10.7761 8 11 7.77614 11 7.5Z" fill="url(#paint2_linear_226_339)"/>
<path fill-rule="evenodd" clip-rule="evenodd" d="M23.9307 6.98761C24.5236 7.55049 24.8822 8.22774 25.0256 8.65811C25.113 8.92009 25.3961 9.06167 25.6581 8.97434C25.9201 8.88702 26.0617 8.60386 25.9743 8.34189C25.7845 7.77226 25.343 6.94951 24.6192 6.26239C23.887 5.5672 22.8521 5 21.5 5C21.2238 5 21 5.22386 21 5.5C21 5.77614 21.2238 6 21.5 6C22.5479 6 23.3463 6.4328 23.9307 6.98761Z" fill="url(#paint3_linear_226_339)"/>
<defs>
<radialGradient id="paint0_radial_226_339" cx="0" cy="0" r="1" gradientUnits="userSpaceOnUse" gradientTransform="translate(11.0938 13.8125) rotate(90) scale(3.3125 4.82169)">
<stop offset="0.337213" stop-color="#4D274B"/>
<stop offset="0.628228" stop-color="#514047"/>
<stop offset="1" stop-color="#4E2553"/>
<stop offset="1" stop-color="#4A342F"/>
</radialGradient>
<linearGradient id="paint1_linear_226_339" x1="22.7472" y1="11" x2="21.063" y2="14.2842" gradientUnits="userSpaceOnUse">
<stop stop-color="#553B3E"/>
<stop offset="1" stop-color="#3D2432"/>
</linearGradient>
<linearGradient id="paint2_linear_226_339" x1="10.1667" y1="11.4" x2="10.1667" y2="9.6" gradientUnits="userSpaceOnUse">
<stop offset="0.0299084" stop-color="#524049"/>
<stop offset="1" stop-color="#4A2C42"/>
</linearGradient>
<linearGradient id="paint3_linear_226_339" x1="25.1667" y1="9.4" x2="25.1667" y2="7.6" gradientUnits="userSpaceOnUse">
<stop offset="0.0299084" stop-color="#524049"/>
<stop offset="1" stop-color="#4A2C42"/>
</linearGradient>
</defs>
</svg>
