<svg width="32" height="32" viewBox="0 0 32 32" fill="none" xmlns="http://www.w3.org/2000/svg">
<path d="M13.5 17C13.5 17 15 15.5 15 13.5C15 11.0147 12.9853 9 10.5 9C8.01472 9 6 11.0147 6 13.5C6 15.5 7.04226 16.3801 7.04226 16.3801C7.04226 16.3801 9.05528 15.8367 10.5 16C12.5 16.226 13.5 17 13.5 17Z" fill="white"/>
<path d="M13 13.25C13 14.3546 12.1046 15.25 11 15.25C9.89543 15.25 9 14.3546 9 13.25C9 12.1454 9.89543 11.25 11 11.25C12.1046 11.25 13 12.1454 13 13.25Z" fill="url(#paint0_linear_226_332)"/>
<path fill-rule="evenodd" clip-rule="evenodd" d="M22.7719 13.5649C22.5633 13.2853 22.2176 12.995 21.5388 13.0001C20.852 13.0051 20.5109 13.2989 20.3105 13.5712C20.1997 13.7217 20.127 13.8766 20.0825 13.995C20.0608 14.0529 20.0473 14.0983 20.04 14.1248C20.0368 14.1366 20.035 14.1444 20.0342 14.1475C19.9238 14.6832 19.4024 15.0316 18.8641 14.9269C18.322 14.8216 17.9679 14.2967 18.0732 13.7545C18.1101 13.5999 18.1101 13.5999 18.1101 13.5999C18.1316 13.5209 18.1638 13.4154 18.2101 13.2922C18.3016 13.0482 18.4539 12.7197 18.6997 12.3858C19.2122 11.6894 20.1093 11.0106 21.524 11.0001C22.9468 10.9896 23.855 11.672 24.375 12.369C24.6246 12.7036 24.7811 13.0338 24.8757 13.2789C24.9236 13.4028 24.9572 13.5087 24.9797 13.5881C25.1128 14.0569 24.9237 14.7834 24.2421 14.9246C23.7049 15.0359 23.1791 14.6937 23.0623 14.159C23.0615 14.1558 23.0594 14.1473 23.0557 14.1343C23.0478 14.1064 23.0332 14.0594 23.0101 13.9996C22.9629 13.8775 22.8865 13.7185 22.7719 13.5649Z" fill="url(#paint1_radial_226_332)"/>
<path fill-rule="evenodd" clip-rule="evenodd" d="M23.9307 8.98761C24.5236 9.55049 24.8822 10.2277 25.0256 10.6581C25.113 10.9201 25.3961 11.0617 25.6581 10.9743C25.9201 10.887 26.0617 10.6039 25.9743 10.3419C25.7845 9.77226 25.343 8.94951 24.6192 8.26239C23.887 7.5672 22.8521 7 21.5 7C21.2238 7 21 7.22386 21 7.5C21 7.77614 21.2238 8 21.5 8C22.5479 8 23.3463 8.4328 23.9307 8.98761Z" fill="url(#paint2_radial_226_332)"/>
<path fill-rule="evenodd" clip-rule="evenodd" d="M23.9307 8.98761C24.5236 9.55049 24.8822 10.2277 25.0256 10.6581C25.113 10.9201 25.3961 11.0617 25.6581 10.9743C25.9201 10.887 26.0617 10.6039 25.9743 10.3419C25.7845 9.77226 25.343 8.94951 24.6192 8.26239C23.887 7.5672 22.8521 7 21.5 7C21.2238 7 21 7.22386 21 7.5C21 7.77614 21.2238 8 21.5 8C22.5479 8 23.3463 8.4328 23.9307 8.98761Z" fill="url(#paint3_radial_226_332)"/>
<path fill-rule="evenodd" clip-rule="evenodd" d="M8.06927 6.98761C7.47637 7.55049 7.11781 8.22774 6.97436 8.65811C6.88703 8.92009 6.60387 9.06167 6.3419 8.97434C6.07993 8.88702 5.93835 8.60386 6.02567 8.34189C6.21555 7.77226 6.65699 6.94951 7.38076 6.26239C8.11302 5.5672 9.14792 5 10.5 5C10.7762 5 11 5.22386 11 5.5C11 5.77614 10.7762 6 10.5 6C9.45211 6 8.65367 6.4328 8.06927 6.98761Z" fill="url(#paint4_radial_226_332)"/>
<path fill-rule="evenodd" clip-rule="evenodd" d="M8.06927 6.98761C7.47637 7.55049 7.11781 8.22774 6.97436 8.65811C6.88703 8.92009 6.60387 9.06167 6.3419 8.97434C6.07993 8.88702 5.93835 8.60386 6.02567 8.34189C6.21555 7.77226 6.65699 6.94951 7.38076 6.26239C8.11302 5.5672 9.14792 5 10.5 5C10.7762 5 11 5.22386 11 5.5C11 5.77614 10.7762 6 10.5 6C9.45211 6 8.65367 6.4328 8.06927 6.98761Z" fill="url(#paint5_radial_226_332)"/>
<defs>
<linearGradient id="paint0_linear_226_332" x1="12.5385" y1="11.25" x2="10.8542" y2="14.5342" gradientUnits="userSpaceOnUse">
<stop stop-color="#553B3E"/>
<stop offset="1" stop-color="#3D2432"/>
</linearGradient>
<radialGradient id="paint1_radial_226_332" cx="0" cy="0" r="1" gradientUnits="userSpaceOnUse" gradientTransform="translate(21.5371 13.8359) rotate(90) scale(3.1875 4.31047)">
<stop offset="0.307692" stop-color="#452A3D"/>
<stop offset="0.626374" stop-color="#594052"/>
<stop offset="1" stop-color="#482C40"/>
</radialGradient>
<radialGradient id="paint2_radial_226_332" cx="0" cy="0" r="1" gradientUnits="userSpaceOnUse" gradientTransform="translate(22.2235 10.498) rotate(-145.524) scale(3.94156 3.60988)">
<stop offset="0.641397" stop-color="#2F1F2A"/>
<stop offset="0.822285" stop-color="#51394C"/>
<stop offset="0.881253" stop-color="#50394C"/>
<stop offset="1" stop-color="#442E3E"/>
</radialGradient>
<radialGradient id="paint3_radial_226_332" cx="0" cy="0" r="1" gradientUnits="userSpaceOnUse" gradientTransform="translate(23.3119 9.00006) rotate(129.805) scale(4.05269 3.26964)">
<stop offset="0.645531" stop-color="#362530" stop-opacity="0"/>
<stop offset="1" stop-color="#342330"/>
</radialGradient>
<radialGradient id="paint4_radial_226_332" cx="0" cy="0" r="1" gradientUnits="userSpaceOnUse" gradientTransform="translate(9.85652 8.81565) rotate(-124.747) scale(3.41018 4.28513)">
<stop offset="0.552138" stop-color="#4A2F37"/>
<stop offset="0.822285" stop-color="#51394C"/>
<stop offset="0.881253" stop-color="#50394C"/>
<stop offset="1" stop-color="#4D3635"/>
</radialGradient>
<radialGradient id="paint5_radial_226_332" cx="0" cy="0" r="1" gradientUnits="userSpaceOnUse" gradientTransform="translate(10.7527 5.62374) rotate(-176.165) scale(0.413982 0.778569)">
<stop stop-color="#5A4950"/>
<stop offset="1" stop-color="#5D4C4F" stop-opacity="0"/>
</radialGradient>
</defs>
</svg>
