<svg width="32" height="32" viewBox="0 0 32 32" fill="none" xmlns="http://www.w3.org/2000/svg">
<path d="M10.5 18.25C12.8472 18.25 14.75 16.3472 14.75 14C14.75 11.6528 12.8472 9.75 10.5 9.75C8.15279 9.75 6.25 11.6528 6.25 14C6.25 16.3472 8.15279 18.25 10.5 18.25Z" fill="white"/>
<path d="M21.5 18.25C23.8472 18.25 25.75 16.3472 25.75 14C25.75 11.6528 23.8472 9.75 21.5 9.75C19.1528 9.75 17.25 11.6528 17.25 14C17.25 16.3472 19.1528 18.25 21.5 18.25Z" fill="white"/>
<path d="M13 14C13 15.1046 12.1046 16 11 16C9.89543 16 9 15.1046 9 14C9 12.8954 9.89543 12 11 12C12.1046 12 13 12.8954 13 14Z" fill="url(#paint0_linear_216_392)"/>
<path d="M23 14C23 15.1046 22.1046 16 21 16C19.8954 16 19 15.1046 19 14C19 12.8954 19.8954 12 21 12C22.1046 12 23 12.8954 23 14Z" fill="url(#paint1_linear_216_392)"/>
<path fill-rule="evenodd" clip-rule="evenodd" d="M19.9471 8.72412L19.9444 8.72941L19.9456 8.72711L19.9464 8.72553L19.9471 8.72412ZM23.0558 8.7294C23.0558 8.7294 23.0524 8.72332 23.0483 8.71652C23.0394 8.70186 23.0231 8.67645 22.9985 8.64375C22.9493 8.57812 22.8686 8.48507 22.7503 8.39043C22.52 8.20625 22.1287 8 21.5001 8C20.8716 8 20.4802 8.20625 20.25 8.39043C20.1317 8.48507 20.0509 8.57812 20.0017 8.64375C19.9771 8.67645 19.9608 8.70186 19.9519 8.71652C19.9478 8.72332 19.9444 8.72941 19.9444 8.72941C19.8191 8.97216 19.5216 9.06974 19.2765 8.94721C19.0295 8.82372 18.9294 8.52338 19.0529 8.27639L19.0534 8.2753L19.054 8.27411L19.0554 8.27144L19.0587 8.26499L19.068 8.24781C19.0753 8.23451 19.085 8.21758 19.0971 8.19754C19.1214 8.15751 19.1559 8.1048 19.2017 8.04375C19.2931 7.92188 19.4311 7.76493 19.6253 7.60957C20.02 7.29375 20.6287 7 21.5001 7C22.3716 7 22.9802 7.29375 23.375 7.60957C23.5692 7.76493 23.7071 7.92188 23.7985 8.04375C23.8443 8.1048 23.8788 8.15751 23.9031 8.19754C23.9153 8.21758 23.9249 8.23451 23.9322 8.24781L23.9415 8.26499L23.9448 8.27144L23.9462 8.27411L23.9468 8.2753L23.9473 8.27639C24.0708 8.52338 23.9707 8.82372 23.7237 8.94721C23.4787 9.06974 23.1811 8.97216 23.0558 8.7294Z" fill="url(#paint2_linear_216_392)"/>
<path fill-rule="evenodd" clip-rule="evenodd" d="M8.94707 8.27588C8.94618 8.27411 8.94528 8.27235 8.94438 8.27059C8.94431 8.27047 8.94425 8.27036 8.9442 8.27027C8.94383 8.2696 8.94391 8.26973 8.94444 8.27073L8.94555 8.27289L8.94636 8.27447L8.94682 8.27539L8.94707 8.27588ZM12.0558 8.2706C12.0549 8.27226 12.0524 8.27668 12.0483 8.28348C12.0394 8.29814 12.0231 8.32355 11.9985 8.35625C11.9493 8.42188 11.8686 8.51493 11.7503 8.60957C11.52 8.79375 11.1287 9 10.5001 9C9.87157 9 9.48019 8.79375 9.24996 8.60957C9.13167 8.51493 9.05089 8.42188 9.00167 8.35625C8.97714 8.32355 8.96082 8.29814 8.95192 8.28348C8.94779 8.27668 8.9453 8.27226 8.94438 8.27059C8.81911 8.02784 8.52155 7.93026 8.2765 8.05279C8.02951 8.17628 7.9294 8.47662 8.0529 8.72361L8.50011 8.5C8.0529 8.72361 8.05303 8.72387 8.05316 8.72414L8.05345 8.7247L8.05405 8.72589L8.0554 8.72856L8.05874 8.73501L8.06798 8.75219C8.0753 8.76549 8.08496 8.78242 8.09713 8.80246C8.12144 8.84249 8.15589 8.8952 8.20167 8.95625C8.29308 9.07812 8.43105 9.23507 8.62526 9.39043C9.02003 9.70625 9.62865 10 10.5001 10C11.3716 10 11.9802 9.70625 12.375 9.39043C12.5692 9.23507 12.7071 9.07812 12.7985 8.95625C12.8443 8.8952 12.8788 8.84249 12.9031 8.80246C12.9153 8.78242 12.9249 8.76549 12.9322 8.75219L12.9415 8.73501L12.9448 8.72856L12.9462 8.72589L12.9468 8.7247L12.9471 8.72414C12.9472 8.72387 12.9473 8.72361 12.5001 8.5L12.9473 8.72361C13.0708 8.47662 12.9707 8.17628 12.7237 8.05279C12.4787 7.93026 12.1811 8.02784 12.0558 8.2706Z" fill="url(#paint3_linear_216_392)"/>
<defs>
<linearGradient id="paint0_linear_216_392" x1="11.1552" y1="12" x2="11.1552" y2="16" gradientUnits="userSpaceOnUse">
<stop stop-color="#553B3E"/>
<stop offset="1" stop-color="#3D2432"/>
</linearGradient>
<linearGradient id="paint1_linear_216_392" x1="11.1552" y1="12" x2="11.1552" y2="16" gradientUnits="userSpaceOnUse">
<stop stop-color="#553B3E"/>
<stop offset="1" stop-color="#3D2432"/>
</linearGradient>
<linearGradient id="paint2_linear_216_392" x1="21.5001" y1="7.5" x2="21.5001" y2="8.5" gradientUnits="userSpaceOnUse">
<stop offset="0.0299084" stop-color="#524049"/>
<stop offset="1" stop-color="#4A2C42"/>
</linearGradient>
<linearGradient id="paint3_linear_216_392" x1="10.5001" y1="8" x2="10.5001" y2="9.5" gradientUnits="userSpaceOnUse">
<stop offset="0.0299084" stop-color="#524049"/>
<stop offset="1" stop-color="#4A2C42"/>
</linearGradient>
</defs>
</svg>
