<svg width="32" height="32" viewBox="0 0 32 32" fill="none" xmlns="http://www.w3.org/2000/svg">
<path fill-rule="evenodd" clip-rule="evenodd" d="M13.6129 9.10555C14.1068 9.35254 14.3071 9.95321 14.0601 10.4472C13.338 11.8913 11.8712 12.6525 10.4697 12.8546C9.08123 13.0549 7.4956 12.7441 6.45854 11.7071C6.06802 11.3166 6.06802 10.6834 6.45854 10.2929C6.84907 9.90234 7.48223 9.90234 7.87276 10.2929C8.3357 10.7558 9.21514 11.0149 10.1842 10.8751C11.1403 10.7372 11.9234 10.2484 12.2712 9.55276C12.5182 9.05878 13.1189 8.85856 13.6129 9.10555Z" fill="url(#paint0_linear_226_310)"/>
<path fill-rule="evenodd" clip-rule="evenodd" d="M18.7184 9.10555C18.2245 9.35254 18.0242 9.95321 18.2712 10.4472C18.9933 11.8913 20.4601 12.6525 21.8616 12.8546C23.2501 13.0549 24.8357 12.7441 25.8728 11.7071C26.2633 11.3166 26.2633 10.6834 25.8728 10.2929C25.4822 9.90234 24.8491 9.90234 24.4585 10.2929C23.9956 10.7558 23.1162 11.0149 22.1471 10.8751C21.191 10.7372 20.4079 10.2484 20.0601 9.55276C19.8131 9.05878 19.2124 8.85856 18.7184 9.10555Z" fill="url(#paint1_linear_226_310)"/>
<path fill-rule="evenodd" clip-rule="evenodd" d="M12.6656 4C12.9418 4 13.1656 4.22386 13.1656 4.5C13.1656 5.63568 12.7348 6.52418 12.0603 7.1237C11.3951 7.71505 10.5222 8 9.66565 8C9.38951 8 9.16565 7.77614 9.16565 7.5C9.16565 7.22386 9.38951 7 9.66565 7C10.3091 7 10.9362 6.78495 11.396 6.3763C11.8465 5.97582 12.1656 5.36432 12.1656 4.5C12.1656 4.22386 12.3895 4 12.6656 4Z" fill="url(#paint2_linear_226_310)"/>
<path fill-rule="evenodd" clip-rule="evenodd" d="M19.6656 4C19.3895 4 19.1656 4.22386 19.1656 4.5C19.1656 5.63568 19.5965 6.52418 20.271 7.1237C20.9362 7.71505 21.8091 8 22.6656 8C22.9418 8 23.1656 7.77614 23.1656 7.5C23.1656 7.22386 22.9418 7 22.6656 7C22.0222 7 21.3951 6.78495 20.9353 6.3763C20.4848 5.97582 20.1656 5.36432 20.1656 4.5C20.1656 4.22386 19.9418 4 19.6656 4Z" fill="url(#paint3_linear_226_310)"/>
<defs>
<linearGradient id="paint0_linear_226_310" x1="11.3656" y1="10.75" x2="11.1305" y2="12.1608" gradientUnits="userSpaceOnUse">
<stop stop-color="#52383E"/>
<stop offset="1" stop-color="#432A35"/>
</linearGradient>
<linearGradient id="paint1_linear_226_310" x1="20.9656" y1="10.75" x2="21.2008" y2="12.1608" gradientUnits="userSpaceOnUse">
<stop stop-color="#52383E"/>
<stop offset="1" stop-color="#432A35"/>
</linearGradient>
<linearGradient id="paint2_linear_226_310" x1="9.8323" y1="8.39987" x2="9.8323" y2="6.59992" gradientUnits="userSpaceOnUse">
<stop offset="0.0299084" stop-color="#524049"/>
<stop offset="1" stop-color="#4A2C42"/>
</linearGradient>
<linearGradient id="paint3_linear_226_310" x1="21.1656" y1="6" x2="19.6656" y2="7.5" gradientUnits="userSpaceOnUse">
<stop offset="0.0299084" stop-color="#524049"/>
<stop offset="1" stop-color="#4A2C42"/>
</linearGradient>
</defs>
</svg>
