<svg width="32" height="32" viewBox="0 0 32 32" fill="none" xmlns="http://www.w3.org/2000/svg">
<path fill-rule="evenodd" clip-rule="evenodd" d="M22.7719 12.5649C22.5633 12.2853 22.2176 11.995 21.5388 12.0001C20.852 12.0051 20.5109 12.2989 20.3105 12.5712C20.1997 12.7217 20.127 12.8766 20.0825 12.995C20.0608 13.0529 20.0473 13.0983 20.04 13.1248C20.0368 13.1366 20.035 13.1444 20.0342 13.1475C19.9238 13.6832 19.4024 14.0316 18.8641 13.9269C18.322 13.8216 17.9679 13.2967 18.0732 12.7545C18.1101 12.5999 18.1101 12.5999 18.1101 12.5999C18.1316 12.5209 18.1638 12.4154 18.2101 12.2922C18.3016 12.0482 18.4539 11.7197 18.6997 11.3858C19.2122 10.6894 20.1093 10.0106 21.524 10.0001C22.9468 9.9896 23.855 10.672 24.375 11.369C24.6246 11.7036 24.7811 12.0338 24.8757 12.2789C24.9236 12.4028 24.9572 12.5087 24.9797 12.5881C25.1128 13.0569 24.9237 13.7834 24.2421 13.9246C23.7049 14.0359 23.1791 13.6937 23.0623 13.159C23.0615 13.1558 23.0594 13.1473 23.0557 13.1343C23.0478 13.1064 23.0332 13.0594 23.0101 12.9996C22.9629 12.8775 22.8865 12.7185 22.7719 12.5649Z" fill="url(#paint0_radial_217_203)"/>
<path fill-rule="evenodd" clip-rule="evenodd" d="M11.7407 12.5649C11.5321 12.2853 11.1864 11.995 10.5076 12.0001C9.8208 12.0051 9.47962 12.2989 9.27924 12.5712C9.1685 12.7217 9.09571 12.8766 9.05128 12.995C9.02955 13.0529 9.01601 13.0983 9.00879 13.1248C9.00557 13.1366 9.0037 13.1444 9.00298 13.1475C8.89254 13.6832 8.3712 14.0316 7.83286 13.9269C7.29072 13.8216 6.93663 13.2967 7.04199 12.7545C7.07889 12.5999 7.07889 12.5999 7.07889 12.5999C7.10039 12.5209 7.13257 12.4154 7.17883 12.2922C7.27039 12.0482 7.4227 11.7197 7.6684 11.3858C8.18091 10.6894 9.07801 10.0106 10.4928 10.0001C11.9156 9.9896 12.8238 10.672 13.3437 11.369C13.5934 11.7036 13.7498 12.0338 13.8445 12.2789C13.8923 12.4028 13.9259 12.5087 13.9484 12.5881C14.0815 13.0569 13.8924 13.7834 13.2109 13.9246C12.6736 14.0359 12.1478 13.6937 12.0311 13.159C12.0303 13.1558 12.0282 13.1473 12.0245 13.1343C12.0165 13.1064 12.0019 13.0594 11.9789 12.9996C11.9317 12.8775 11.8553 12.7185 11.7407 12.5649Z" fill="url(#paint1_radial_217_203)"/>
<path fill-rule="evenodd" clip-rule="evenodd" d="M8.06915 7.98761C7.47625 8.55049 7.11769 9.22774 6.97423 9.65811C6.88691 9.92009 6.60375 10.0617 6.34178 9.97434C6.07981 9.88702 5.93823 9.60386 6.02555 9.34189C6.21542 8.77226 6.65687 7.94951 7.38064 7.26239C8.1129 6.5672 9.1478 6 10.4999 6C10.776 6 10.9999 6.22386 10.9999 6.5C10.9999 6.77614 10.776 7 10.4999 7C9.45198 7 8.65355 7.4328 8.06915 7.98761Z" fill="url(#paint2_radial_217_203)"/>
<path fill-rule="evenodd" clip-rule="evenodd" d="M8.06915 7.98761C7.47625 8.55049 7.11769 9.22774 6.97423 9.65811C6.88691 9.92009 6.60375 10.0617 6.34178 9.97434C6.07981 9.88702 5.93823 9.60386 6.02555 9.34189C6.21542 8.77226 6.65687 7.94951 7.38064 7.26239C8.1129 6.5672 9.1478 6 10.4999 6C10.776 6 10.9999 6.22386 10.9999 6.5C10.9999 6.77614 10.776 7 10.4999 7C9.45198 7 8.65355 7.4328 8.06915 7.98761Z" fill="url(#paint3_radial_217_203)"/>
<path fill-rule="evenodd" clip-rule="evenodd" d="M23.9309 7.98761C24.5238 8.55049 24.8823 9.22774 25.0258 9.65811C25.1131 9.92009 25.3963 10.0617 25.6582 9.97434C25.9202 9.88702 26.0618 9.60386 25.9745 9.34189C25.7846 8.77226 25.3431 7.94951 24.6194 7.26239C23.8871 6.5672 22.8522 6 21.5001 6C21.224 6 21.0001 6.22386 21.0001 6.5C21.0001 6.77614 21.224 7 21.5001 7C22.548 7 23.3465 7.4328 23.9309 7.98761Z" fill="url(#paint4_radial_217_203)"/>
<path fill-rule="evenodd" clip-rule="evenodd" d="M23.9309 7.98761C24.5238 8.55049 24.8823 9.22774 25.0258 9.65811C25.1131 9.92009 25.3963 10.0617 25.6582 9.97434C25.9202 9.88702 26.0618 9.60386 25.9745 9.34189C25.7846 8.77226 25.3431 7.94951 24.6194 7.26239C23.8871 6.5672 22.8522 6 21.5001 6C21.224 6 21.0001 6.22386 21.0001 6.5C21.0001 6.77614 21.224 7 21.5001 7C22.548 7 23.3465 7.4328 23.9309 7.98761Z" fill="url(#paint5_radial_217_203)"/>
<defs>
<radialGradient id="paint0_radial_217_203" cx="0" cy="0" r="1" gradientUnits="userSpaceOnUse" gradientTransform="translate(21.5371 12.8359) rotate(90) scale(3.1875 4.31047)">
<stop offset="0.307692" stop-color="#452A3D"/>
<stop offset="0.626374" stop-color="#594052"/>
<stop offset="1" stop-color="#482C40"/>
</radialGradient>
<radialGradient id="paint1_radial_217_203" cx="0" cy="0" r="1" gradientUnits="userSpaceOnUse" gradientTransform="translate(10.5059 12.8359) rotate(90) scale(3.1875 4.31047)">
<stop offset="0.307692" stop-color="#452A3D"/>
<stop offset="0.626374" stop-color="#594052"/>
<stop offset="1" stop-color="#482C40"/>
</radialGradient>
<radialGradient id="paint2_radial_217_203" cx="0" cy="0" r="1" gradientUnits="userSpaceOnUse" gradientTransform="translate(9.8564 9.81565) rotate(-124.747) scale(3.41018 4.28513)">
<stop offset="0.552138" stop-color="#4A2F37"/>
<stop offset="0.822285" stop-color="#51394C"/>
<stop offset="0.881253" stop-color="#50394C"/>
<stop offset="1" stop-color="#4D3635"/>
</radialGradient>
<radialGradient id="paint3_radial_217_203" cx="0" cy="0" r="1" gradientUnits="userSpaceOnUse" gradientTransform="translate(10.7526 6.62374) rotate(-176.165) scale(0.413982 0.778569)">
<stop stop-color="#5A4950"/>
<stop offset="1" stop-color="#5D4C4F" stop-opacity="0"/>
</radialGradient>
<radialGradient id="paint4_radial_217_203" cx="0" cy="0" r="1" gradientUnits="userSpaceOnUse" gradientTransform="translate(22.2237 9.49804) rotate(-145.524) scale(3.94156 3.60988)">
<stop offset="0.641397" stop-color="#2F1F2A"/>
<stop offset="0.822285" stop-color="#51394C"/>
<stop offset="0.881253" stop-color="#50394C"/>
<stop offset="1" stop-color="#442E3E"/>
</radialGradient>
<radialGradient id="paint5_radial_217_203" cx="0" cy="0" r="1" gradientUnits="userSpaceOnUse" gradientTransform="translate(23.312 8.00006) rotate(129.805) scale(4.05269 3.26964)">
<stop offset="0.645531" stop-color="#362530" stop-opacity="0"/>
<stop offset="1" stop-color="#342330"/>
</radialGradient>
</defs>
</svg>
