<svg width="32" height="32" viewBox="0 0 32 32" fill="none" xmlns="http://www.w3.org/2000/svg">
<path d="M8.9818 11.1909C9.02988 10.9436 9.13995 10.6405 9.3492 10.4125C9.52853 10.2171 9.84723 10 10.5002 10C11.1419 10 11.4687 10.2216 11.6574 10.4288C11.8756 10.6683 11.9807 10.9737 12.0149 11.1711C12.1094 11.7152 12.6271 12.0797 13.1713 11.9853C13.7154 11.8908 14.0799 11.373 13.9854 10.8289C13.9064 10.374 13.6802 9.6794 13.1359 9.08196C12.5623 8.45218 11.6957 8 10.5002 8C9.31588 8 8.45293 8.4313 7.87576 9.06013C7.32851 9.65637 7.10721 10.3533 7.01857 10.8091C6.91316 11.3513 7.26719 11.8762 7.80932 11.9816C8.35145 12.087 8.87639 11.733 8.9818 11.1909Z" fill="#583F51"/>
<path d="M8.9818 11.1909C9.02988 10.9436 9.13995 10.6405 9.3492 10.4125C9.52853 10.2171 9.84723 10 10.5002 10C11.1419 10 11.4687 10.2216 11.6574 10.4288C11.8756 10.6683 11.9807 10.9737 12.0149 11.1711C12.1094 11.7152 12.6271 12.0797 13.1713 11.9853C13.7154 11.8908 14.0799 11.373 13.9854 10.8289C13.9064 10.374 13.6802 9.6794 13.1359 9.08196C12.5623 8.45218 11.6957 8 10.5002 8C9.31588 8 8.45293 8.4313 7.87576 9.06013C7.32851 9.65637 7.10721 10.3533 7.01857 10.8091C6.91316 11.3513 7.26719 11.8762 7.80932 11.9816C8.35145 12.087 8.87639 11.733 8.9818 11.1909Z" fill="url(#paint0_radial_226_322)"/>
<path d="M8.9818 11.1909C9.02988 10.9436 9.13995 10.6405 9.3492 10.4125C9.52853 10.2171 9.84723 10 10.5002 10C11.1419 10 11.4687 10.2216 11.6574 10.4288C11.8756 10.6683 11.9807 10.9737 12.0149 11.1711C12.1094 11.7152 12.6271 12.0797 13.1713 11.9853C13.7154 11.8908 14.0799 11.373 13.9854 10.8289C13.9064 10.374 13.6802 9.6794 13.1359 9.08196C12.5623 8.45218 11.6957 8 10.5002 8C9.31588 8 8.45293 8.4313 7.87576 9.06013C7.32851 9.65637 7.10721 10.3533 7.01857 10.8091C6.91316 11.3513 7.26719 11.8762 7.80932 11.9816C8.35145 12.087 8.87639 11.733 8.9818 11.1909Z" fill="url(#paint1_radial_226_322)"/>
<path d="M8.9818 11.1909C9.02988 10.9436 9.13995 10.6405 9.3492 10.4125C9.52853 10.2171 9.84723 10 10.5002 10C11.1419 10 11.4687 10.2216 11.6574 10.4288C11.8756 10.6683 11.9807 10.9737 12.0149 11.1711C12.1094 11.7152 12.6271 12.0797 13.1713 11.9853C13.7154 11.8908 14.0799 11.373 13.9854 10.8289C13.9064 10.374 13.6802 9.6794 13.1359 9.08196C12.5623 8.45218 11.6957 8 10.5002 8C9.31588 8 8.45293 8.4313 7.87576 9.06013C7.32851 9.65637 7.10721 10.3533 7.01857 10.8091C6.91316 11.3513 7.26719 11.8762 7.80932 11.9816C8.35145 12.087 8.87639 11.733 8.9818 11.1909Z" fill="url(#paint2_radial_226_322)"/>
<path d="M19.9818 11.1909C20.0299 10.9436 20.14 10.6405 20.3492 10.4125C20.5285 10.2171 20.8472 10 21.5002 10C22.1419 10 22.4687 10.2216 22.6574 10.4288C22.8756 10.6683 22.9807 10.9737 23.0149 11.1711C23.1094 11.7152 23.6271 12.0797 24.1713 11.9853C24.7154 11.8908 25.0799 11.373 24.9854 10.8289C24.9064 10.374 24.6802 9.6794 24.1359 9.08196C23.5623 8.45218 22.6957 8 21.5002 8C20.3159 8 19.4529 8.4313 18.8758 9.06013C18.3285 9.65637 18.1072 10.3533 18.0186 10.8091C17.9132 11.3513 18.2672 11.8762 18.8093 11.9816C19.3514 12.087 19.8764 11.733 19.9818 11.1909Z" fill="#583F51"/>
<path d="M19.9818 11.1909C20.0299 10.9436 20.14 10.6405 20.3492 10.4125C20.5285 10.2171 20.8472 10 21.5002 10C22.1419 10 22.4687 10.2216 22.6574 10.4288C22.8756 10.6683 22.9807 10.9737 23.0149 11.1711C23.1094 11.7152 23.6271 12.0797 24.1713 11.9853C24.7154 11.8908 25.0799 11.373 24.9854 10.8289C24.9064 10.374 24.6802 9.6794 24.1359 9.08196C23.5623 8.45218 22.6957 8 21.5002 8C20.3159 8 19.4529 8.4313 18.8758 9.06013C18.3285 9.65637 18.1072 10.3533 18.0186 10.8091C17.9132 11.3513 18.2672 11.8762 18.8093 11.9816C19.3514 12.087 19.8764 11.733 19.9818 11.1909Z" fill="url(#paint3_radial_226_322)"/>
<path d="M19.9818 11.1909C20.0299 10.9436 20.14 10.6405 20.3492 10.4125C20.5285 10.2171 20.8472 10 21.5002 10C22.1419 10 22.4687 10.2216 22.6574 10.4288C22.8756 10.6683 22.9807 10.9737 23.0149 11.1711C23.1094 11.7152 23.6271 12.0797 24.1713 11.9853C24.7154 11.8908 25.0799 11.373 24.9854 10.8289C24.9064 10.374 24.6802 9.6794 24.1359 9.08196C23.5623 8.45218 22.6957 8 21.5002 8C20.3159 8 19.4529 8.4313 18.8758 9.06013C18.3285 9.65637 18.1072 10.3533 18.0186 10.8091C17.9132 11.3513 18.2672 11.8762 18.8093 11.9816C19.3514 12.087 19.8764 11.733 19.9818 11.1909Z" fill="url(#paint4_radial_226_322)"/>
<path d="M19.9818 11.1909C20.0299 10.9436 20.14 10.6405 20.3492 10.4125C20.5285 10.2171 20.8472 10 21.5002 10C22.1419 10 22.4687 10.2216 22.6574 10.4288C22.8756 10.6683 22.9807 10.9737 23.0149 11.1711C23.1094 11.7152 23.6271 12.0797 24.1713 11.9853C24.7154 11.8908 25.0799 11.373 24.9854 10.8289C24.9064 10.374 24.6802 9.6794 24.1359 9.08196C23.5623 8.45218 22.6957 8 21.5002 8C20.3159 8 19.4529 8.4313 18.8758 9.06013C18.3285 9.65637 18.1072 10.3533 18.0186 10.8091C17.9132 11.3513 18.2672 11.8762 18.8093 11.9816C19.3514 12.087 19.8764 11.733 19.9818 11.1909Z" fill="url(#paint5_radial_226_322)"/>
<defs>
<radialGradient id="paint0_radial_226_322" cx="0" cy="0" r="1" gradientUnits="userSpaceOnUse" gradientTransform="translate(10.5002 11.2282) rotate(90) scale(2.78818)">
<stop offset="0.188596" stop-color="#1D1019"/>
<stop offset="1" stop-color="#462B3F" stop-opacity="0"/>
</radialGradient>
<radialGradient id="paint1_radial_226_322" cx="0" cy="0" r="1" gradientUnits="userSpaceOnUse" gradientTransform="translate(10.5002 11.2282) rotate(90) scale(3.60751 4.0944)">
<stop offset="0.718644" stop-color="#462B3F" stop-opacity="0"/>
<stop offset="1" stop-color="#1D1019"/>
</radialGradient>
<radialGradient id="paint2_radial_226_322" cx="0" cy="0" r="1" gradientUnits="userSpaceOnUse" gradientTransform="translate(10.5002 9.375) rotate(90) scale(3.3125 6.95835)">
<stop offset="0.429103" stop-color="#462B3F" stop-opacity="0"/>
<stop offset="1" stop-color="#1D1019"/>
</radialGradient>
<radialGradient id="paint3_radial_226_322" cx="0" cy="0" r="1" gradientUnits="userSpaceOnUse" gradientTransform="translate(21.5002 11.2282) rotate(90) scale(2.78818)">
<stop offset="0.188596" stop-color="#1D1019"/>
<stop offset="1" stop-color="#462B3F" stop-opacity="0"/>
</radialGradient>
<radialGradient id="paint4_radial_226_322" cx="0" cy="0" r="1" gradientUnits="userSpaceOnUse" gradientTransform="translate(21.5002 11.2282) rotate(90) scale(3.60751 4.0944)">
<stop offset="0.718644" stop-color="#462B3F" stop-opacity="0"/>
<stop offset="1" stop-color="#1D1019"/>
</radialGradient>
<radialGradient id="paint5_radial_226_322" cx="0" cy="0" r="1" gradientUnits="userSpaceOnUse" gradientTransform="translate(21.5002 9.375) rotate(90) scale(3.3125 6.95835)">
<stop offset="0.429103" stop-color="#462B3F" stop-opacity="0"/>
<stop offset="1" stop-color="#1D1019"/>
</radialGradient>
</defs>
</svg>
