<svg width="32" height="32" viewBox="0 0 32 32" fill="none" xmlns="http://www.w3.org/2000/svg">
<path d="M13.5 18C13.5 18 15 16.5 15 14.5C15 12.0147 12.9853 10 10.5 10C8.01472 10 6 12.0147 6 14.5C6 16.5 7.04226 17.3801 7.04226 17.3801C7.04226 17.3801 9.05528 16.8367 10.5 17C12.5 17.226 13.5 18 13.5 18Z" fill="white"/>
<path d="M13 14.25C13 15.3546 12.1046 16.25 11 16.25C9.89543 16.25 9 15.3546 9 14.25C9 13.1454 9.89543 12.25 11 12.25C12.1046 12.25 13 13.1454 13 14.25Z" fill="url(#paint0_linear_216_346)"/>
<path fill-rule="evenodd" clip-rule="evenodd" d="M22.7719 14.5649C22.5633 14.2853 22.2176 13.995 21.5388 14.0001C20.852 14.0051 20.5109 14.2989 20.3105 14.5712C20.1997 14.7217 20.127 14.8766 20.0825 14.995C20.0608 15.0529 20.0473 15.0983 20.04 15.1248C20.0368 15.1366 20.035 15.1444 20.0342 15.1475C19.9238 15.6832 19.4024 16.0316 18.8641 15.9269C18.322 15.8216 17.9679 15.2967 18.0732 14.7545C18.1101 14.5999 18.1101 14.5999 18.1101 14.5999C18.1316 14.5209 18.1638 14.4154 18.2101 14.2922C18.3016 14.0482 18.4539 13.7197 18.6997 13.3858C19.2122 12.6894 20.1093 12.0106 21.524 12.0001C22.9468 11.9896 23.855 12.672 24.375 13.369C24.6246 13.7036 24.7811 14.0338 24.8757 14.2789C24.9236 14.4028 24.9572 14.5087 24.9797 14.5881C25.1128 15.0569 24.9237 15.7834 24.2421 15.9246C23.7049 16.0359 23.1791 15.6937 23.0623 15.159C23.0615 15.1558 23.0594 15.1473 23.0557 15.1343C23.0478 15.1064 23.0332 15.0594 23.0101 14.9996C22.9629 14.8775 22.8865 14.7185 22.7719 14.5649Z" fill="url(#paint1_radial_216_346)"/>
<path fill-rule="evenodd" clip-rule="evenodd" d="M23.9307 9.98761C24.5236 10.5505 24.8822 11.2277 25.0256 11.6581C25.113 11.9201 25.3961 12.0617 25.6581 11.9743C25.9201 11.887 26.0617 11.6039 25.9743 11.3419C25.7845 10.7723 25.343 9.94951 24.6192 9.26239C23.887 8.5672 22.8521 8 21.5 8C21.2238 8 21 8.22386 21 8.5C21 8.77614 21.2238 9 21.5 9C22.5479 9 23.3463 9.4328 23.9307 9.98761Z" fill="url(#paint2_radial_216_346)"/>
<path fill-rule="evenodd" clip-rule="evenodd" d="M23.9307 9.98761C24.5236 10.5505 24.8822 11.2277 25.0256 11.6581C25.113 11.9201 25.3961 12.0617 25.6581 11.9743C25.9201 11.887 26.0617 11.6039 25.9743 11.3419C25.7845 10.7723 25.343 9.94951 24.6192 9.26239C23.887 8.5672 22.8521 8 21.5 8C21.2238 8 21 8.22386 21 8.5C21 8.77614 21.2238 9 21.5 9C22.5479 9 23.3463 9.4328 23.9307 9.98761Z" fill="url(#paint3_radial_216_346)"/>
<path fill-rule="evenodd" clip-rule="evenodd" d="M8.06927 7.98761C7.47637 8.55049 7.11781 9.22774 6.97436 9.65811C6.88703 9.92009 6.60387 10.0617 6.3419 9.97434C6.07993 9.88702 5.93835 9.60386 6.02567 9.34189C6.21555 8.77226 6.65699 7.94951 7.38076 7.26239C8.11302 6.5672 9.14792 6 10.5 6C10.7762 6 11 6.22386 11 6.5C11 6.77614 10.7762 7 10.5 7C9.45211 7 8.65367 7.4328 8.06927 7.98761Z" fill="url(#paint4_radial_216_346)"/>
<path fill-rule="evenodd" clip-rule="evenodd" d="M8.06927 7.98761C7.47637 8.55049 7.11781 9.22774 6.97436 9.65811C6.88703 9.92009 6.60387 10.0617 6.3419 9.97434C6.07993 9.88702 5.93835 9.60386 6.02567 9.34189C6.21555 8.77226 6.65699 7.94951 7.38076 7.26239C8.11302 6.5672 9.14792 6 10.5 6C10.7762 6 11 6.22386 11 6.5C11 6.77614 10.7762 7 10.5 7C9.45211 7 8.65367 7.4328 8.06927 7.98761Z" fill="url(#paint5_radial_216_346)"/>
<defs>
<linearGradient id="paint0_linear_216_346" x1="12.5385" y1="12.25" x2="10.8542" y2="15.5342" gradientUnits="userSpaceOnUse">
<stop stop-color="#553B3E"/>
<stop offset="1" stop-color="#3D2432"/>
</linearGradient>
<radialGradient id="paint1_radial_216_346" cx="0" cy="0" r="1" gradientUnits="userSpaceOnUse" gradientTransform="translate(21.5371 14.8359) rotate(90) scale(3.1875 4.31047)">
<stop offset="0.307692" stop-color="#452A3D"/>
<stop offset="0.626374" stop-color="#594052"/>
<stop offset="1" stop-color="#482C40"/>
</radialGradient>
<radialGradient id="paint2_radial_216_346" cx="0" cy="0" r="1" gradientUnits="userSpaceOnUse" gradientTransform="translate(22.2235 11.498) rotate(-145.524) scale(3.94156 3.60988)">
<stop offset="0.641397" stop-color="#2F1F2A"/>
<stop offset="0.822285" stop-color="#51394C"/>
<stop offset="0.881253" stop-color="#50394C"/>
<stop offset="1" stop-color="#442E3E"/>
</radialGradient>
<radialGradient id="paint3_radial_216_346" cx="0" cy="0" r="1" gradientUnits="userSpaceOnUse" gradientTransform="translate(23.3119 10.0001) rotate(129.805) scale(4.05269 3.26964)">
<stop offset="0.645531" stop-color="#362530" stop-opacity="0"/>
<stop offset="1" stop-color="#342330"/>
</radialGradient>
<radialGradient id="paint4_radial_216_346" cx="0" cy="0" r="1" gradientUnits="userSpaceOnUse" gradientTransform="translate(9.85652 9.81565) rotate(-124.747) scale(3.41018 4.28513)">
<stop offset="0.552138" stop-color="#4A2F37"/>
<stop offset="0.822285" stop-color="#51394C"/>
<stop offset="0.881253" stop-color="#50394C"/>
<stop offset="1" stop-color="#4D3635"/>
</radialGradient>
<radialGradient id="paint5_radial_216_346" cx="0" cy="0" r="1" gradientUnits="userSpaceOnUse" gradientTransform="translate(10.7527 6.62374) rotate(-176.165) scale(0.413982 0.778569)">
<stop stop-color="#5A4950"/>
<stop offset="1" stop-color="#5D4C4F" stop-opacity="0"/>
</radialGradient>
</defs>
</svg>
