<svg width="32" height="32" viewBox="0 0 32 32" fill="none" xmlns="http://www.w3.org/2000/svg">
<path d="M10.5 19C12.9853 19 15 16.9853 15 14.5C15 12.0147 12.9853 10 10.5 10C8.01472 10 6 12.0147 6 14.5C6 16.9853 8.01472 19 10.5 19Z" fill="white"/>
<path d="M21.5 19C23.9853 19 26 16.9853 26 14.5C26 12.0147 23.9853 10 21.5 10C19.0147 10 17 12.0147 17 14.5C17 16.9853 19.0147 19 21.5 19Z" fill="white"/>
<path d="M12 17C13.1046 17 14 16.1046 14 15C14 13.8954 13.1046 13 12 13C10.8954 13 10 13.8954 10 15C10 16.1046 10.8954 17 12 17Z" fill="url(#paint0_linear_216_386)"/>
<path d="M20 17C21.1046 17 22 16.1046 22 15C22 13.8954 21.1046 13 20 13C18.8954 13 18 13.8954 18 15C18 16.1046 18.8954 17 20 17Z" fill="url(#paint1_linear_216_386)"/>
<path fill-rule="evenodd" clip-rule="evenodd" d="M8.06927 7.98761C7.47637 8.55049 7.11781 9.22774 6.97436 9.65811C6.88703 9.92009 6.60387 10.0617 6.3419 9.97434C6.07993 9.88702 5.93835 9.60386 6.02567 9.34189C6.21555 8.77226 6.65699 7.94951 7.38076 7.26239C8.11302 6.5672 9.14792 6 10.5 6C10.7762 6 11 6.22386 11 6.5C11 6.77614 10.7762 7 10.5 7C9.45211 7 8.65367 7.4328 8.06927 7.98761Z" fill="url(#paint2_linear_216_386)"/>
<path fill-rule="evenodd" clip-rule="evenodd" d="M23.9307 7.98761C24.5236 8.55049 24.8822 9.22774 25.0256 9.65811C25.113 9.92009 25.3961 10.0617 25.6581 9.97434C25.9201 9.88702 26.0617 9.60386 25.9743 9.34189C25.7845 8.77226 25.343 7.94951 24.6192 7.26239C23.887 6.5672 22.8521 6 21.5 6C21.2238 6 21 6.22386 21 6.5C21 6.77614 21.2238 7 21.5 7C22.5479 7 23.3463 7.4328 23.9307 7.98761Z" fill="url(#paint3_linear_216_386)"/>
<defs>
<linearGradient id="paint0_linear_216_386" x1="20.6154" y1="13" x2="19.9265" y2="17.0302" gradientUnits="userSpaceOnUse">
<stop stop-color="#553B3E"/>
<stop offset="1" stop-color="#3D2432"/>
</linearGradient>
<linearGradient id="paint1_linear_216_386" x1="20.6154" y1="13" x2="19.9265" y2="17.0302" gradientUnits="userSpaceOnUse">
<stop stop-color="#553B3E"/>
<stop offset="1" stop-color="#3D2432"/>
</linearGradient>
<linearGradient id="paint2_linear_216_386" x1="6.83335" y1="10.4" x2="6.83335" y2="8.6" gradientUnits="userSpaceOnUse">
<stop offset="0.0299084" stop-color="#524049"/>
<stop offset="1" stop-color="#4A2C42"/>
</linearGradient>
<linearGradient id="paint3_linear_216_386" x1="25.1667" y1="10.4" x2="25.1667" y2="8.6" gradientUnits="userSpaceOnUse">
<stop offset="0.0299084" stop-color="#524049"/>
<stop offset="1" stop-color="#4A2C42"/>
</linearGradient>
</defs>
</svg>
