<svg width="32" height="32" viewBox="0 0 32 32" fill="none" xmlns="http://www.w3.org/2000/svg">
<path d="M14.498 11.5C14.498 12.9077 13.9237 14.1644 13.0242 14.9896C12.4513 14.7313 11.6781 14.5 10.5 14.5C9.53447 14.5 8.60779 14.6554 7.83246 14.8536C7.01465 14.0296 6.5 12.8325 6.5 11.5C6.5 9.01472 8.29042 7 10.499 7C12.7076 7 14.498 9.01472 14.498 11.5Z" fill="white"/>
<path d="M25.5039 11.5C25.5039 12.8328 24.9888 14.0304 24.1704 14.8543C23.3945 14.6558 22.4667 14.5 21.5 14.5C20.323 14.5 19.5501 14.7309 18.9774 14.9889C18.0781 14.1637 17.5039 12.9073 17.5039 11.5C17.5039 9.01472 19.2948 7 21.5039 7C23.713 7 25.5039 9.01472 25.5039 11.5Z" fill="white"/>
<path d="M11 14C12.1046 14 13 12.9926 13 11.75C13 10.5074 12.1046 9.5 11 9.5C9.89543 9.5 9 10.5074 9 11.75C9 12.9926 9.89543 14 11 14Z" fill="url(#paint0_linear_267_2424)"/>
<path d="M21 14C22.1046 14 23 12.9926 23 11.75C23 10.5074 22.1046 9.5 21 9.5C19.8954 9.5 19 10.5074 19 11.75C19 12.9926 19.8954 14 21 14Z" fill="url(#paint1_linear_267_2424)"/>
<defs>
<linearGradient id="paint0_linear_267_2424" x1="21.3846" y1="9.5" x2="20.6358" y2="14.043" gradientUnits="userSpaceOnUse">
<stop stop-color="#553B3E"/>
<stop offset="1" stop-color="#3D2432"/>
</linearGradient>
<linearGradient id="paint1_linear_267_2424" x1="21.3846" y1="9.5" x2="20.6358" y2="14.043" gradientUnits="userSpaceOnUse">
<stop stop-color="#553B3E"/>
<stop offset="1" stop-color="#3D2432"/>
</linearGradient>
</defs>
</svg>
