<svg width="32" height="32" viewBox="0 0 32 32" fill="none" xmlns="http://www.w3.org/2000/svg">
<path d="M10.4191 16.6732C12.742 16.6732 14.6251 14.7876 14.6251 12.4616C14.6251 10.1356 12.742 8.25 10.4191 8.25C8.09621 8.25 6.21313 10.1356 6.21313 12.4616C6.21313 14.7876 8.09621 16.6732 10.4191 16.6732Z" fill="white"/>
<path d="M21.5683 16.75C23.9123 16.75 25.8126 14.8472 25.8126 12.5C25.8126 10.1528 23.9123 8.25 21.5683 8.25C19.2242 8.25 17.324 10.1528 17.324 12.5C17.324 14.8472 19.2242 16.75 21.5683 16.75Z" fill="white"/>
<path fill-rule="evenodd" clip-rule="evenodd" d="M11 15C12.1046 15 13 14.1046 13 13C13 11.8954 12.1046 11 11 11C9.89543 11 9 11.8954 9 13C9 14.1046 9.89543 15 11 15ZM21 15C22.1046 15 23 14.1046 23 13C23 11.8954 22.1046 11 21 11C19.8954 11 19 11.8954 19 13C19 14.1046 19.8954 15 21 15Z" fill="url(#paint0_linear_226_410)"/>
<defs>
<linearGradient id="paint0_linear_226_410" x1="24.9444" y1="10.3333" x2="24.37" y2="15.0249" gradientUnits="userSpaceOnUse">
<stop stop-color="#553B3E"/>
<stop offset="1" stop-color="#3D2432"/>
</linearGradient>
</defs>
</svg>
