<svg width="32" height="32" viewBox="0 0 32 32" fill="none" xmlns="http://www.w3.org/2000/svg">
<path d="M10.4189 16.2244C12.7417 16.2244 14.6248 14.3414 14.6248 12.0185C14.6248 9.69557 12.7417 7.8125 10.4189 7.8125C8.09597 7.8125 6.21289 9.69557 6.21289 12.0185C6.21289 14.3414 8.09597 16.2244 10.4189 16.2244Z" fill="white"/>
<path d="M21.568 16.3011C23.9121 16.3011 25.8123 14.4009 25.8123 12.0568C25.8123 9.71274 23.9121 7.8125 21.568 7.8125C19.224 7.8125 17.3237 9.71274 17.3237 12.0568C17.3237 14.4009 19.224 16.3011 21.568 16.3011Z" fill="white"/>
<path d="M10 13.5C11.1046 13.5 12 12.6046 12 11.5C12 10.3954 11.1046 9.5 10 9.5C8.89543 9.5 8 10.3954 8 11.5C8 12.6046 8.89543 13.5 10 13.5Z" fill="url(#paint0_linear_267_2428)"/>
<path d="M21 13.5C22.1046 13.5 23 12.6046 23 11.5C23 10.3954 22.1046 9.5 21 9.5C19.8954 9.5 19 10.3954 19 11.5C19 12.6046 19.8954 13.5 21 13.5Z" fill="url(#paint1_linear_267_2428)"/>
<path fill-rule="evenodd" clip-rule="evenodd" d="M7.14645 4.14645C7.54338 3.74951 8.63008 3 10 3C11.3699 3 12.4566 3.74951 12.8536 4.14645C13.0488 4.34171 13.0488 4.65829 12.8536 4.85355C12.6583 5.04882 12.3417 5.04882 12.1464 4.85355C11.8767 4.58382 11.0301 4 10 4C8.96992 4 8.12329 4.58382 7.85355 4.85355C7.65829 5.04882 7.34171 5.04882 7.14645 4.85355C6.95118 4.65829 6.95118 4.34171 7.14645 4.14645Z" fill="url(#paint2_radial_267_2428)"/>
<path fill-rule="evenodd" clip-rule="evenodd" d="M7.14645 4.14645C7.54338 3.74951 8.63008 3 10 3C11.3699 3 12.4566 3.74951 12.8536 4.14645C13.0488 4.34171 13.0488 4.65829 12.8536 4.85355C12.6583 5.04882 12.3417 5.04882 12.1464 4.85355C11.8767 4.58382 11.0301 4 10 4C8.96992 4 8.12329 4.58382 7.85355 4.85355C7.65829 5.04882 7.34171 5.04882 7.14645 4.85355C6.95118 4.65829 6.95118 4.34171 7.14645 4.14645Z" fill="url(#paint3_radial_267_2428)"/>
<path fill-rule="evenodd" clip-rule="evenodd" d="M18.1464 8.14645C17.9512 8.34172 17.9512 8.65829 18.1464 8.85355C18.3409 9.04798 18.6556 9.04881 18.851 8.85606L18.8537 8.85354C18.8575 8.85 18.8649 8.84311 18.8761 8.83332C18.8985 8.81373 18.9356 8.78264 18.9875 8.74375C19.0913 8.66592 19.2534 8.55734 19.4736 8.44721C19.9125 8.22779 20.5864 8 21.5 8C22.4136 8 23.0875 8.22779 23.5264 8.44721C23.7466 8.55734 23.9087 8.66592 24.0125 8.74375C24.0643 8.78264 24.1015 8.81373 24.1239 8.83332C24.1351 8.84311 24.1425 8.85 24.1463 8.85354L24.149 8.85606C24.3444 9.04881 24.6591 9.04798 24.8536 8.85355C25.0488 8.65829 25.0488 8.34171 24.8536 8.14645L24.8528 8.14571L24.852 8.14488L24.85 8.14295L24.845 8.13801L24.8302 8.124C24.8184 8.11289 24.8024 8.0983 24.7824 8.08074C24.7423 8.04564 24.6856 7.99861 24.6125 7.94375C24.4663 7.83408 24.2534 7.69266 23.9736 7.55279C23.4125 7.27221 22.5864 7 21.5 7C20.4136 7 19.5875 7.27221 19.0264 7.55279C18.7466 7.69266 18.5337 7.83408 18.3875 7.94375C18.3143 7.99861 18.2577 8.04564 18.2176 8.08074C18.1976 8.0983 18.1816 8.11289 18.1697 8.124L18.155 8.13801L18.15 8.14295L18.148 8.14488L18.1472 8.14571L18.1464 8.14645Z" fill="url(#paint4_radial_267_2428)"/>
<path fill-rule="evenodd" clip-rule="evenodd" d="M18.1464 8.14645C17.9512 8.34172 17.9512 8.65829 18.1464 8.85355C18.3409 9.04798 18.6556 9.04881 18.851 8.85606L18.8537 8.85354C18.8575 8.85 18.8649 8.84311 18.8761 8.83332C18.8985 8.81373 18.9356 8.78264 18.9875 8.74375C19.0913 8.66592 19.2534 8.55734 19.4736 8.44721C19.9125 8.22779 20.5864 8 21.5 8C22.4136 8 23.0875 8.22779 23.5264 8.44721C23.7466 8.55734 23.9087 8.66592 24.0125 8.74375C24.0643 8.78264 24.1015 8.81373 24.1239 8.83332C24.1351 8.84311 24.1425 8.85 24.1463 8.85354L24.149 8.85606C24.3444 9.04881 24.6591 9.04798 24.8536 8.85355C25.0488 8.65829 25.0488 8.34171 24.8536 8.14645L24.8528 8.14571L24.852 8.14488L24.85 8.14295L24.845 8.13801L24.8302 8.124C24.8184 8.11289 24.8024 8.0983 24.7824 8.08074C24.7423 8.04564 24.6856 7.99861 24.6125 7.94375C24.4663 7.83408 24.2534 7.69266 23.9736 7.55279C23.4125 7.27221 22.5864 7 21.5 7C20.4136 7 19.5875 7.27221 19.0264 7.55279C18.7466 7.69266 18.5337 7.83408 18.3875 7.94375C18.3143 7.99861 18.2577 8.04564 18.2176 8.08074C18.1976 8.0983 18.1816 8.11289 18.1697 8.124L18.155 8.13801L18.15 8.14295L18.148 8.14488L18.1472 8.14571L18.1464 8.14645Z" fill="url(#paint5_radial_267_2428)"/>
<defs>
<linearGradient id="paint0_linear_267_2428" x1="16.3824" y1="8.5" x2="15.8743" y2="13.2071" gradientUnits="userSpaceOnUse">
<stop stop-color="#553B3E"/>
<stop offset="1" stop-color="#3D2432"/>
</linearGradient>
<linearGradient id="paint1_linear_267_2428" x1="16.3824" y1="8.5" x2="15.8743" y2="13.2071" gradientUnits="userSpaceOnUse">
<stop stop-color="#553B3E"/>
<stop offset="1" stop-color="#3D2432"/>
</linearGradient>
<radialGradient id="paint2_radial_267_2428" cx="0" cy="0" r="1" gradientUnits="userSpaceOnUse" gradientTransform="translate(11.6278 4.90776) rotate(-149.007) scale(2.72073 3.22241)">
<stop offset="0.552138" stop-color="#4A2F37"/>
<stop offset="0.822285" stop-color="#51394C"/>
<stop offset="0.881253" stop-color="#50394C"/>
<stop offset="1" stop-color="#4D3635"/>
</radialGradient>
<radialGradient id="paint3_radial_267_2428" cx="0" cy="0" r="1" gradientUnits="userSpaceOnUse" gradientTransform="translate(12.7032 3.31186) rotate(-178.4) scale(0.495845 0.389993)">
<stop stop-color="#5A4950"/>
<stop offset="1" stop-color="#5D4C4F" stop-opacity="0"/>
</radialGradient>
<radialGradient id="paint4_radial_267_2428" cx="0" cy="0" r="1" gradientUnits="userSpaceOnUse" gradientTransform="translate(21.5 9.55451) scale(4.39857 2.61692)">
<stop offset="0.641397" stop-color="#2F1F2A"/>
<stop offset="0.822285" stop-color="#51394C"/>
<stop offset="0.881253" stop-color="#50394C"/>
<stop offset="1" stop-color="#442E3E"/>
</radialGradient>
<radialGradient id="paint5_radial_267_2428" cx="0" cy="0" r="1" gradientUnits="userSpaceOnUse" gradientTransform="translate(21.5 8) scale(3.69608 3.36735)">
<stop offset="0.645531" stop-color="#362530" stop-opacity="0"/>
<stop offset="1" stop-color="#342330"/>
</radialGradient>
</defs>
</svg>
