<svg width="32" height="32" viewBox="0 0 32 32" fill="none" xmlns="http://www.w3.org/2000/svg">
<path fill-rule="evenodd" clip-rule="evenodd" d="M11.166 29.7969V8.5H7.66602C6.83759 8.5 6.16602 9.17157 6.16602 10L6.16602 26.9093C7.49928 28.1904 9.16591 29.1835 11.166 29.7969ZM26.166 26.9072C24.8329 28.1888 23.1662 29.1824 21.166 29.7962V8.5H24.666C25.4944 8.5 26.166 9.17157 26.166 10V26.9072Z" fill="url(#paint0_linear_267_2456)"/>
<path fill-rule="evenodd" clip-rule="evenodd" d="M7.10808 9.83484C6.92636 10.3468 6.36728 10.6213 5.84957 10.4487C5.32563 10.274 5.04247 9.70772 5.21712 9.18377L5.21749 9.18264L5.21788 9.18147L5.21871 9.17903L5.22053 9.17369L5.22487 9.16129C5.22807 9.15226 5.23191 9.14171 5.23643 9.12975C5.24546 9.10585 5.25723 9.0762 5.27204 9.04163C5.30161 8.97264 5.34373 8.8831 5.40102 8.77998C5.51501 8.57479 5.69326 8.30833 5.95869 8.04289C6.5086 7.49298 7.38325 7 8.6658 7C9.94835 7 10.823 7.49298 11.3729 8.04289C11.6383 8.30833 11.8166 8.57479 11.9306 8.77998C11.9879 8.8831 12.03 8.97264 12.0596 9.04163C12.0744 9.0762 12.0861 9.10585 12.0952 9.12975C12.0997 9.14171 12.1035 9.15226 12.1067 9.16129L12.1111 9.17369L12.1129 9.17903L12.1137 9.18147L12.1141 9.18264L12.1145 9.18377C12.2891 9.70772 12.006 10.274 11.482 10.4487C10.9643 10.6213 10.4052 10.3468 10.2235 9.83484C10.2235 9.83484 10.2222 9.83175 10.2213 9.82947C10.2157 9.81643 10.2031 9.78877 10.1823 9.75127C10.14 9.67521 10.0683 9.56667 9.95869 9.45711C9.7586 9.25702 9.38325 9 8.6658 9C7.94835 9 7.57299 9.25702 7.37291 9.45711C7.26334 9.56667 7.19158 9.67521 7.14933 9.75127C7.12849 9.78877 7.11592 9.81643 7.11033 9.82947C7.10935 9.83175 7.10808 9.83484 7.10808 9.83484Z" fill="url(#paint1_radial_267_2456)"/>
<path fill-rule="evenodd" clip-rule="evenodd" d="M22.1081 9.83484C21.9264 10.3468 21.3673 10.6213 20.8496 10.4487C20.3256 10.274 20.0425 9.70772 20.2171 9.18377L20.2175 9.18264L20.2179 9.18147L20.2187 9.17903L20.2205 9.17369L20.2249 9.16129C20.2281 9.15226 20.2319 9.14171 20.2364 9.12975C20.2455 9.10585 20.2572 9.0762 20.272 9.04163C20.3016 8.97264 20.3437 8.8831 20.401 8.77998C20.515 8.57479 20.6933 8.30833 20.9587 8.04289C21.5086 7.49298 22.3832 7 23.6658 7C24.9484 7 25.823 7.49298 26.3729 8.04289C26.6383 8.30833 26.8166 8.57479 26.9306 8.77998C26.9879 8.8831 27.03 8.97264 27.0596 9.04163C27.0744 9.0762 27.0861 9.10585 27.0952 9.12975C27.0997 9.14171 27.1035 9.15226 27.1067 9.16129L27.1111 9.17369L27.1129 9.17903L27.1137 9.18147L27.1141 9.18264L27.1145 9.18377C27.2891 9.70772 27.006 10.274 26.482 10.4487C25.9643 10.6213 25.4052 10.3468 25.2235 9.83484C25.2235 9.83484 25.2222 9.83175 25.2213 9.82947C25.2157 9.81643 25.2031 9.78877 25.1823 9.75127C25.14 9.67521 25.0683 9.56667 24.9587 9.45711C24.7586 9.25702 24.3832 9 23.6658 9C22.9484 9 22.573 9.25702 22.3729 9.45711C22.2633 9.56667 22.1916 9.67521 22.1493 9.75127C22.1285 9.78877 22.1159 9.81643 22.1103 9.82947C22.1094 9.83175 22.1081 9.83484 22.1081 9.83484Z" fill="url(#paint2_radial_267_2456)"/>
<defs>
<linearGradient id="paint0_linear_267_2456" x1="23.666" y1="8.5" x2="23.666" y2="30.5" gradientUnits="userSpaceOnUse">
<stop stop-color="#6D9DFF"/>
<stop offset="1" stop-color="#4864FF"/>
</linearGradient>
<radialGradient id="paint1_radial_267_2456" cx="0" cy="0" r="1" gradientUnits="userSpaceOnUse" gradientTransform="translate(8.6658 10.5) rotate(-90) scale(3.5)">
<stop offset="0.404968" stop-color="#432552"/>
<stop offset="0.703424" stop-color="#503F44"/>
<stop offset="0.805624" stop-color="#503F44"/>
<stop offset="1" stop-color="#4C342C"/>
</radialGradient>
<radialGradient id="paint2_radial_267_2456" cx="0" cy="0" r="1" gradientUnits="userSpaceOnUse" gradientTransform="translate(23.6658 10.5) rotate(-90) scale(3.5)">
<stop offset="0.404968" stop-color="#432552"/>
<stop offset="0.703424" stop-color="#503F44"/>
<stop offset="0.805624" stop-color="#503F44"/>
<stop offset="1" stop-color="#4C342C"/>
</radialGradient>
</defs>
</svg>
