<svg width="32" height="32" viewBox="0 0 32 32" fill="none" xmlns="http://www.w3.org/2000/svg">
<path fill-rule="evenodd" clip-rule="evenodd" d="M13.6129 10.1055C14.1068 10.3525 14.3071 10.9532 14.0601 11.4472C13.338 12.8913 11.8712 13.6525 10.4697 13.8546C9.08123 14.0549 7.4956 13.7441 6.45854 12.7071C6.06802 12.3166 6.06802 11.6834 6.45854 11.2929C6.84907 10.9023 7.48223 10.9023 7.87276 11.2929C8.3357 11.7558 9.21514 12.0149 10.1842 11.8751C11.1403 11.7372 11.9234 11.2484 12.2712 10.5528C12.5182 10.0588 13.1189 9.85856 13.6129 10.1055Z" fill="url(#paint0_linear_216_324)"/>
<path fill-rule="evenodd" clip-rule="evenodd" d="M18.7184 10.1055C18.2245 10.3525 18.0242 10.9532 18.2712 11.4472C18.9933 12.8913 20.4601 13.6525 21.8616 13.8546C23.2501 14.0549 24.8357 13.7441 25.8728 12.7071C26.2633 12.3166 26.2633 11.6834 25.8728 11.2929C25.4822 10.9023 24.8491 10.9023 24.4585 11.2929C23.9956 11.7558 23.1162 12.0149 22.1471 11.8751C21.191 11.7372 20.4079 11.2484 20.0601 10.5528C19.8131 10.0588 19.2124 9.85856 18.7184 10.1055Z" fill="url(#paint1_linear_216_324)"/>
<path fill-rule="evenodd" clip-rule="evenodd" d="M12.6656 5C12.9418 5 13.1656 5.22386 13.1656 5.5C13.1656 6.63568 12.7348 7.52418 12.0603 8.1237C11.3951 8.71505 10.5222 9 9.66565 9C9.38951 9 9.16565 8.77614 9.16565 8.5C9.16565 8.22386 9.38951 8 9.66565 8C10.3091 8 10.9362 7.78495 11.396 7.3763C11.8465 6.97582 12.1656 6.36432 12.1656 5.5C12.1656 5.22386 12.3895 5 12.6656 5Z" fill="url(#paint2_linear_216_324)"/>
<path fill-rule="evenodd" clip-rule="evenodd" d="M19.6656 5C19.3895 5 19.1656 5.22386 19.1656 5.5C19.1656 6.63568 19.5965 7.52418 20.271 8.1237C20.9362 8.71505 21.8091 9 22.6656 9C22.9418 9 23.1656 8.77614 23.1656 8.5C23.1656 8.22386 22.9418 8 22.6656 8C22.0222 8 21.3951 7.78495 20.9353 7.3763C20.4848 6.97582 20.1656 6.36432 20.1656 5.5C20.1656 5.22386 19.9418 5 19.6656 5Z" fill="url(#paint3_linear_216_324)"/>
<defs>
<linearGradient id="paint0_linear_216_324" x1="11.3656" y1="11.75" x2="11.1305" y2="13.1608" gradientUnits="userSpaceOnUse">
<stop stop-color="#52383E"/>
<stop offset="1" stop-color="#432A35"/>
</linearGradient>
<linearGradient id="paint1_linear_216_324" x1="20.9656" y1="11.75" x2="21.2008" y2="13.1608" gradientUnits="userSpaceOnUse">
<stop stop-color="#52383E"/>
<stop offset="1" stop-color="#432A35"/>
</linearGradient>
<linearGradient id="paint2_linear_216_324" x1="9.8323" y1="9.39987" x2="9.8323" y2="7.59992" gradientUnits="userSpaceOnUse">
<stop offset="0.0299084" stop-color="#524049"/>
<stop offset="1" stop-color="#4A2C42"/>
</linearGradient>
<linearGradient id="paint3_linear_216_324" x1="21.1656" y1="7" x2="19.6656" y2="8.5" gradientUnits="userSpaceOnUse">
<stop offset="0.0299084" stop-color="#524049"/>
<stop offset="1" stop-color="#4A2C42"/>
</linearGradient>
</defs>
</svg>
