<svg width="32" height="32" viewBox="0 0 32 32" fill="none" xmlns="http://www.w3.org/2000/svg">
<path d="M11.3662 5C11.3662 5 11.3662 7.64062 8.44434 7.89062" stroke="url(#paint0_radial_267_2478)" stroke-width="1.25" stroke-linecap="round" stroke-linejoin="round"/>
<path d="M20.6318 5C20.6318 5 20.6318 7.64062 23.5537 7.89062" stroke="url(#paint1_radial_267_2478)" stroke-width="1.25" stroke-linecap="round" stroke-linejoin="round"/>
<path d="M19.5141 9.01562C18.1742 9.72661 17.2617 11.136 17.2617 12.7584C17.2617 15.097 19.1575 16.9928 21.4961 16.9928C23.8347 16.9928 25.7305 15.097 25.7305 12.7584C25.7305 11.5112 25.1912 10.3899 24.3332 9.615C23.7756 9.79725 23.1789 9.89597 22.5586 9.89597C21.4358 9.89597 20.3902 9.57248 19.5141 9.01562Z" fill="white"/>
<circle cx="19.9414" cy="12.8287" r="1.95312" fill="#402931"/>
<path d="M12.484 9.01562C13.8238 9.72661 14.7363 11.136 14.7363 12.7584C14.7363 15.097 12.8405 16.9928 10.502 16.9928C8.16338 16.9928 6.26758 15.097 6.26758 12.7584C6.26758 11.5112 6.80682 10.3899 7.66487 9.615C8.22246 9.79725 8.81917 9.89597 9.43945 9.89597C10.5623 9.89597 11.6078 9.57248 12.484 9.01562Z" fill="white"/>
<circle cx="1.95312" cy="1.95312" r="1.95312" transform="matrix(-1 0 0 1 14.0098 10.8756)" fill="#402931"/>
<defs>
<radialGradient id="paint0_radial_267_2478" cx="0" cy="0" r="1" gradientUnits="userSpaceOnUse" gradientTransform="translate(9.06934 6.4375) rotate(49.8812) scale(4.02522 9.57068)">
<stop offset="0.137915" stop-color="#694F62"/>
<stop offset="0.398102" stop-color="#482641"/>
</radialGradient>
<radialGradient id="paint1_radial_267_2478" cx="0" cy="0" r="1" gradientUnits="userSpaceOnUse" gradientTransform="translate(22.9287 6.4375) rotate(130.119) scale(4.02522 9.57068)">
<stop offset="0.137915" stop-color="#694F62"/>
<stop offset="0.398102" stop-color="#482641"/>
</radialGradient>
</defs>
</svg>
