<svg width="32" height="32" viewBox="0 0 32 32" fill="none" xmlns="http://www.w3.org/2000/svg">
<path d="M10.5 17C12.9853 17 15 14.9853 15 12.5C15 10.0147 12.9853 8 10.5 8C8.01472 8 6 10.0147 6 12.5C6 14.9853 8.01472 17 10.5 17Z" fill="white"/>
<path d="M21.5 17C23.9853 17 26 14.9853 26 12.5C26 10.0147 23.9853 8 21.5 8C19.0147 8 17 10.0147 17 12.5C17 14.9853 19.0147 17 21.5 17Z" fill="white"/>
<path d="M12 15C13.1046 15 14 14.1046 14 13C14 11.8954 13.1046 11 12 11C10.8954 11 10 11.8954 10 13C10 14.1046 10.8954 15 12 15Z" fill="url(#paint0_linear_226_390)"/>
<path d="M20 15C21.1046 15 22 14.1046 22 13C22 11.8954 21.1046 11 20 11C18.8954 11 18 11.8954 18 13C18 14.1046 18.8954 15 20 15Z" fill="url(#paint1_linear_226_390)"/>
<path fill-rule="evenodd" clip-rule="evenodd" d="M8.06927 5.98761C7.47637 6.55049 7.11781 7.22774 6.97436 7.65811C6.88703 7.92009 6.60387 8.06167 6.3419 7.97434C6.07993 7.88702 5.93835 7.60386 6.02567 7.34189C6.21555 6.77226 6.65699 5.94951 7.38076 5.26239C8.11302 4.5672 9.14792 4 10.5 4C10.7762 4 11 4.22386 11 4.5C11 4.77614 10.7762 5 10.5 5C9.45211 5 8.65367 5.4328 8.06927 5.98761Z" fill="url(#paint2_linear_226_390)"/>
<path fill-rule="evenodd" clip-rule="evenodd" d="M23.9307 5.98761C24.5236 6.55049 24.8822 7.22774 25.0256 7.65811C25.113 7.92009 25.3961 8.06167 25.6581 7.97434C25.9201 7.88702 26.0617 7.60386 25.9743 7.34189C25.7845 6.77226 25.343 5.94951 24.6192 5.26239C23.887 4.5672 22.8521 4 21.5 4C21.2238 4 21 4.22386 21 4.5C21 4.77614 21.2238 5 21.5 5C22.5479 5 23.3463 5.4328 23.9307 5.98761Z" fill="url(#paint3_linear_226_390)"/>
<defs>
<linearGradient id="paint0_linear_226_390" x1="20.6154" y1="11" x2="19.9265" y2="15.0302" gradientUnits="userSpaceOnUse">
<stop stop-color="#553B3E"/>
<stop offset="1" stop-color="#3D2432"/>
</linearGradient>
<linearGradient id="paint1_linear_226_390" x1="20.6154" y1="11" x2="19.9265" y2="15.0302" gradientUnits="userSpaceOnUse">
<stop stop-color="#553B3E"/>
<stop offset="1" stop-color="#3D2432"/>
</linearGradient>
<linearGradient id="paint2_linear_226_390" x1="6.83335" y1="8.4" x2="6.83335" y2="6.6" gradientUnits="userSpaceOnUse">
<stop offset="0.0299084" stop-color="#524049"/>
<stop offset="1" stop-color="#4A2C42"/>
</linearGradient>
<linearGradient id="paint3_linear_226_390" x1="25.1667" y1="8.4" x2="25.1667" y2="6.6" gradientUnits="userSpaceOnUse">
<stop offset="0.0299084" stop-color="#524049"/>
<stop offset="1" stop-color="#4A2C42"/>
</linearGradient>
</defs>
</svg>
