<svg width="32" height="32" viewBox="0 0 32 32" fill="none" xmlns="http://www.w3.org/2000/svg">
<path d="M10.4191 18.6732C12.742 18.6732 14.6251 16.7876 14.6251 14.4616C14.6251 12.1356 12.742 10.25 10.4191 10.25C8.09621 10.25 6.21313 12.1356 6.21313 14.4616C6.21313 16.7876 8.09621 18.6732 10.4191 18.6732Z" fill="white"/>
<path d="M21.5683 18.75C23.9123 18.75 25.8126 16.8472 25.8126 14.5C25.8126 12.1528 23.9123 10.25 21.5683 10.25C19.2242 10.25 17.324 12.1528 17.324 14.5C17.324 16.8472 19.2242 18.75 21.5683 18.75Z" fill="white"/>
<path fill-rule="evenodd" clip-rule="evenodd" d="M11 17C12.1046 17 13 16.1046 13 15C13 13.8954 12.1046 13 11 13C9.89543 13 9 13.8954 9 15C9 16.1046 9.89543 17 11 17ZM21 17C22.1046 17 23 16.1046 23 15C23 13.8954 22.1046 13 21 13C19.8954 13 19 13.8954 19 15C19 16.1046 19.8954 17 21 17Z" fill="url(#paint0_linear_216_414)"/>
<defs>
<linearGradient id="paint0_linear_216_414" x1="24.9444" y1="12.3333" x2="24.37" y2="17.0249" gradientUnits="userSpaceOnUse">
<stop stop-color="#553B3E"/>
<stop offset="1" stop-color="#3D2432"/>
</linearGradient>
</defs>
</svg>
