<svg width="32" height="32" viewBox="0 0 32 32" fill="none" xmlns="http://www.w3.org/2000/svg">
<path d="M15 12.6251C15 15.1104 12.9853 17.1251 10.5 17.1251C8.01472 17.1251 6 15.1104 6 12.6251C6 10.1398 8.01472 8.12512 10.5 8.12512C12.9853 8.12512 15 10.1398 15 12.6251Z" fill="white"/>
<path d="M25.96 12.6051C25.96 15.0794 23.9542 17.0851 21.48 17.0851C19.0058 17.0851 17 15.0794 17 12.6051C17 10.1309 19.0058 8.12512 21.48 8.12512C23.9542 8.12512 25.96 10.1309 25.96 12.6051Z" fill="white"/>
<path d="M7 12.0051C7 9.86512 8.74 8.12512 10.88 8.12512C13.02 8.12512 14.76 9.86512 14.76 12.0051C14.76 14.1451 13.02 15.8851 10.88 15.8851C8.74 15.8851 7 14.1451 7 12.0051Z" fill="url(#paint0_linear_267_2469)"/>
<path d="M17 12.0051C17 9.86512 18.74 8.12512 20.88 8.12512C23.02 8.12512 24.76 9.86512 24.76 12.0051C24.76 14.1451 23.02 15.8851 20.88 15.8851C18.74 15.8851 17 14.1451 17 12.0051Z" fill="url(#paint1_linear_267_2469)"/>
<path d="M13.8436 10.1967C14.2117 10.9918 13.908 11.825 13.1626 12.062C12.4172 12.299 11.5245 11.848 11.1564 11.0529C10.7883 10.2579 11.092 9.4246 11.8374 9.18762C12.5828 8.95063 13.4755 9.40931 13.8436 10.1967Z" fill="url(#paint2_linear_267_2469)"/>
<path d="M23.8436 10.1967C24.2117 10.9918 23.908 11.825 23.1626 12.062C22.4172 12.299 21.5245 11.848 21.1564 11.0529C20.7883 10.2579 21.092 9.4246 21.8374 9.18762C22.5736 8.95063 23.4755 9.40931 23.8436 10.1967Z" fill="url(#paint3_linear_267_2469)"/>
<path fill-rule="evenodd" clip-rule="evenodd" d="M9.88352 3.52172L9.88394 3.51923L9.88123 3.53297C9.87838 3.54684 9.87324 3.57047 9.86524 3.60244C9.84922 3.66655 9.82198 3.76325 9.77924 3.88159C9.69323 4.11978 9.54785 4.43619 9.3124 4.75012C8.85813 5.35581 8.03739 6.00012 6.4999 6.00012C6.15472 6.00012 5.8749 6.27994 5.8749 6.62512C5.8749 6.9703 6.15472 7.25012 6.4999 7.25012C8.46241 7.25012 9.64167 6.39443 10.3124 5.50012C10.6395 5.06406 10.8378 4.63046 10.9549 4.30615C11.0138 4.14324 11.0529 4.00557 11.0779 3.90561C11.0904 3.85556 11.0995 3.81473 11.1056 3.78465C11.1087 3.76961 11.1111 3.75723 11.1129 3.74771L11.1151 3.73559L11.1158 3.73117L11.1161 3.72938C11.1165 3.7271 11.1164 3.72787 11.1164 3.72787C11.1731 3.38739 10.9431 3.06537 10.6027 3.00863C10.2632 2.95205 9.94215 3.18049 9.88394 3.51923" fill="url(#paint4_linear_267_2469)"/>
<path fill-rule="evenodd" clip-rule="evenodd" d="M9.88352 3.52172L9.88394 3.51923L9.88123 3.53297C9.87838 3.54684 9.87324 3.57047 9.86524 3.60244C9.84922 3.66655 9.82198 3.76325 9.77924 3.88159C9.69323 4.11978 9.54785 4.43619 9.3124 4.75012C8.85813 5.35581 8.03739 6.00012 6.4999 6.00012C6.15472 6.00012 5.8749 6.27994 5.8749 6.62512C5.8749 6.9703 6.15472 7.25012 6.4999 7.25012C8.46241 7.25012 9.64167 6.39443 10.3124 5.50012C10.6395 5.06406 10.8378 4.63046 10.9549 4.30615C11.0138 4.14324 11.0529 4.00557 11.0779 3.90561C11.0904 3.85556 11.0995 3.81473 11.1056 3.78465C11.1087 3.76961 11.1111 3.75723 11.1129 3.74771L11.1151 3.73559L11.1158 3.73117L11.1161 3.72938C11.1165 3.7271 11.1164 3.72787 11.1164 3.72787C11.1731 3.38739 10.9431 3.06537 10.6027 3.00863C10.2632 2.95205 9.94215 3.18049 9.88394 3.51923" fill="url(#paint5_radial_267_2469)"/>
<path fill-rule="evenodd" clip-rule="evenodd" d="M22.1165 3.52172L22.1161 3.51923L22.1188 3.53297C22.1216 3.54684 22.1268 3.57047 22.1348 3.60244C22.1508 3.66655 22.178 3.76325 22.2208 3.88159C22.3068 4.11978 22.4521 4.43619 22.6876 4.75012C23.1419 5.35581 23.9626 6.00012 25.5001 6.00012C25.8453 6.00012 26.1251 6.27994 26.1251 6.62512C26.1251 6.9703 25.8453 7.25012 25.5001 7.25012C23.5376 7.25012 22.3583 6.39443 21.6876 5.50012C21.3605 5.06406 21.1622 4.63046 21.0451 4.30615C20.9862 4.14324 20.9471 4.00557 20.9221 3.90561C20.9096 3.85556 20.9005 3.81473 20.8944 3.78465C20.8913 3.76961 20.8889 3.75723 20.8871 3.74771L20.8849 3.73559L20.8842 3.73117L20.8839 3.72938C20.8835 3.7271 20.8836 3.72787 20.8836 3.72787C20.8269 3.38739 21.0569 3.06537 21.3973 3.00863C21.7368 2.95205 22.0579 3.18049 22.1161 3.51923" fill="url(#paint6_radial_267_2469)"/>
<defs>
<linearGradient id="paint0_linear_267_2469" x1="12.3723" y1="8.12512" x2="10.88" y2="15.8851" gradientUnits="userSpaceOnUse">
<stop stop-color="#553B3E"/>
<stop offset="1" stop-color="#3D2432"/>
</linearGradient>
<linearGradient id="paint1_linear_267_2469" x1="22.3723" y1="8.12512" x2="20.88" y2="15.8851" gradientUnits="userSpaceOnUse">
<stop stop-color="#553B3E"/>
<stop offset="1" stop-color="#3D2432"/>
</linearGradient>
<linearGradient id="paint2_linear_267_2469" x1="11.7832" y1="9.07314" x2="12.6291" y2="11.7228" gradientUnits="userSpaceOnUse">
<stop offset="0.00558659" stop-color="white"/>
<stop offset="1" stop-color="white" stop-opacity="0"/>
</linearGradient>
<linearGradient id="paint3_linear_267_2469" x1="21.7782" y1="9.0733" x2="22.6241" y2="11.7229" gradientUnits="userSpaceOnUse">
<stop offset="0.00558659" stop-color="white"/>
<stop offset="1" stop-color="white" stop-opacity="0"/>
</linearGradient>
<linearGradient id="paint4_linear_267_2469" x1="9.4999" y1="3.12512" x2="9.4999" y2="4.62512" gradientUnits="userSpaceOnUse">
<stop offset="0.0299084" stop-color="#524049"/>
<stop offset="1" stop-color="#4A2C42"/>
</linearGradient>
<radialGradient id="paint5_radial_267_2469" cx="0" cy="0" r="1" gradientUnits="userSpaceOnUse" gradientTransform="translate(6.9999 3.12512) rotate(54.4623) scale(4.30116)">
<stop offset="0.541667" stop-color="#493032"/>
<stop offset="0.806723" stop-color="#5E445A"/>
<stop offset="0.955326" stop-color="#4A2C42"/>
</radialGradient>
<radialGradient id="paint6_radial_267_2469" cx="0" cy="0" r="1" gradientUnits="userSpaceOnUse" gradientTransform="translate(25.0001 3.12512) rotate(125.538) scale(4.30116)">
<stop stop-color="#C2B4B5"/>
<stop offset="0.887405" stop-color="#462B45"/>
<stop offset="1" stop-color="#4A2C42"/>
</radialGradient>
</defs>
</svg>
