<svg width="32" height="32" viewBox="0 0 32 32" fill="none" xmlns="http://www.w3.org/2000/svg">
<path d="M10.9189 17.2245C13.2417 17.2245 15.1248 15.3414 15.1248 13.0185C15.1248 10.6956 13.2417 8.81256 10.9189 8.81256C8.59597 8.81256 6.71289 10.6956 6.71289 13.0185C6.71289 15.3414 8.59597 17.2245 10.9189 17.2245Z" fill="white"/>
<path d="M22.068 17.3012C24.4121 17.3012 26.3123 15.4009 26.3123 13.0569C26.3123 10.7128 24.4121 8.81256 22.068 8.81256C19.724 8.81256 17.8237 10.7128 17.8237 13.0569C17.8237 15.4009 19.724 17.3012 22.068 17.3012Z" fill="white"/>
<path d="M11.5 16.0001C13.1569 16.0001 14.5 14.6569 14.5 13.0001C14.5 11.3432 13.1569 10.0001 11.5 10.0001C9.84315 10.0001 8.5 11.3432 8.5 13.0001C8.5 14.6569 9.84315 16.0001 11.5 16.0001Z" fill="url(#paint0_linear_267_2114)"/>
<path d="M21.5 16.0001C23.1569 16.0001 24.5 14.6569 24.5 13.0001C24.5 11.3432 23.1569 10.0001 21.5 10.0001C19.8431 10.0001 18.5 11.3432 18.5 13.0001C18.5 14.6569 19.8431 16.0001 21.5 16.0001Z" fill="url(#paint1_linear_267_2114)"/>
<path fill-rule="evenodd" clip-rule="evenodd" d="M10.5068 6.41735L10.5069 6.4169L10.507 6.41621L10.5071 6.41589C10.507 6.41619 10.5069 6.41672 10.5068 6.41748L10.5037 6.43308C10.5005 6.44857 10.495 6.47391 10.4865 6.5077C10.4696 6.57539 10.4412 6.67619 10.3968 6.79899C10.3077 7.04579 10.157 7.37391 9.91242 7.70006C9.43651 8.33461 8.57992 9.00006 6.99992 9.00006C6.72378 9.00006 6.49992 9.22392 6.49992 9.50006C6.49992 9.7762 6.72378 10.0001 6.99992 10.0001C8.91993 10.0001 10.0633 9.16551 10.7124 8.30006C11.0303 7.87621 11.2234 7.45433 11.3374 7.13863C11.3946 6.98018 11.4326 6.8466 11.4567 6.75024C11.4687 6.70199 11.4774 6.66288 11.4832 6.63443C11.4861 6.62019 11.4884 6.60861 11.49 6.59985L11.492 6.58887L11.4927 6.58501L11.4929 6.58349L11.493 6.58284C11.4931 6.58255 11.4931 6.58226 10.9999 6.50006L11.4931 6.58226C11.5385 6.30988 11.3545 6.05226 11.0821 6.00686C10.8099 5.9615 10.5524 6.14525 10.5068 6.41735Z" fill="url(#paint2_radial_267_2114)"/>
<path fill-rule="evenodd" clip-rule="evenodd" d="M22.4932 6.41735L22.4931 6.4169L22.493 6.41621L22.4929 6.41589C22.493 6.41619 22.4931 6.41672 22.4932 6.41748L22.4963 6.43308C22.4995 6.44857 22.505 6.47391 22.5135 6.5077C22.5304 6.57539 22.5588 6.67619 22.6032 6.79899C22.6923 7.04579 22.843 7.37391 23.0876 7.70006C23.5635 8.33461 24.4201 9.00006 26.0001 9.00006C26.2762 9.00006 26.5001 9.22392 26.5001 9.50006C26.5001 9.7762 26.2762 10.0001 26.0001 10.0001C24.0801 10.0001 22.9367 9.16551 22.2876 8.30006C21.9697 7.87621 21.7766 7.45433 21.6626 7.13863C21.6054 6.98018 21.5674 6.8466 21.5433 6.75024C21.5313 6.70199 21.5226 6.66288 21.5168 6.63443C21.5139 6.62019 21.5116 6.60861 21.51 6.59985L21.508 6.58887L21.5073 6.58501L21.5071 6.58349L21.507 6.58284C21.5069 6.58255 21.5069 6.58226 22.0001 6.50006L21.5069 6.58226C21.4615 6.30988 21.6455 6.05226 21.9179 6.00686C22.1901 5.9615 22.4476 6.14525 22.4932 6.41735Z" fill="url(#paint3_radial_267_2114)"/>
<defs>
<linearGradient id="paint0_linear_267_2114" x1="17" y1="9.00006" x2="16" y2="16.0001" gradientUnits="userSpaceOnUse">
<stop stop-color="#553B3E"/>
<stop offset="1" stop-color="#3D2432"/>
</linearGradient>
<linearGradient id="paint1_linear_267_2114" x1="17" y1="9.00006" x2="16" y2="16.0001" gradientUnits="userSpaceOnUse">
<stop stop-color="#553B3E"/>
<stop offset="1" stop-color="#3D2432"/>
</linearGradient>
<radialGradient id="paint2_radial_267_2114" cx="0" cy="0" r="1" gradientUnits="userSpaceOnUse" gradientTransform="translate(8.64055 7.90631) rotate(49.8812) scale(4.02522 9.57068)">
<stop offset="0.137915" stop-color="#694F62"/>
<stop offset="0.398102" stop-color="#482641"/>
</radialGradient>
<radialGradient id="paint3_radial_267_2114" cx="0" cy="0" r="1" gradientUnits="userSpaceOnUse" gradientTransform="translate(24.3595 7.90631) rotate(130.119) scale(4.02522 9.57068)">
<stop offset="0.137915" stop-color="#694F62"/>
<stop offset="0.398102" stop-color="#482641"/>
</radialGradient>
</defs>
</svg>
