<svg width="32" height="32" viewBox="0 0 32 32" fill="none" xmlns="http://www.w3.org/2000/svg">
<rect x="12.0225" y="20.9531" width="7.95312" height="5.6875" rx="2.8" fill="url(#paint0_linear_267_2487)"/>
<path d="M16.0003 28.5C19.0484 28.5 19.5347 25.8558 19.629 25.0937C19.7016 24.4768 19.375 23.7608 19.0194 23.5503C18.6638 23.3399 17.5969 23.1439 16.0003 23.1439C14.4036 23.1439 13.344 23.3399 12.9811 23.5503C12.6183 23.7608 12.2917 24.4768 12.3715 25.0937C12.4659 25.8558 12.9521 28.5 16.0003 28.5Z" fill="url(#paint1_radial_267_2487)"/>
<g opacity="0.5" filter="url(#filter0_f_267_2487)">
<path d="M17.4404 26.6857C18.1662 26.3228 18.8919 25.597 18.8919 24.5084" stroke="white"/>
</g>
<defs>
<filter id="filter0_f_267_2487" x="16.2168" y="23.5084" width="4.17529" height="4.62445" filterUnits="userSpaceOnUse" color-interpolation-filters="sRGB">
<feFlood flood-opacity="0" result="BackgroundImageFix"/>
<feBlend mode="normal" in="SourceGraphic" in2="BackgroundImageFix" result="shape"/>
<feGaussianBlur stdDeviation="0.5" result="effect1_foregroundBlur_267_2487"/>
</filter>
<linearGradient id="paint0_linear_267_2487" x1="15.999" y1="20.9531" x2="15.999" y2="26.6406" gradientUnits="userSpaceOnUse">
<stop stop-color="#6D014D"/>
<stop offset="1" stop-color="#750C3F"/>
</linearGradient>
<radialGradient id="paint1_radial_267_2487" cx="0" cy="0" r="1" gradientUnits="userSpaceOnUse" gradientTransform="translate(15.989 29.4062) rotate(-90) scale(7.07513 12.2996)">
<stop offset="0.135417" stop-color="#FF1C4A"/>
<stop offset="0.619792" stop-color="#FF2B8F"/>
<stop offset="0.755208" stop-color="#BB0773"/>
<stop offset="0.869792" stop-color="#9F0762"/>
</radialGradient>
</defs>
</svg>
