<svg width="32" height="32" viewBox="0 0 32 32" fill="none" xmlns="http://www.w3.org/2000/svg">
<path d="M17.6699 17.9199C17.1176 17.9199 16.6699 18.3676 16.6699 18.9199C16.6699 19.4722 17.1176 19.9199 17.6699 19.9199C17.9576 19.9199 18.1899 20.1522 18.1899 20.4399C18.1899 20.7276 17.9576 20.9599 17.6699 20.9599C17.1176 20.9599 16.6699 21.4076 16.6699 21.9599C16.6699 21.9599 16.6699 21.9599 16.6699 21.9599C16.6699 22.5122 17.1176 22.96 17.6699 22.96C17.9576 22.96 18.1899 23.1922 18.1899 23.48C18.1899 23.7677 17.9576 24 17.6699 24C17.1176 24 16.6699 24.4477 16.6699 25C16.6699 25.5522 17.1176 26 17.6699 26C19.0622 26 20.1899 24.8722 20.1899 23.48C20.1899 22.9089 20.0002 22.3824 19.6804 21.9599C20.0002 21.5375 20.1899 21.0109 20.1899 20.4399C20.1899 19.0476 19.0622 17.9199 17.6699 17.9199Z" fill="url(#paint0_radial_226_521)"/>
<path d="M17.6699 17.9199C17.1176 17.9199 16.6699 18.3676 16.6699 18.9199C16.6699 19.4722 17.1176 19.9199 17.6699 19.9199C17.9576 19.9199 18.1899 20.1522 18.1899 20.4399C18.1899 20.7276 17.9576 20.9599 17.6699 20.9599C17.1176 20.9599 16.6699 21.4076 16.6699 21.9599C16.6699 21.9599 16.6699 21.9599 16.6699 21.9599C16.6699 22.5122 17.1176 22.96 17.6699 22.96C17.9576 22.96 18.1899 23.1922 18.1899 23.48C18.1899 23.7677 17.9576 24 17.6699 24C17.1176 24 16.6699 24.4477 16.6699 25C16.6699 25.5522 17.1176 26 17.6699 26C19.0622 26 20.1899 24.8722 20.1899 23.48C20.1899 22.9089 20.0002 22.3824 19.6804 21.9599C20.0002 21.5375 20.1899 21.0109 20.1899 20.4399C20.1899 19.0476 19.0622 17.9199 17.6699 17.9199Z" fill="url(#paint1_radial_226_521)"/>
<path d="M17.6699 17.9199C17.1176 17.9199 16.6699 18.3676 16.6699 18.9199C16.6699 19.4722 17.1176 19.9199 17.6699 19.9199C17.9576 19.9199 18.1899 20.1522 18.1899 20.4399C18.1899 20.7276 17.9576 20.9599 17.6699 20.9599C17.1176 20.9599 16.6699 21.4076 16.6699 21.9599C16.6699 21.9599 16.6699 21.9599 16.6699 21.9599C16.6699 22.5122 17.1176 22.96 17.6699 22.96C17.9576 22.96 18.1899 23.1922 18.1899 23.48C18.1899 23.7677 17.9576 24 17.6699 24C17.1176 24 16.6699 24.4477 16.6699 25C16.6699 25.5522 17.1176 26 17.6699 26C19.0622 26 20.1899 24.8722 20.1899 23.48C20.1899 22.9089 20.0002 22.3824 19.6804 21.9599C20.0002 21.5375 20.1899 21.0109 20.1899 20.4399C20.1899 19.0476 19.0622 17.9199 17.6699 17.9199Z" fill="url(#paint2_linear_226_521)"/>
<path d="M17.6699 17.9199C17.1176 17.9199 16.6699 18.3676 16.6699 18.9199C16.6699 19.4722 17.1176 19.9199 17.6699 19.9199C17.9576 19.9199 18.1899 20.1522 18.1899 20.4399C18.1899 20.7276 17.9576 20.9599 17.6699 20.9599C17.1176 20.9599 16.6699 21.4076 16.6699 21.9599C16.6699 21.9599 16.6699 21.9599 16.6699 21.9599C16.6699 22.5122 17.1176 22.96 17.6699 22.96C17.9576 22.96 18.1899 23.1922 18.1899 23.48C18.1899 23.7677 17.9576 24 17.6699 24C17.1176 24 16.6699 24.4477 16.6699 25C16.6699 25.5522 17.1176 26 17.6699 26C19.0622 26 20.1899 24.8722 20.1899 23.48C20.1899 22.9089 20.0002 22.3824 19.6804 21.9599C20.0002 21.5375 20.1899 21.0109 20.1899 20.4399C20.1899 19.0476 19.0622 17.9199 17.6699 17.9199Z" fill="url(#paint3_radial_226_521)"/>
<path d="M17.6699 17.9199C17.1176 17.9199 16.6699 18.3676 16.6699 18.9199C16.6699 19.4722 17.1176 19.9199 17.6699 19.9199C17.9576 19.9199 18.1899 20.1522 18.1899 20.4399C18.1899 20.7276 17.9576 20.9599 17.6699 20.9599C17.1176 20.9599 16.6699 21.4076 16.6699 21.9599C16.6699 21.9599 16.6699 21.9599 16.6699 21.9599C16.6699 22.5122 17.1176 22.96 17.6699 22.96C17.9576 22.96 18.1899 23.1922 18.1899 23.48C18.1899 23.7677 17.9576 24 17.6699 24C17.1176 24 16.6699 24.4477 16.6699 25C16.6699 25.5522 17.1176 26 17.6699 26C19.0622 26 20.1899 24.8722 20.1899 23.48C20.1899 22.9089 20.0002 22.3824 19.6804 21.9599C20.0002 21.5375 20.1899 21.0109 20.1899 20.4399C20.1899 19.0476 19.0622 17.9199 17.6699 17.9199Z" fill="url(#paint4_radial_226_521)"/>
<defs>
<radialGradient id="paint0_radial_226_521" cx="0" cy="0" r="1" gradientUnits="userSpaceOnUse" gradientTransform="translate(17.4578 23.187) scale(3.19201 2.85852)">
<stop stop-color="#3D1837"/>
<stop offset="0.660606" stop-color="#5B4950"/>
<stop offset="0.751515" stop-color="#5B4950"/>
<stop offset="1" stop-color="#553445"/>
</radialGradient>
<radialGradient id="paint1_radial_226_521" cx="0" cy="0" r="1" gradientUnits="userSpaceOnUse" gradientTransform="translate(17.4812 20.2532) rotate(3.24734) scale(3.31469 2.62313)">
<stop stop-color="#4D254F"/>
<stop offset="0.660606" stop-color="#5B4950"/>
<stop offset="0.751515" stop-color="#5B4950"/>
<stop offset="1" stop-color="#553445" stop-opacity="0"/>
</radialGradient>
<linearGradient id="paint2_linear_226_521" x1="16.5189" y1="21.96" x2="18.5844" y2="21.96" gradientUnits="userSpaceOnUse">
<stop stop-color="#462A3A"/>
<stop offset="1" stop-color="#462A3A" stop-opacity="0"/>
</linearGradient>
<radialGradient id="paint3_radial_226_521" cx="0" cy="0" r="1" gradientUnits="userSpaceOnUse" gradientTransform="translate(17.6102 23.1295) rotate(90.5729) scale(1.46527)">
<stop stop-color="#472A35"/>
<stop offset="1" stop-color="#472A35" stop-opacity="0"/>
</radialGradient>
<radialGradient id="paint4_radial_226_521" cx="0" cy="0" r="1" gradientUnits="userSpaceOnUse" gradientTransform="translate(19.6875 21.96) rotate(90) scale(0.0594941 0.900173)">
<stop stop-color="#472E46"/>
<stop offset="1" stop-color="#533552" stop-opacity="0"/>
</radialGradient>
</defs>
</svg>
