<svg width="32" height="32" viewBox="0 0 32 32" fill="none" xmlns="http://www.w3.org/2000/svg">
<path fill-rule="evenodd" clip-rule="evenodd" d="M9.40006 18.2001C9.84189 17.8687 10.4687 17.9582 10.8001 18.4001C11.1415 18.8553 12.8621 20.5001 16.0001 20.5001C19.1381 20.5001 20.8586 18.8553 21.2001 18.4001C21.5314 17.9582 22.1582 17.8687 22.6001 18.2001C23.0419 18.5314 23.1314 19.1582 22.8001 19.6001C22.1415 20.4782 19.8621 22.5001 16.0001 22.5001C12.1381 22.5001 9.85864 20.4782 9.20006 19.6001C8.86869 19.1582 8.95823 18.5314 9.40006 18.2001Z" fill="url(#paint0_radial_215_623)"/>
<path fill-rule="evenodd" clip-rule="evenodd" d="M9.40006 18.2001C9.84189 17.8687 10.4687 17.9582 10.8001 18.4001C11.1415 18.8553 12.8621 20.5001 16.0001 20.5001C19.1381 20.5001 20.8586 18.8553 21.2001 18.4001C21.5314 17.9582 22.1582 17.8687 22.6001 18.2001C23.0419 18.5314 23.1314 19.1582 22.8001 19.6001C22.1415 20.4782 19.8621 22.5001 16.0001 22.5001C12.1381 22.5001 9.85864 20.4782 9.20006 19.6001C8.86869 19.1582 8.95823 18.5314 9.40006 18.2001Z" fill="url(#paint1_radial_215_623)"/>
<path fill-rule="evenodd" clip-rule="evenodd" d="M9.40006 18.2001C9.84189 17.8687 10.4687 17.9582 10.8001 18.4001C11.1415 18.8553 12.8621 20.5001 16.0001 20.5001C19.1381 20.5001 20.8586 18.8553 21.2001 18.4001C21.5314 17.9582 22.1582 17.8687 22.6001 18.2001C23.0419 18.5314 23.1314 19.1582 22.8001 19.6001C22.1415 20.4782 19.8621 22.5001 16.0001 22.5001C12.1381 22.5001 9.85864 20.4782 9.20006 19.6001C8.86869 19.1582 8.95823 18.5314 9.40006 18.2001Z" fill="url(#paint2_radial_215_623)"/>
<defs>
<radialGradient id="paint0_radial_215_623" cx="0" cy="0" r="1" gradientUnits="userSpaceOnUse" gradientTransform="translate(16.0001 16.8751) rotate(90) scale(6.18749 9.82163)">
<stop offset="0.464452" stop-color="#241A1A"/>
<stop offset="0.663489" stop-color="#554248"/>
<stop offset="1" stop-color="#4E2553"/>
<stop offset="1" stop-color="#4A274E"/>
</radialGradient>
<radialGradient id="paint1_radial_215_623" cx="0" cy="0" r="1" gradientUnits="userSpaceOnUse" gradientTransform="translate(16.0001 19.47) rotate(90) scale(8.87637 8.77559)">
<stop offset="0.483976" stop-color="#4F302E" stop-opacity="0"/>
<stop offset="1" stop-color="#4F302E"/>
</radialGradient>
<radialGradient id="paint2_radial_215_623" cx="0" cy="0" r="1" gradientUnits="userSpaceOnUse" gradientTransform="translate(22.3555 18.6438) rotate(39.3327) scale(1.00963 0.726993)">
<stop stop-color="#5B4A50"/>
<stop offset="1" stop-color="#5B4A50" stop-opacity="0"/>
</radialGradient>
</defs>
</svg>
