<svg width="32" height="32" viewBox="0 0 32 32" fill="none" xmlns="http://www.w3.org/2000/svg">
<path fill-rule="evenodd" clip-rule="evenodd" d="M12 19C12.5523 19 13 19.4477 13 20C13 20.5066 13.1602 21.2889 13.6115 21.9157C14.0261 22.4915 14.7259 23 16 23C17.2741 23 17.9739 22.4915 18.3885 21.9157C18.8398 21.2889 19 20.5066 19 20C19 19.4477 19.4477 19 20 19C20.5523 19 21 19.4477 21 20C21 20.8267 20.7602 22.0445 20.0115 23.0843C19.2261 24.1751 17.9259 25 16 25C14.0741 25 12.7739 24.1751 11.9885 23.0843C11.2398 22.0445 11 20.8267 11 20C11 19.4477 11.4477 19 12 19Z" fill="url(#paint0_radial_267_2498)"/>
<path fill-rule="evenodd" clip-rule="evenodd" d="M12 19C12.5523 19 13 19.4477 13 20C13 20.5066 13.1602 21.2889 13.6115 21.9157C14.0261 22.4915 14.7259 23 16 23C17.2741 23 17.9739 22.4915 18.3885 21.9157C18.8398 21.2889 19 20.5066 19 20C19 19.4477 19.4477 19 20 19C20.5523 19 21 19.4477 21 20C21 20.8267 20.7602 22.0445 20.0115 23.0843C19.2261 24.1751 17.9259 25 16 25C14.0741 25 12.7739 24.1751 11.9885 23.0843C11.2398 22.0445 11 20.8267 11 20C11 19.4477 11.4477 19 12 19Z" fill="url(#paint1_radial_267_2498)"/>
<defs>
<radialGradient id="paint0_radial_267_2498" cx="0" cy="0" r="1" gradientUnits="userSpaceOnUse" gradientTransform="translate(16.3873 19.7345) rotate(86.7356) scale(5.72692 5.4626)">
<stop offset="0.535134" stop-color="#4E3028"/>
<stop offset="0.740289" stop-color="#5E425A"/>
<stop offset="1" stop-color="#522C57"/>
<stop offset="1" stop-color="#55275C"/>
</radialGradient>
<radialGradient id="paint1_radial_267_2498" cx="0" cy="0" r="1" gradientUnits="userSpaceOnUse" gradientTransform="translate(16 22.214) rotate(90) scale(4.36959 8.84875)">
<stop offset="0.645531" stop-color="#4C2746" stop-opacity="0"/>
<stop offset="1" stop-color="#4E2847"/>
</radialGradient>
</defs>
</svg>
