<svg width="32" height="32" viewBox="0 0 32 32" fill="none" xmlns="http://www.w3.org/2000/svg">
<path d="M16 26C9 26 9 19 9 19H23C23 19 23 26 16 26Z" fill="url(#paint0_radial_226_544)"/>
<path d="M10.1504 23C11.1002 24.5684 12.8343 26 15.9999 26C19.1656 26 20.8996 24.5684 21.8494 23H10.1504Z" fill="url(#paint1_radial_226_544)"/>
<path d="M10.1504 23C11.1002 24.5684 12.8343 26 15.9999 26C19.1656 26 20.8996 24.5684 21.8494 23H10.1504Z" fill="url(#paint2_radial_226_544)"/>
<path d="M16 24.5V26.25C16 26.6642 16.3358 27 16.75 27H16.8333C17.2015 27 17.5 27.2985 17.5 27.6667V27.75C17.5 28.4404 18.0596 29 18.75 29C19.4404 29 20 28.4404 20 27.75V24.9372C20.8204 24.4017 21.4164 23.7151 21.8494 23H17.5C16.6716 23 16 23.6716 16 24.5Z" fill="url(#paint3_radial_226_544)"/>
<defs>
<radialGradient id="paint0_radial_226_544" cx="0" cy="0" r="1" gradientUnits="userSpaceOnUse" gradientTransform="translate(16 26.5) rotate(-90) scale(7.5 15)">
<stop stop-color="#F70A8D"/>
<stop offset="1" stop-color="#89029C"/>
</radialGradient>
<radialGradient id="paint1_radial_226_544" cx="0" cy="0" r="1" gradientUnits="userSpaceOnUse" gradientTransform="translate(23.5 27) rotate(-172.405) scale(7.56637 7.8168)">
<stop offset="0.408311" stop-color="#325CFF"/>
<stop offset="0.574014" stop-color="#4889FF"/>
<stop offset="0.739718" stop-color="#3C6BF7"/>
<stop offset="0.899655" stop-color="#3F72FF"/>
<stop offset="1" stop-color="#3156FE"/>
</radialGradient>
<radialGradient id="paint2_radial_226_544" cx="0" cy="0" r="1" gradientUnits="userSpaceOnUse" gradientTransform="translate(23.5 27) rotate(-172.405) scale(7.56637 7.8168)">
<stop offset="0.408311" stop-color="#325CFF"/>
<stop offset="0.574014" stop-color="#4889FF"/>
<stop offset="0.739718" stop-color="#3C6BF7"/>
<stop offset="0.899655" stop-color="#3F72FF"/>
<stop offset="1" stop-color="#3156FE"/>
</radialGradient>
<radialGradient id="paint3_radial_226_544" cx="0" cy="0" r="1" gradientUnits="userSpaceOnUse" gradientTransform="translate(23.5 27) rotate(-172.405) scale(7.56637 7.8168)">
<stop offset="0.408311" stop-color="#325CFF"/>
<stop offset="0.574014" stop-color="#4889FF"/>
<stop offset="0.739718" stop-color="#3C6BF7"/>
<stop offset="0.899655" stop-color="#3F72FF"/>
<stop offset="1" stop-color="#3156FE"/>
</radialGradient>
</defs>
</svg>
