<svg width="32" height="32" viewBox="0 0 32 32" fill="none" xmlns="http://www.w3.org/2000/svg">
<path d="M16 29C6 29 6 19 6 19H26C26 19 26 29 16 29Z" fill="url(#paint0_radial_226_537)"/>
<path d="M7.75883 22.7942L7 19H25L24.2412 22.7942C24.1009 23.4953 23.4853 24 22.7703 24H9.22971C8.51468 24 7.89906 23.4953 7.75883 22.7942Z" fill="url(#paint1_radial_226_537)"/>
<path d="M7.75883 22.7942L7 19H25L24.2412 22.7942C24.1009 23.4953 23.4853 24 22.7703 24H9.22971C8.51468 24 7.89906 23.4953 7.75883 22.7942Z" fill="url(#paint2_linear_226_537)"/>
<path fill-rule="evenodd" clip-rule="evenodd" d="M8.34287 25.7155C9.80043 27.5291 12.1648 29 16 29C19.8347 29 22.1989 27.5295 23.6565 25.7164L23.7606 25.1961C23.8843 24.5773 23.411 24 22.78 24H9.21958C8.58853 24 8.11524 24.5773 8.239 25.1961L8.34287 25.7155Z" fill="url(#paint3_linear_226_537)"/>
<defs>
<radialGradient id="paint0_radial_226_537" cx="0" cy="0" r="1" gradientUnits="userSpaceOnUse" gradientTransform="translate(15 28) rotate(-90) scale(9 18)">
<stop stop-color="#F70A8D"/>
<stop offset="1" stop-color="#89029C"/>
</radialGradient>
<radialGradient id="paint1_radial_226_537" cx="0" cy="0" r="1" gradientUnits="userSpaceOnUse" gradientTransform="translate(21.5 19) rotate(138.576) scale(11.3358)">
<stop stop-color="white"/>
<stop offset="1" stop-color="#ECCDFF"/>
</radialGradient>
<linearGradient id="paint2_linear_226_537" x1="16" y1="22.7031" x2="16" y2="24" gradientUnits="userSpaceOnUse">
<stop stop-color="#F4DFFF" stop-opacity="0"/>
<stop offset="0.865521" stop-color="#FFB8FF"/>
<stop offset="1" stop-color="#DA7CE9"/>
</linearGradient>
<linearGradient id="paint3_linear_226_537" x1="17.0509" y1="24" x2="15.7774" y2="28.2773" gradientUnits="userSpaceOnUse">
<stop stop-color="white"/>
<stop offset="1" stop-color="#ECCDFF"/>
</linearGradient>
</defs>
</svg>
