<svg width="32" height="32" viewBox="0 0 32 32" fill="none" xmlns="http://www.w3.org/2000/svg">
<path fill-rule="evenodd" clip-rule="evenodd" d="M14.8812 25.4731C14.6265 25.9481 14.0383 26.1371 13.553 25.8944C13.059 25.6474 12.8588 25.0468 13.1058 24.5528L13.1063 24.5517L13.1069 24.5506L13.108 24.5484L13.1104 24.5436L13.116 24.5329C13.12 24.5252 13.1247 24.5165 13.13 24.5069C13.1406 24.4876 13.1538 24.4645 13.1698 24.4381C13.2019 24.3853 13.2454 24.319 13.3018 24.2437C13.4143 24.0938 13.5809 23.9049 13.813 23.7191C14.2901 23.3375 15.0073 23 16.0002 23C16.9931 23 17.7104 23.3375 18.1874 23.7191C18.4196 23.9049 18.5862 24.0938 18.6987 24.2437C18.7551 24.319 18.7986 24.3853 18.8306 24.4381C18.8466 24.4645 18.8599 24.4876 18.8705 24.5069C18.8758 24.5165 18.8804 24.5252 18.8844 24.5329L18.89 24.5436L18.8924 24.5484L18.8936 24.5506L18.8941 24.5517L18.8946 24.5528C19.1416 25.0468 18.9414 25.6474 18.4474 25.8944C17.9622 26.1371 17.374 25.9481 17.1192 25.4731C17.1161 25.4682 17.1093 25.458 17.0987 25.4437C17.0705 25.4062 17.0184 25.3451 16.938 25.2809C16.7901 25.1625 16.5073 25 16.0002 25C15.4931 25 15.2104 25.1625 15.0624 25.2809C14.9821 25.3451 14.9299 25.4062 14.9018 25.4437C14.8911 25.458 14.8843 25.4682 14.8812 25.4731Z" fill="url(#paint0_radial_267_2525)"/>
<path fill-rule="evenodd" clip-rule="evenodd" d="M14.8812 25.4731C14.6265 25.9481 14.0383 26.1371 13.553 25.8944C13.059 25.6474 12.8588 25.0468 13.1058 24.5528L13.1063 24.5517L13.1069 24.5506L13.108 24.5484L13.1104 24.5436L13.116 24.5329C13.12 24.5252 13.1247 24.5165 13.13 24.5069C13.1406 24.4876 13.1538 24.4645 13.1698 24.4381C13.2019 24.3853 13.2454 24.319 13.3018 24.2437C13.4143 24.0938 13.5809 23.9049 13.813 23.7191C14.2901 23.3375 15.0073 23 16.0002 23C16.9931 23 17.7104 23.3375 18.1874 23.7191C18.4196 23.9049 18.5862 24.0938 18.6987 24.2437C18.7551 24.319 18.7986 24.3853 18.8306 24.4381C18.8466 24.4645 18.8599 24.4876 18.8705 24.5069C18.8758 24.5165 18.8804 24.5252 18.8844 24.5329L18.89 24.5436L18.8924 24.5484L18.8936 24.5506L18.8941 24.5517L18.8946 24.5528C19.1416 25.0468 18.9414 25.6474 18.4474 25.8944C17.9622 26.1371 17.374 25.9481 17.1192 25.4731C17.1161 25.4682 17.1093 25.458 17.0987 25.4437C17.0705 25.4062 17.0184 25.3451 16.938 25.2809C16.7901 25.1625 16.5073 25 16.0002 25C15.4931 25 15.2104 25.1625 15.0624 25.2809C14.9821 25.3451 14.9299 25.4062 14.9018 25.4437C14.8911 25.458 14.8843 25.4682 14.8812 25.4731Z" fill="url(#paint1_radial_267_2525)"/>
<path fill-rule="evenodd" clip-rule="evenodd" d="M14.8812 25.4731C14.6265 25.9481 14.0383 26.1371 13.553 25.8944C13.059 25.6474 12.8588 25.0468 13.1058 24.5528L13.1063 24.5517L13.1069 24.5506L13.108 24.5484L13.1104 24.5436L13.116 24.5329C13.12 24.5252 13.1247 24.5165 13.13 24.5069C13.1406 24.4876 13.1538 24.4645 13.1698 24.4381C13.2019 24.3853 13.2454 24.319 13.3018 24.2437C13.4143 24.0938 13.5809 23.9049 13.813 23.7191C14.2901 23.3375 15.0073 23 16.0002 23C16.9931 23 17.7104 23.3375 18.1874 23.7191C18.4196 23.9049 18.5862 24.0938 18.6987 24.2437C18.7551 24.319 18.7986 24.3853 18.8306 24.4381C18.8466 24.4645 18.8599 24.4876 18.8705 24.5069C18.8758 24.5165 18.8804 24.5252 18.8844 24.5329L18.89 24.5436L18.8924 24.5484L18.8936 24.5506L18.8941 24.5517L18.8946 24.5528C19.1416 25.0468 18.9414 25.6474 18.4474 25.8944C17.9622 26.1371 17.374 25.9481 17.1192 25.4731C17.1161 25.4682 17.1093 25.458 17.0987 25.4437C17.0705 25.4062 17.0184 25.3451 16.938 25.2809C16.7901 25.1625 16.5073 25 16.0002 25C15.4931 25 15.2104 25.1625 15.0624 25.2809C14.9821 25.3451 14.9299 25.4062 14.9018 25.4437C14.8911 25.458 14.8843 25.4682 14.8812 25.4731Z" fill="url(#paint2_radial_267_2525)"/>
<path fill-rule="evenodd" clip-rule="evenodd" d="M14.8812 25.4731C14.6265 25.9481 14.0383 26.1371 13.553 25.8944C13.059 25.6474 12.8588 25.0468 13.1058 24.5528L13.1063 24.5517L13.1069 24.5506L13.108 24.5484L13.1104 24.5436L13.116 24.5329C13.12 24.5252 13.1247 24.5165 13.13 24.5069C13.1406 24.4876 13.1538 24.4645 13.1698 24.4381C13.2019 24.3853 13.2454 24.319 13.3018 24.2437C13.4143 24.0938 13.5809 23.9049 13.813 23.7191C14.2901 23.3375 15.0073 23 16.0002 23C16.9931 23 17.7104 23.3375 18.1874 23.7191C18.4196 23.9049 18.5862 24.0938 18.6987 24.2437C18.7551 24.319 18.7986 24.3853 18.8306 24.4381C18.8466 24.4645 18.8599 24.4876 18.8705 24.5069C18.8758 24.5165 18.8804 24.5252 18.8844 24.5329L18.89 24.5436L18.8924 24.5484L18.8936 24.5506L18.8941 24.5517L18.8946 24.5528C19.1416 25.0468 18.9414 25.6474 18.4474 25.8944C17.9622 26.1371 17.374 25.9481 17.1192 25.4731C17.1161 25.4682 17.1093 25.458 17.0987 25.4437C17.0705 25.4062 17.0184 25.3451 16.938 25.2809C16.7901 25.1625 16.5073 25 16.0002 25C15.4931 25 15.2104 25.1625 15.0624 25.2809C14.9821 25.3451 14.9299 25.4062 14.9018 25.4437C14.8911 25.458 14.8843 25.4682 14.8812 25.4731Z" fill="url(#paint3_radial_267_2525)"/>
<defs>
<radialGradient id="paint0_radial_267_2525" cx="0" cy="0" r="1" gradientUnits="userSpaceOnUse" gradientTransform="translate(16.0002 26.6928) rotate(-90) scale(4.07971 4.07259)">
<stop offset="0.479167" stop-color="#5B2666"/>
<stop offset="0.686742" stop-color="#533A4E"/>
<stop offset="0.817708" stop-color="#533A4E"/>
<stop offset="0.959686" stop-color="#53261F"/>
</radialGradient>
<radialGradient id="paint1_radial_267_2525" cx="0" cy="0" r="1" gradientUnits="userSpaceOnUse" gradientTransform="translate(13.6192 25.8247) rotate(28.4905) scale(0.779475 0.894524)">
<stop stop-color="#52265D"/>
<stop offset="1" stop-color="#52265D" stop-opacity="0"/>
</radialGradient>
<radialGradient id="paint2_radial_267_2525" cx="0" cy="0" r="1" gradientUnits="userSpaceOnUse" gradientTransform="translate(13 25.0357) rotate(39.0738) scale(0.511293 1.38653)">
<stop stop-color="#4E3130"/>
<stop offset="1" stop-color="#4E3130" stop-opacity="0"/>
</radialGradient>
<radialGradient id="paint3_radial_267_2525" cx="0" cy="0" r="1" gradientUnits="userSpaceOnUse" gradientTransform="translate(18.7535 24.9524) rotate(127.783) scale(0.906944 0.878752)">
<stop stop-color="#694F5B"/>
<stop offset="1" stop-color="#59414E" stop-opacity="0"/>
</radialGradient>
</defs>
</svg>
