<svg width="32" height="32" viewBox="0 0 32 32" fill="none" xmlns="http://www.w3.org/2000/svg">
<path d="M15.9998 26.0003C5.99982 26.0003 5.99982 16.0003 5.99982 16.0003H25.9998C25.9998 16.0003 25.9998 26.0003 15.9998 26.0003Z" fill="url(#paint0_radial_215_618)"/>
<path d="M23.4998 17.5003H8.49976C7.67133 17.5003 6.99976 16.8287 6.99976 16.0003H24.9998C24.9998 16.8287 24.3282 17.5003 23.4998 17.5003Z" fill="url(#paint1_linear_215_618)"/>
<path d="M16.0152 29.0004C20.2152 29.0004 21.8697 23.5504 21.9997 22.5004C22.2755 20.1566 18.5308 19.6204 16.0152 19.6204C13.4997 19.6204 9.69759 20.1655 9.99975 22.5004C10.1298 23.5504 11.8152 29.0004 16.0152 29.0004Z" fill="url(#paint2_radial_215_618)"/>
<path d="M16.0152 29.0004C20.2152 29.0004 21.8697 23.5504 21.9997 22.5004C22.2755 20.1566 18.5308 19.6204 16.0152 19.6204C13.4997 19.6204 9.69759 20.1655 9.99975 22.5004C10.1298 23.5504 11.8152 29.0004 16.0152 29.0004Z" fill="url(#paint3_radial_215_618)"/>
<path d="M16.0152 29.0004C20.2152 29.0004 21.8697 23.5504 21.9997 22.5004C22.2755 20.1566 18.5308 19.6204 16.0152 19.6204C13.4997 19.6204 9.69759 20.1655 9.99975 22.5004C10.1298 23.5504 11.8152 29.0004 16.0152 29.0004Z" fill="url(#paint4_radial_215_618)"/>
<defs>
<radialGradient id="paint0_radial_215_618" cx="0" cy="0" r="1" gradientUnits="userSpaceOnUse" gradientTransform="translate(15.9998 28.2225) rotate(-90) scale(12.2222 24.4444)">
<stop stop-color="#F70A8D"/>
<stop offset="1" stop-color="#89029C"/>
</radialGradient>
<linearGradient id="paint1_linear_215_618" x1="15.9998" y1="16.0003" x2="15.9998" y2="17.5003" gradientUnits="userSpaceOnUse">
<stop stop-color="#ECCDFF"/>
<stop offset="1" stop-color="white"/>
</linearGradient>
<radialGradient id="paint2_radial_215_618" cx="0" cy="0" r="1" gradientUnits="userSpaceOnUse" gradientTransform="translate(16.4996 30.0004) rotate(-99.8658) scale(11.6726 20.292)">
<stop stop-color="#FF1C4A"/>
<stop offset="0.765733" stop-color="#FF2B8F"/>
<stop offset="0.864496" stop-color="#BB0773"/>
<stop offset="0.886239" stop-color="#9F0762"/>
</radialGradient>
<radialGradient id="paint3_radial_215_618" cx="0" cy="0" r="1" gradientUnits="userSpaceOnUse" gradientTransform="translate(18.9273 26.2672) rotate(-132.995) scale(1.14734 1.65309)">
<stop stop-color="white" stop-opacity="0.38"/>
<stop offset="0.484749" stop-color="white" stop-opacity="0.2"/>
<stop offset="0.78955" stop-color="white" stop-opacity="0"/>
</radialGradient>
<radialGradient id="paint4_radial_215_618" cx="0" cy="0" r="1" gradientUnits="userSpaceOnUse" gradientTransform="translate(19.7203 25.3459) rotate(-148.867) scale(1.11719 1.60965)">
<stop stop-color="white" stop-opacity="0.38"/>
<stop offset="0.58723" stop-color="white" stop-opacity="0.2"/>
<stop offset="1" stop-color="white" stop-opacity="0"/>
</radialGradient>
</defs>
</svg>
