<svg width="32" height="32" viewBox="0 0 32 32" fill="none" xmlns="http://www.w3.org/2000/svg">
<path d="M16 26C6 26 6 16 6 16H26C26 16 26 26 16 26Z" fill="url(#paint0_radial_215_611)"/>
<path d="M7.75883 19.7942L7 16H25L24.2412 19.7942C24.1009 20.4953 23.4853 21 22.7703 21H9.22971C8.51468 21 7.89906 20.4953 7.75883 19.7942Z" fill="url(#paint1_radial_215_611)"/>
<path d="M7.75883 19.7942L7 16H25L24.2412 19.7942C24.1009 20.4953 23.4853 21 22.7703 21H9.22971C8.51468 21 7.89906 20.4953 7.75883 19.7942Z" fill="url(#paint2_linear_215_611)"/>
<path fill-rule="evenodd" clip-rule="evenodd" d="M8.34287 22.7155C9.80043 24.5291 12.1648 26 16 26C19.8347 26 22.1989 24.5295 23.6565 22.7164L23.7606 22.1961C23.8843 21.5773 23.411 21 22.78 21H9.21958C8.58853 21 8.11524 21.5773 8.239 22.1961L8.34287 22.7155Z" fill="url(#paint3_linear_215_611)"/>
<defs>
<radialGradient id="paint0_radial_215_611" cx="0" cy="0" r="1" gradientUnits="userSpaceOnUse" gradientTransform="translate(15 25) rotate(-90) scale(9 18)">
<stop stop-color="#F70A8D"/>
<stop offset="1" stop-color="#89029C"/>
</radialGradient>
<radialGradient id="paint1_radial_215_611" cx="0" cy="0" r="1" gradientUnits="userSpaceOnUse" gradientTransform="translate(21.5 16) rotate(138.576) scale(11.3358)">
<stop stop-color="white"/>
<stop offset="1" stop-color="#ECCDFF"/>
</radialGradient>
<linearGradient id="paint2_linear_215_611" x1="16" y1="19.7031" x2="16" y2="21" gradientUnits="userSpaceOnUse">
<stop stop-color="#F4DFFF" stop-opacity="0"/>
<stop offset="0.865521" stop-color="#FFB8FF"/>
<stop offset="1" stop-color="#DA7CE9"/>
</linearGradient>
<linearGradient id="paint3_linear_215_611" x1="17.0509" y1="21" x2="15.7774" y2="25.2773" gradientUnits="userSpaceOnUse">
<stop stop-color="white"/>
<stop offset="1" stop-color="#ECCDFF"/>
</linearGradient>
</defs>
</svg>
