<svg width="32" height="32" viewBox="0 0 32 32" fill="none" xmlns="http://www.w3.org/2000/svg">
<path fill-rule="evenodd" clip-rule="evenodd" d="M16 24C13.9954 24 13.0659 25.1042 12.8944 25.4472C12.6474 25.9412 12.0467 26.1414 11.5528 25.8944C11.0588 25.6474 10.8586 25.0468 11.1055 24.5528C11.6007 23.5625 13.2046 22 16 22C18.7954 22 20.3992 23.5625 20.8944 24.5528C21.1414 25.0468 20.9412 25.6474 20.4472 25.8944C19.9532 26.1414 19.3525 25.9412 19.1055 25.4472C18.934 25.1042 18.0046 24 16 24Z" fill="url(#paint0_radial_215_576)"/>
<path fill-rule="evenodd" clip-rule="evenodd" d="M16 24C13.9954 24 13.0659 25.1042 12.8944 25.4472C12.6474 25.9412 12.0467 26.1414 11.5528 25.8944C11.0588 25.6474 10.8586 25.0468 11.1055 24.5528C11.6007 23.5625 13.2046 22 16 22C18.7954 22 20.3992 23.5625 20.8944 24.5528C21.1414 25.0468 20.9412 25.6474 20.4472 25.8944C19.9532 26.1414 19.3525 25.9412 19.1055 25.4472C18.934 25.1042 18.0046 24 16 24Z" fill="url(#paint1_radial_215_576)"/>
<path fill-rule="evenodd" clip-rule="evenodd" d="M16 24C13.9954 24 13.0659 25.1042 12.8944 25.4472C12.6474 25.9412 12.0467 26.1414 11.5528 25.8944C11.0588 25.6474 10.8586 25.0468 11.1055 24.5528C11.6007 23.5625 13.2046 22 16 22C18.7954 22 20.3992 23.5625 20.8944 24.5528C21.1414 25.0468 20.9412 25.6474 20.4472 25.8944C19.9532 26.1414 19.3525 25.9412 19.1055 25.4472C18.934 25.1042 18.0046 24 16 24Z" fill="url(#paint2_radial_215_576)"/>
<path fill-rule="evenodd" clip-rule="evenodd" d="M16 24C13.9954 24 13.0659 25.1042 12.8944 25.4472C12.6474 25.9412 12.0467 26.1414 11.5528 25.8944C11.0588 25.6474 10.8586 25.0468 11.1055 24.5528C11.6007 23.5625 13.2046 22 16 22C18.7954 22 20.3992 23.5625 20.8944 24.5528C21.1414 25.0468 20.9412 25.6474 20.4472 25.8944C19.9532 26.1414 19.3525 25.9412 19.1055 25.4472C18.934 25.1042 18.0046 24 16 24Z" fill="url(#paint3_radial_215_576)"/>
<defs>
<radialGradient id="paint0_radial_215_576" cx="0" cy="0" r="1" gradientUnits="userSpaceOnUse" gradientTransform="translate(16 26.9236) rotate(-90) scale(5.43952 6.78745)">
<stop offset="0.479167" stop-color="#5B2666"/>
<stop offset="0.686742" stop-color="#533A4E"/>
<stop offset="0.817708" stop-color="#533A4E"/>
<stop offset="0.959686" stop-color="#53261F"/>
</radialGradient>
<radialGradient id="paint1_radial_215_576" cx="0" cy="0" r="1" gradientUnits="userSpaceOnUse" gradientTransform="translate(12.0317 25.7662) rotate(23.4704) scale(1.24475)">
<stop stop-color="#52265D"/>
<stop offset="1" stop-color="#52265D" stop-opacity="0"/>
</radialGradient>
<radialGradient id="paint2_radial_215_576" cx="0" cy="0" r="1" gradientUnits="userSpaceOnUse" gradientTransform="translate(10.9998 24.7142) rotate(33.0054) scale(0.788842 1.99699)">
<stop stop-color="#4E3130"/>
<stop offset="1" stop-color="#4E3130" stop-opacity="0"/>
</radialGradient>
<radialGradient id="paint3_radial_215_576" cx="0" cy="0" r="1" gradientUnits="userSpaceOnUse" gradientTransform="translate(20.5886 24.6031) rotate(134.098) scale(1.33078)">
<stop stop-color="#694F5B"/>
<stop offset="1" stop-color="#59414E" stop-opacity="0"/>
</radialGradient>
</defs>
</svg>
